<svg width="80" height="80" viewBox="0 0 80 80" fill="none" xmlns="http://www.w3.org/2000/svg">
<path d="M28.5989 38.6073C29.4275 41.5573 31.0184 44.3413 33.3387 46.6616C35.659 48.9818 38.4431 50.5727 41.3931 51.4015L43.2825 56.6054L51.4364 51.501C54.5189 50.6721 57.4357 49.0812 59.8553 46.6616L74.5064 32.0105C81.8317 24.6852 81.8317 12.8193 74.5064 5.49398C67.1811 -1.83133 55.3151 -1.83133 47.9898 5.49398L33.3387 20.1451C30.9192 22.5646 29.3282 25.4815 28.4993 28.564L33.3387 33.4034L38.5426 28.6635C39.4212 26.9866 39.5615 27.3077 54.6189 12.1232C58.265 8.47711 64.2312 8.47727 67.8771 12.1232C71.5231 15.7691 71.5232 21.7354 67.8771 25.3815L53.2261 40.0326C52.6626 40.596 52.0329 41.093 51.3367 41.4579L43.2823 36.718L33.3387 33.4034L28.5989 38.6073Z" fill="url(#paint0_linear_302_175)"/>
<path d="M46.5968 59.9198L32.0104 74.5062C24.6854 81.8312 12.8192 81.8315 5.49387 74.5062C-1.83145 67.1809 -1.83113 55.3148 5.49387 47.9896L20.0803 33.4032C22.5001 30.9834 25.417 29.3927 28.4993 28.564C31.7809 27.6691 35.2612 27.7021 38.5426 28.6635C41.4926 29.4921 44.2765 31.0829 46.5968 33.4032C48.9172 35.7235 50.5079 38.5079 51.3367 41.4579C47.7571 43.5793 43.0503 43.1149 39.9678 40.0323C36.8853 36.9496 32.1784 36.486 28.5989 38.6073C27.9029 38.9718 27.2732 39.4685 26.7095 40.0323L12.1231 54.6188C8.47715 58.2648 8.47715 64.2312 12.1231 67.8771C15.769 71.523 21.7354 71.523 25.3814 67.8771C40.3401 52.7915 40.5143 53.0791 41.3931 51.4015C44.6746 52.3626 48.1546 52.3959 51.4364 51.501C50.6078 54.5832 49.0167 57.5001 46.5968 59.9198Z" fill="url(#paint1_linear_302_175)"/>
<defs>
<linearGradient id="paint0_linear_302_175" x1="7.5157" y1="65.9413" x2="65.4299" y2="2.28682" gradientUnits="userSpaceOnUse">
<stop stop-color="#FFBEF9"/>
<stop offset="1" stop-color="#FFF1FF"/>
</linearGradient>
<linearGradient id="paint1_linear_302_175" x1="5.4972" y1="74.4982" x2="46.5939" y2="33.4015" gradientUnits="userSpaceOnUse">
<stop stop-color="#A93AFF"/>
<stop offset="1" stop-color="#FF81FF"/>
</linearGradient>
</defs>
</svg>
