<svg width="86" height="86" viewBox="0 0 86 86" fill="none" xmlns="http://www.w3.org/2000/svg">
<path d="M74.7775 0.15625H68.0669C64.7069 0.15625 61.9731 2.89 61.9731 6.25V55.1856C61.9731 56.4794 63.0231 57.5294 64.3169 57.5294H78.5275C79.8213 57.5294 80.8713 56.4794 80.8713 55.1856V6.25C80.8713 2.89 78.1375 0.15625 74.7775 0.15625Z" fill="url(#paint0_linear_302_176)"/>
<path d="M60.5671 13.4856H53.8564C50.4964 13.4856 47.7627 16.2193 47.7627 19.5793V55.1856C47.7627 56.4793 48.8127 57.5293 50.1064 57.5293H64.3171C65.6108 57.5293 66.6608 56.4793 66.6608 55.1856V19.5793C66.6608 16.2193 63.9271 13.4856 60.5671 13.4856Z" fill="url(#paint1_linear_302_176)"/>
<path d="M46.3566 4.39941H39.646C36.286 4.39941 33.5522 7.13316 33.5522 10.4932V55.1875C33.5522 56.4813 34.6022 57.5313 35.896 57.5313H50.1066C51.4004 57.5313 52.4504 56.4813 52.4504 55.1875V10.4932C52.4504 7.13316 49.7166 4.39941 46.3566 4.39941Z" fill="url(#paint2_linear_302_176)"/>
<path d="M32.1437 11.3743H25.4331C22.0731 11.3743 19.3394 14.108 19.3394 17.468V55.1874C19.3394 56.4811 20.3894 57.5311 21.6831 57.5311H35.8937C37.1875 57.5311 38.2375 56.4811 38.2375 55.1874V17.468C38.2375 14.108 35.5037 11.3743 32.1437 11.3743Z" fill="url(#paint3_linear_302_176)"/>
<path d="M17.9333 19.1895H11.2227C7.86266 19.1895 5.12891 21.9232 5.12891 25.2832V55.1857C5.12891 56.4795 6.17891 57.5295 7.47266 57.5295H21.6833C22.977 57.5295 24.027 56.4795 24.027 55.1857V25.2832C24.027 21.9232 21.2933 19.1895 17.9333 19.1895Z" fill="url(#paint4_linear_302_176)"/>
<path d="M83.5 57.5293H2.5C1.20625 57.5293 0.15625 56.4793 0.15625 55.1855C0.15625 53.8918 1.20625 52.8418 2.5 52.8418H83.5C84.7937 52.8418 85.8438 53.8918 85.8438 55.1855C85.8438 56.4793 84.7937 57.5293 83.5 57.5293Z" fill="url(#paint5_linear_302_176)"/>
<path d="M43.0001 85.8439C58.5776 85.8439 71.2057 73.2158 71.2057 57.6382C71.2057 42.0607 58.5776 29.4326 43.0001 29.4326C27.4225 29.4326 14.7944 42.0607 14.7944 57.6382C14.7944 73.2158 27.4225 85.8439 43.0001 85.8439Z" fill="url(#paint6_linear_302_176)"/>
<path d="M50.8975 62.7739C50.8975 59.0576 48.0381 56.2076 43.435 55.3339C42.8256 55.2176 39.7881 54.5389 39.7881 52.5007C39.7881 50.9614 41.2281 49.7089 42.9981 49.7089C44.3031 49.7089 45.505 50.4214 45.9887 51.4826C46.525 52.6601 47.9143 53.1814 49.0918 52.6451C50.2693 52.1089 50.7906 50.7195 50.2543 49.542C49.3243 47.4982 47.5093 45.9945 45.3418 45.3589V42.9382C45.3418 41.6445 44.2918 40.5945 42.9981 40.5945C41.7043 40.5945 40.6543 41.6445 40.6543 42.9382V45.357C37.4406 46.3057 35.1006 49.1482 35.1006 52.5007C35.1006 56.217 37.96 59.067 42.5631 59.9389C43.1725 60.0551 46.21 60.7339 46.21 62.772C46.21 64.3114 44.77 65.5639 43 65.5639C41.6743 65.5639 40.5006 64.8682 40.0093 63.7901C39.4731 62.6126 38.0837 62.0914 36.9062 62.6276C35.7287 63.1639 35.2075 64.5532 35.7437 65.7307C36.6737 67.7726 38.4887 69.2764 40.6562 69.9139V72.3345C40.6562 73.6282 41.7062 74.6782 43 74.6782C44.2937 74.6782 45.3437 73.6282 45.3437 72.3345V69.9157C48.5575 68.9689 50.8975 66.1245 50.8975 62.772V62.7739Z" fill="url(#paint7_linear_302_176)"/>
<defs>
<linearGradient id="paint0_linear_302_176" x1="71.4231" y1="57.5294" x2="71.4231" y2="0.15625" gradientUnits="userSpaceOnUse">
<stop stop-color="#00AEFF"/>
<stop offset="1" stop-color="#61EEFF"/>
</linearGradient>
<linearGradient id="paint1_linear_302_176" x1="57.2108" y1="57.6887" x2="57.2108" y2="13.5831" gradientUnits="userSpaceOnUse">
<stop stop-color="#0068C0"/>
<stop offset="1" stop-color="#00AEFF"/>
</linearGradient>
<linearGradient id="paint2_linear_302_176" x1="43.0004" y1="-4.99996" x2="43.0004" y2="4.39941" gradientUnits="userSpaceOnUse">
<stop stop-color="#00AEFF"/>
<stop offset="1" stop-color="#61EEFF"/>
</linearGradient>
<linearGradient id="paint3_linear_302_176" x1="28.7894" y1="57.6886" x2="28.7894" y2="13.583" gradientUnits="userSpaceOnUse">
<stop stop-color="#0068C0"/>
<stop offset="1" stop-color="#00AEFF"/>
</linearGradient>
<linearGradient id="paint4_linear_302_176" x1="14.577" y1="-4.99992" x2="14.577" y2="19.1895" gradientUnits="userSpaceOnUse">
<stop stop-color="#00AEFF"/>
<stop offset="1" stop-color="#61EEFF"/>
</linearGradient>
<linearGradient id="paint5_linear_302_176" x1="43" y1="57.6887" x2="43" y2="13.583" gradientUnits="userSpaceOnUse">
<stop stop-color="#0068C0"/>
<stop offset="1" stop-color="#00AEFF"/>
</linearGradient>
<linearGradient id="paint6_linear_302_176" x1="43.0001" y1="85.8439" x2="43.0001" y2="29.4326" gradientUnits="userSpaceOnUse">
<stop stop-color="#FFBD00"/>
<stop offset="1" stop-color="#FFF065"/>
</linearGradient>
<linearGradient id="paint7_linear_302_176" x1="43" y1="74.6801" x2="43" y2="40.5964" gradientUnits="userSpaceOnUse">
<stop stop-color="#FF9500"/>
<stop offset="1" stop-color="#FFCC1E"/>
</linearGradient>
</defs>
</svg>
