<svg width="47" height="58" viewBox="0 0 47 58" fill="none" xmlns="http://www.w3.org/2000/svg">
<path d="M11.8817 37.147L5.64258 51.4377L14.095 51.0891L19.6893 57.5722L26.5732 41.8002L11.8817 37.147Z" fill="#D33131"/>
<g style="mix-blend-mode:multiply">
<path d="M26.5718 41.8L21.8314 40.3013L21.5352 53.3546L26.5718 41.8Z" fill="#D82E4F"/>
</g>
<g style="mix-blend-mode:multiply">
<path d="M11.8807 37.147L10.0508 41.347L10.6782 41.5039L11.811 44.9197L15.4011 44.728L17.4924 47.6559L20.8734 46.4185L23.6444 48.5272L26.5722 41.8002L11.8807 37.147Z" fill="#D82E4F"/>
</g>
<path d="M21.9023 42.9158L27.6012 57.4331L33.3349 51.2114L41.857 51.8214L35.5831 35.8228L21.9023 42.9158Z" fill="#D33131"/>
<g style="mix-blend-mode:multiply">
<path d="M35.5831 35.8228L21.9023 42.9158L23.6103 47.2553L23.7323 47.3599L26.5904 45.1814L29.9714 46.4188L32.0627 43.4909L35.6528 43.6826L36.803 40.2668L37.2736 40.1448L35.5831 35.8228Z" fill="#D33131"/>
</g>
<path d="M23.7299 4.5227L26.8843 2.79736L29.3939 5.37666L32.9143 4.66213L34.5525 7.86882L38.1252 8.21737L38.7526 11.7552L42.0638 13.1494L41.6107 16.7047L44.3643 19.0225L42.8829 22.2989L44.8348 25.3139L42.4472 27.9978L43.4406 31.4659L40.3559 33.3307L40.2862 36.9208L36.8007 37.8096L35.6505 41.2254L32.0604 41.0337L29.969 43.9615L26.5881 42.7068L23.7299 44.9026L20.8718 42.7068L17.4908 43.9615L15.3995 41.0337L11.8094 41.2254L10.6766 37.8096L7.19105 36.9208L7.10391 33.3307L4.03664 31.4659L5.01259 27.9978L2.625 25.3139L4.59433 22.2989L3.09555 19.0225L5.86655 16.7047L5.396 13.1494L8.72469 11.7552L9.33465 8.21737L12.9248 7.86882L14.5455 4.66213L18.0659 5.37666L20.5755 2.79736L23.7299 4.5227Z" fill="#F99F00"/>
<path d="M35.3623 35.4906C41.7871 29.0658 41.7871 18.6491 35.3623 12.2243C28.9375 5.79949 18.5208 5.79949 12.096 12.2243C5.67122 18.6491 5.67122 29.0658 12.096 35.4906C18.5208 41.9154 28.9375 41.9154 35.3623 35.4906Z" fill="#FFB448"/>
<path d="M23.7321 41.3123C14.0946 41.3123 6.26953 33.4698 6.26953 23.8497C6.26953 14.2297 14.112 6.38721 23.7321 6.38721C33.3521 6.38721 41.1946 14.2297 41.1946 23.8497C41.1946 33.4698 33.3521 41.3123 23.7321 41.3123ZM23.7321 10.5873C16.4124 10.5873 10.4696 16.5301 10.4696 23.8497C10.4696 31.1694 16.4124 37.1122 23.7321 37.1122C31.0517 37.1122 36.9945 31.1694 36.9945 23.8497C36.9945 16.5301 31.0517 10.5873 23.7321 10.5873Z" fill="#FFB237"/>
<path d="M23.7293 37.1118C31.0539 37.1118 36.9917 31.174 36.9917 23.8494C36.9917 16.5247 31.0539 10.5869 23.7293 10.5869C16.4046 10.5869 10.4668 16.5247 10.4668 23.8494C10.4668 31.174 16.4046 37.1118 23.7293 37.1118Z" fill="#FFCE78"/>
<g style="mix-blend-mode:screen" opacity="0.44">
<path d="M14.9304 33.7309L35.1291 17.0874C32.8112 13.2011 28.5763 10.5869 23.7488 10.5869C16.4292 10.5869 10.4863 16.5298 10.4863 23.8494C10.4863 27.7706 12.2117 31.3084 14.9304 33.7309Z" fill="#FFB448"/>
</g>
<path d="M23.7321 41.3123C14.0946 41.3123 6.26953 33.4698 6.26953 23.8497C6.26953 14.2297 14.112 6.38721 23.7321 6.38721C33.3521 6.38721 41.1946 14.2297 41.1946 23.8497C41.1946 33.4698 33.3521 41.3123 23.7321 41.3123ZM23.7321 10.5873C16.4124 10.5873 10.4696 16.5301 10.4696 23.8497C10.4696 31.1694 16.4124 37.1122 23.7321 37.1122C31.0517 37.1122 36.9945 31.1694 36.9945 23.8497C36.9945 16.5301 31.0517 10.5873 23.7321 10.5873Z" fill="#FFB237"/>
<g style="mix-blend-mode:screen" opacity="0.44">
<path d="M23.7321 6.36997C14.0946 6.36997 6.26953 14.2124 6.26953 23.8325C6.26953 27.7886 7.61146 31.4135 9.82478 34.3588L13.0838 31.6924C11.463 29.4965 10.487 26.7778 10.487 23.8325C10.487 16.5129 16.4299 10.57 23.7495 10.57C27.6359 10.57 31.1214 12.2605 33.5438 14.927L36.8028 12.2605C33.5961 8.65299 28.9429 6.35254 23.7495 6.35254L23.7321 6.36997Z" fill="#FFB448"/>
</g>
<path opacity="0.22" d="M25.683 35.9697C32.3728 34.8922 36.9225 28.5955 35.8449 21.9057C34.7674 15.2159 28.4707 10.6663 21.7809 11.7438C15.0911 12.8213 10.5415 19.118 11.619 25.8078C12.6965 32.4976 18.9932 37.0473 25.683 35.9697Z" stroke="#AF2D00" stroke-width="3.55" stroke-miterlimit="10"/>
<path style="mix-blend-mode:color" d="M23.7299 4.5227L26.8843 2.79736L29.3939 5.37666L32.9143 4.66213L34.5525 7.86882L38.1252 8.21737L38.7526 11.7552L42.0638 13.1494L41.6107 16.7047L44.3643 19.0225L42.8829 22.2989L44.8348 25.3139L42.4472 27.9978L43.4406 31.4659L40.3559 33.3307L40.2862 36.9208L36.8007 37.8096L35.6505 41.2254L32.0604 41.0337L29.969 43.9615L26.5881 42.7068L23.7299 44.9026L20.8718 42.7068L17.4908 43.9615L15.3995 41.0337L11.8094 41.2254L10.6766 37.8096L7.19105 36.9208L7.10391 33.3307L4.03664 31.4659L5.01259 27.9978L2.625 25.3139L4.59433 22.2989L3.09555 19.0225L5.86655 16.7047L5.396 13.1494L8.72469 11.7552L9.33465 8.21737L12.9248 7.86882L14.5455 4.66213L18.0659 5.37666L20.5755 2.79736L23.7299 4.5227Z" fill="url(#paint0_radial_1086_20889)"/>
<g style="mix-blend-mode:screen">
<path d="M17.1092 25.3316L20.3682 25.0876C20.4205 26.4295 21.0479 27.0918 22.2504 27.0918C22.7732 27.0918 23.1566 26.9524 23.418 26.6735C23.662 26.3947 23.784 26.0461 23.784 25.6453C23.784 24.6171 23.1043 24.0768 21.7276 24.0245V21.9855C22.1458 21.9855 22.5467 21.8635 22.9301 21.6195C23.2961 21.3755 23.4878 21.0095 23.4878 20.539C23.4878 20.1556 23.3658 19.8419 23.1218 19.5979C22.8778 19.3713 22.5467 19.2493 22.1458 19.2493C21.2744 19.2493 20.8213 19.7199 20.7516 20.6784L17.3358 20.5041C17.4055 19.2493 17.8935 18.3082 18.7997 17.6808C19.7059 17.0534 20.9259 16.7397 22.4944 16.7397C24.15 16.7397 25.4048 17.0709 26.2239 17.7506C27.043 18.4302 27.4613 19.2668 27.4613 20.2776C27.4613 20.8701 27.287 21.4104 26.9384 21.8635C26.5899 22.334 26.1193 22.6652 25.5094 22.8394C26.2588 22.9963 26.8513 23.3448 27.2696 23.8851C27.6878 24.4254 27.897 25.0527 27.897 25.8196C27.897 27.0221 27.3916 27.9806 26.3982 28.6777C25.4048 29.3748 24.0803 29.7234 22.4421 29.7234C20.8039 29.7234 19.4968 29.3574 18.5557 28.6429C17.6321 27.9283 17.1441 26.8304 17.0918 25.3316H17.1092Z" fill="#DB6800"/>
</g>
<path d="M18.328 25.9415L21.5869 25.6975C21.6392 27.0394 22.2666 27.7017 23.4691 27.7017C23.992 27.7017 24.3754 27.5622 24.6368 27.2834C24.8808 27.0045 25.0028 26.656 25.0028 26.2552C25.0028 25.2269 24.3231 24.6867 22.9463 24.6344V22.5953C23.3646 22.5953 23.7654 22.4733 24.1488 22.2294C24.5148 21.9854 24.7065 21.6368 24.7065 21.1488C24.7065 20.7654 24.5845 20.4517 24.3405 20.2077C24.0965 19.9812 23.7654 19.8592 23.3646 19.8592C22.4932 19.8592 22.0401 20.3297 21.9704 21.2883L18.5545 21.114C18.6242 19.8592 19.1122 18.9181 20.0185 18.2907C20.9247 17.6633 22.1446 17.3496 23.7131 17.3496C25.3688 17.3496 26.6235 17.6807 27.4426 18.3604C28.2617 19.0401 28.68 19.8766 28.68 20.8874C28.68 21.48 28.5057 22.0202 28.1572 22.4733C27.8086 22.9439 27.3381 23.275 26.7281 23.4493C27.4775 23.6061 28.07 23.9547 28.4883 24.495C28.9066 25.0352 29.1157 25.6626 29.1157 26.4294C29.1157 27.6319 28.6103 28.5905 27.6169 29.2876C26.6235 29.9847 25.299 30.3332 23.6608 30.3332C22.0226 30.3332 20.7156 29.9672 19.7745 29.2527C18.8508 28.5382 18.3628 27.4402 18.3105 25.9415H18.328Z" fill="#DB6800"/>
<g style="mix-blend-mode:screen">
<path d="M15.4558 15.0837C15.5081 12.5741 17.5645 10.535 20.0915 10.535C17.5297 10.535 15.4383 8.46113 15.4383 5.88184C15.4383 8.44371 13.3645 10.535 10.7852 10.535C13.3122 10.535 15.3686 12.5566 15.4209 15.0837H15.4558Z" fill="white"/>
</g>
<defs>
<radialGradient id="paint0_radial_1086_20889" cx="0" cy="0" r="1" gradientUnits="userSpaceOnUse" gradientTransform="translate(18.5016 17.0009) scale(26.6295 26.6295)">
<stop stop-color="#FFB38B"/>
<stop offset="0.2" stop-color="#FDB087"/>
<stop offset="0.36" stop-color="#F8AA7D"/>
<stop offset="0.52" stop-color="#F09F6B"/>
<stop offset="0.67" stop-color="#E59052"/>
<stop offset="0.82" stop-color="#D67C32"/>
<stop offset="0.96" stop-color="#C5650B"/>
<stop offset="1" stop-color="#C05E00"/>
</radialGradient>
</defs>
</svg>
