<svg width="43" height="56" viewBox="0 0 43 56" fill="none" xmlns="http://www.w3.org/2000/svg">
<path d="M9.46567 35.1475L3.22656 49.4382L11.679 49.0896L17.2733 55.5727L24.1572 39.8007L9.46567 35.1475Z" fill="#D33131"/>
<g style="mix-blend-mode:multiply">
<path d="M24.1557 39.8005L19.4154 38.3018L19.1191 51.3551L24.1557 39.8005Z" fill="#D82E4F"/>
</g>
<g style="mix-blend-mode:multiply">
<path d="M9.46467 35.1475L7.63477 39.3475L8.26216 39.5044L9.39496 42.9202L12.9851 42.7285L15.0764 45.6564L18.4574 44.419L21.2284 46.5277L24.1562 39.8007L9.46467 35.1475Z" fill="#D82E4F"/>
</g>
<path d="M19.4883 40.9163L25.1871 55.4336L30.9208 49.2119L39.443 49.8219L33.169 33.8232L19.4883 40.9163Z" fill="#D33131"/>
<g style="mix-blend-mode:multiply">
<path d="M33.169 33.8232L19.4883 40.9163L21.1962 45.2558L21.3182 45.3604L24.1763 43.1819L27.5573 44.4193L29.6486 41.4914L33.2387 41.6831L34.3889 38.2673L34.8595 38.1453L33.169 33.8232Z" fill="#D33131"/>
</g>
<path d="M21.3159 2.5227L24.4703 0.797363L26.9799 3.37666L30.5002 2.66213L32.1384 5.86882L35.7111 6.21737L36.3385 9.75519L39.6498 11.1494L39.1967 14.7047L41.9502 17.0225L40.4689 20.2989L42.4208 23.3139L40.0332 25.9978L41.0266 29.4659L37.9419 31.3307L37.8722 34.9208L34.3866 35.8096L33.2364 39.2254L29.6463 39.0337L27.555 41.9615L24.174 40.7068L21.3159 42.9026L18.4577 40.7068L15.0767 41.9615L12.9854 39.0337L9.39533 39.2254L8.26253 35.8096L4.77699 34.9208L4.68985 31.3307L1.62258 29.4659L2.59853 25.9978L0.210938 23.3139L2.18027 20.2989L0.681485 17.0225L3.45249 14.7047L2.98194 11.1494L6.31063 9.75519L6.92059 6.21737L10.5107 5.86882L12.1315 2.66213L15.6519 3.37666L18.1614 0.797363L21.3159 2.5227Z" fill="#F99F00"/>
<path d="M25.0993 37.8704C33.9424 35.7833 39.4192 26.9226 37.332 18.0795C35.2449 9.23645 26.3842 3.75969 17.5411 5.84685C8.69802 7.934 3.22127 16.7947 5.30842 25.6378C7.39558 34.4808 16.2563 39.9576 25.0993 37.8704Z" fill="#FFB448"/>
<path d="M21.32 39.3121C11.6824 39.3121 3.85742 31.4697 3.85742 21.8496C3.85742 12.2295 11.6824 4.36963 21.32 4.36963C30.9575 4.36963 38.7825 12.2121 38.7825 21.8322C38.7825 31.4522 30.94 39.2947 21.32 39.2947V39.3121ZM21.32 8.58713C14.0003 8.58713 8.05749 14.53 8.05749 21.8496C8.05749 29.1692 14.0003 35.1121 21.32 35.1121C28.6396 35.1121 34.5824 29.1692 34.5824 21.8496C34.5824 14.53 28.6396 8.58713 21.32 8.58713Z" fill="#FFB237"/>
<path d="M30.7043 31.2256C35.8836 26.0463 35.8836 17.649 30.7042 12.4697C25.5249 7.29036 17.1276 7.29036 11.9483 12.4697C6.76898 17.649 6.76898 26.0463 11.9483 31.2256C17.1276 36.405 25.5249 36.405 30.7043 31.2256Z" fill="#FFC866"/>
<g style="mix-blend-mode:screen" opacity="0.44">
<path d="M12.5183 31.7309L32.717 15.0874C30.3991 11.2011 26.1642 8.58691 21.3367 8.58691C14.0171 8.58691 8.07422 14.5298 8.07422 21.8494C8.07422 25.7706 9.79956 29.3084 12.5183 31.7309Z" fill="#FFB448"/>
</g>
<path d="M21.32 39.3121C11.6824 39.3121 3.85742 31.4697 3.85742 21.8496C3.85742 12.2295 11.6824 4.36963 21.32 4.36963C30.9575 4.36963 38.7825 12.2121 38.7825 21.8322C38.7825 31.4522 30.94 39.2947 21.32 39.2947V39.3121ZM21.32 8.58713C14.0003 8.58713 8.05749 14.53 8.05749 21.8496C8.05749 29.1692 14.0003 35.1121 21.32 35.1121C28.6396 35.1121 34.5824 29.1692 34.5824 21.8496C34.5824 14.53 28.6396 8.58713 21.32 8.58713Z" fill="#FFB237"/>
<g style="mix-blend-mode:screen" opacity="0.44">
<path d="M21.32 4.36963C11.6824 4.36963 3.85742 12.2121 3.85742 21.8496C3.85742 25.8057 5.19935 29.4306 7.41267 32.3759L10.6716 29.7095C9.05087 27.5136 8.07492 24.7949 8.07492 21.8496C8.07492 14.53 14.0178 8.58713 21.3374 8.58713C25.2238 8.58713 28.7093 10.2776 31.1317 12.944L34.3907 10.2776C31.184 6.67008 26.5308 4.36963 21.3374 4.36963H21.32Z" fill="#FFB448"/>
</g>
<path style="mix-blend-mode:screen" opacity="0.46" d="M21.3159 2.5227L24.4703 0.797363L26.9799 3.37666L30.5002 2.66213L32.1384 5.86882L35.7111 6.21737L36.3385 9.75519L39.6498 11.1494L39.1967 14.7047L41.9502 17.0225L40.4689 20.2989L42.4208 23.3139L40.0332 25.9978L41.0266 29.4659L37.9419 31.3307L37.8722 34.9208L34.3866 35.8096L33.2364 39.2254L29.6463 39.0337L27.555 41.9615L24.174 40.7068L21.3159 42.9026L18.4577 40.7068L15.0767 41.9615L12.9854 39.0337L9.39533 39.2254L8.26253 35.8096L4.77699 34.9208L4.68985 31.3307L1.62258 29.4659L2.59853 25.9978L0.210938 23.3139L2.18027 20.2989L0.681485 17.0225L3.45249 14.7047L2.98194 11.1494L6.31063 9.75519L6.92059 6.21737L10.5107 5.86882L12.1315 2.66213L15.6519 3.37666L18.1614 0.797363L21.3159 2.5227Z" fill="url(#paint0_radial_1086_20861)"/>
<path opacity="0.22" d="M21.316 34.1192C28.092 34.1192 33.585 28.6262 33.585 21.8501C33.585 15.0741 28.092 9.58105 21.316 9.58105C14.5399 9.58105 9.04688 15.0741 9.04688 21.8501C9.04688 28.6262 14.5399 34.1192 21.316 34.1192Z" stroke="#AF2D00" stroke-width="3.55" stroke-miterlimit="10"/>
<g style="mix-blend-mode:screen">
<path d="M24.1751 27.1134H16.6289V24.2204H18.424V18.5216C18.0928 18.6087 17.6571 18.6436 17.082 18.6436C16.9077 18.6436 16.7509 18.6436 16.6289 18.6087V15.8203C16.6289 15.8203 16.7683 15.8203 16.8555 15.8203C17.6397 15.8203 18.3891 15.6634 19.0514 15.3497C19.7485 15.036 20.2364 14.6701 20.5327 14.2344H22.4323V24.1856H24.1751V27.0786V27.1134Z" fill="#EA9000"/>
</g>
<path d="M25.3919 27.7404H17.8457V24.8474H19.6408V19.1485C19.3096 19.2357 18.8739 19.2705 18.2988 19.2705C18.1245 19.2705 17.9677 19.2705 17.8457 19.2357V16.4472C17.8457 16.4472 17.9851 16.4472 18.0723 16.4472C18.8565 16.4472 19.6059 16.2904 20.2682 15.9767C20.9653 15.663 21.4532 15.297 21.7495 14.8613H23.6491V24.8125H25.3919V27.7055V27.7404Z" fill="#EA9000"/>
<g style="mix-blend-mode:screen">
<path d="M13.0359 13.0837C13.0881 10.5741 15.1446 8.53503 17.6716 8.53503C15.1097 8.53503 13.0184 6.46113 13.0184 3.88184C13.0184 6.44371 10.9445 8.53503 8.36523 8.53503C10.8922 8.53503 12.9487 10.5566 13.001 13.0837H13.0359Z" fill="white"/>
</g>
<defs>
<radialGradient id="paint0_radial_1086_20861" cx="0" cy="0" r="1" gradientUnits="userSpaceOnUse" gradientTransform="translate(16.0876 1.66875) scale(26.6295)">
<stop stop-color="#FFFF2A"/>
<stop offset="0.15" stop-color="#FBFB29"/>
<stop offset="0.28" stop-color="#F1F127"/>
<stop offset="0.4" stop-color="#DFDF24"/>
<stop offset="0.52" stop-color="#C6C620"/>
<stop offset="0.63" stop-color="#A6A61B"/>
<stop offset="0.74" stop-color="#7E7E14"/>
<stop offset="0.85" stop-color="#50500D"/>
<stop offset="0.95" stop-color="#1B1B04"/>
<stop offset="1"/>
</radialGradient>
</defs>
</svg>
