<svg width="44" height="56" viewBox="0 0 44 56" fill="none" xmlns="http://www.w3.org/2000/svg">
<path d="M10.1844 35.1475L3.94531 49.4382L12.3977 49.0896L17.992 55.5727L24.8585 39.8007L10.1844 35.1475Z" fill="#D33131"/>
<g style="mix-blend-mode:multiply">
<path d="M24.8569 39.8005L20.134 38.3018L19.8203 51.3551L24.8569 39.8005Z" fill="#D82E4F"/>
</g>
<g style="mix-blend-mode:multiply">
<path d="M10.1834 35.1475L8.35352 39.3475L8.96349 39.5044L10.0963 42.9202L13.7038 42.7285L15.7951 45.6564L19.1587 44.419L21.9297 46.5277L24.8575 39.8007L10.1834 35.1475Z" fill="#D82E4F"/>
</g>
<path d="M20.1895 40.9163L25.8883 55.4336L31.622 49.2119L40.1616 49.8219L33.8702 33.8232L20.1895 40.9163Z" fill="#D33131"/>
<g style="mix-blend-mode:multiply">
<path d="M33.8702 33.8232L20.1895 40.9163L21.8974 45.2558L22.0368 45.3604L24.8949 43.1819L28.2759 44.4193L30.3672 41.4914L33.9573 41.6831L35.0901 38.2673L35.5781 38.1453L33.8702 33.8232Z" fill="#D33131"/>
</g>
<path d="M22.0346 2.5227L25.189 0.797363L27.6812 3.37666L31.219 2.66213L32.8398 5.86882L36.4299 6.21737L37.0398 9.75519L40.3685 11.1494L39.898 14.7047L42.669 17.0225L41.1702 20.2989L43.1395 23.3139L40.7519 25.9978L41.7279 29.4659L38.6606 31.3307L38.5735 34.9208L35.0879 35.8096L33.9551 39.2254L30.365 39.0337L28.2737 41.9615L24.8928 40.7068L22.0346 42.9026L19.159 40.7068L15.7955 41.9615L13.7042 39.0337L10.0966 39.2254L8.96385 35.8096L5.47831 34.9208L5.4086 31.3307L2.3239 29.4659L3.31728 25.9978L0.929688 23.3139L2.88159 20.2989L1.40024 17.0225L4.15381 14.7047L3.70069 11.1494L7.01195 9.75519L7.63935 6.21737L11.212 5.86882L12.8502 2.66213L16.3706 3.37666L18.8802 0.797363L22.0346 2.5227Z" fill="#F99F00"/>
<path d="M25.7456 37.8789C34.5969 35.8273 40.1092 26.9886 38.0576 18.1372C36.0059 9.28585 27.1673 3.77358 18.3159 5.82522C9.46453 7.87686 3.95224 16.7155 6.00388 25.5669C8.05552 34.4183 16.8942 39.9305 25.7456 37.8789Z" fill="#FFB448"/>
<path d="M22.0348 39.3123C12.3973 39.3123 4.57227 31.4698 4.57227 21.8497C4.57227 12.2297 12.4147 4.38721 22.0348 4.38721C31.6549 4.38721 39.4973 12.2297 39.4973 21.8497C39.4973 31.4698 31.6549 39.3123 22.0348 39.3123ZM22.0348 8.58728C14.7152 8.58728 8.77234 14.5301 8.77234 21.8497C8.77234 29.1694 14.7152 35.1122 22.0348 35.1122C29.3544 35.1122 35.2973 29.1694 35.2973 21.8497C35.2973 14.5301 29.3544 8.58728 22.0348 8.58728Z" fill="#FFC06C"/>
<path d="M31.423 31.2247C36.6023 26.0453 36.6023 17.648 31.423 12.4687C26.2437 7.28939 17.8464 7.28938 12.667 12.4687C7.48773 17.648 7.48773 26.0453 12.667 31.2247C17.8464 36.404 26.2437 36.404 31.423 31.2247Z" fill="#FFCB78"/>
<g style="mix-blend-mode:screen" opacity="0.44">
<path d="M13.2175 31.7319L33.4162 15.0884C31.0983 11.202 26.8634 8.58789 22.0359 8.58789C14.7163 8.58789 8.77344 14.5307 8.77344 21.8504C8.77344 25.7716 10.4988 29.3094 13.2175 31.7319Z" fill="#FFB448"/>
</g>
<path d="M22.0348 39.3123C12.3973 39.3123 4.57227 31.4698 4.57227 21.8497C4.57227 12.2297 12.4147 4.38721 22.0348 4.38721C31.6549 4.38721 39.4973 12.2297 39.4973 21.8497C39.4973 31.4698 31.6549 39.3123 22.0348 39.3123ZM22.0348 8.58728C14.7152 8.58728 8.77234 14.5301 8.77234 21.8497C8.77234 29.1694 14.7152 35.1122 22.0348 35.1122C29.3544 35.1122 35.2973 29.1694 35.2973 21.8497C35.2973 14.5301 29.3544 8.58728 22.0348 8.58728Z" fill="#FFB237"/>
<g style="mix-blend-mode:screen" opacity="0.44">
<path d="M22.0348 4.36997C12.3973 4.36997 4.57227 12.2124 4.57227 21.8325C4.57227 25.7886 5.9142 29.4135 8.12751 32.3588L11.3865 29.6924C9.76572 27.4965 8.78976 24.7778 8.78976 21.8325C8.78976 14.5129 14.7326 8.57004 22.0522 8.57004C25.9386 8.57004 29.4241 10.2605 31.8466 12.927L35.1056 10.2605C31.8989 6.65299 27.2457 4.35254 22.0522 4.35254L22.0348 4.36997Z" fill="#FFBE69"/>
</g>
<path style="mix-blend-mode:screen" opacity="0.46" d="M22.0346 2.5227L25.189 0.797363L27.6812 3.37666L31.219 2.66213L32.8398 5.86882L36.4299 6.21737L37.0398 9.75519L40.3685 11.1494L39.898 14.7047L42.669 17.0225L41.1702 20.2989L43.1395 23.3139L40.7519 25.9978L41.7279 29.4659L38.6606 31.3307L38.5735 34.9208L35.0879 35.8096L33.9551 39.2254L30.365 39.0337L28.2737 41.9615L24.8928 40.7068L22.0346 42.9026L19.159 40.7068L15.7955 41.9615L13.7042 39.0337L10.0966 39.2254L8.96385 35.8096L5.47831 34.9208L5.4086 31.3307L2.3239 29.4659L3.31728 25.9978L0.929688 23.3139L2.88159 20.2989L1.40024 17.0225L4.15381 14.7047L3.70069 11.1494L7.01195 9.75519L7.63935 6.21737L11.212 5.86882L12.8502 2.66213L16.3706 3.37666L18.8802 0.797363L22.0346 2.5227Z" fill="url(#paint0_radial_1086_20831)"/>
<path opacity="0.22" d="M22.0347 34.1192C28.8107 34.1192 34.3038 28.6262 34.3038 21.8501C34.3038 15.0741 28.8107 9.58105 22.0347 9.58105C15.2587 9.58105 9.76562 15.0741 9.76562 21.8501C9.76562 28.6262 15.2587 34.1192 22.0347 34.1192Z" stroke="#AF2D00" stroke-width="3.55" stroke-miterlimit="10"/>
<g style="mix-blend-mode:color">
<path d="M22.0346 2.5227L25.189 0.797363L27.6812 3.37666L31.219 2.66213L32.8398 5.86882L36.4299 6.21737L37.0398 9.75519L40.3685 11.1494L39.898 14.7047L42.669 17.0225L41.1702 20.2989L43.1395 23.3139L40.7519 25.9978L41.7279 29.4659L38.6606 31.3307L38.5735 34.9208L35.0879 35.8096L33.9551 39.2254L30.365 39.0337L28.2737 41.9615L24.8928 40.7068L22.0346 42.9026L19.159 40.7068L15.7955 41.9615L13.7042 39.0337L10.0966 39.2254L8.96385 35.8096L5.47831 34.9208L5.4086 31.3307L2.3239 29.4659L3.31728 25.9978L0.929688 23.3139L2.88159 20.2989L1.40024 17.0225L4.15381 14.7047L3.70069 11.1494L7.01195 9.75519L7.63935 6.21737L11.212 5.86882L12.8502 2.66213L16.3706 3.37666L18.8802 0.797363L22.0346 2.5227Z" fill="#808080"/>
</g>
<g style="mix-blend-mode:overlay">
<path d="M22.0346 2.5227L25.189 0.797363L27.6812 3.37666L31.219 2.66213L32.8398 5.86882L36.4299 6.21737L37.0398 9.75519L40.3685 11.1494L39.898 14.7047L42.669 17.0225L41.1702 20.2989L43.1395 23.3139L40.7519 25.9978L41.7279 29.4659L38.6606 31.3307L38.5735 34.9208L35.0879 35.8096L33.9551 39.2254L30.365 39.0337L28.2737 41.9615L24.8928 40.7068L22.0346 42.9026L19.159 40.7068L15.7955 41.9615L13.7042 39.0337L10.0966 39.2254L8.96385 35.8096L5.47831 34.9208L5.4086 31.3307L2.3239 29.4659L3.31728 25.9978L0.929688 23.3139L2.88159 20.2989L1.40024 17.0225L4.15381 14.7047L3.70069 11.1494L7.01195 9.75519L7.63935 6.21737L11.212 5.86882L12.8502 2.66213L16.3706 3.37666L18.8802 0.797363L22.0346 2.5227Z" fill="#777777"/>
</g>
<g style="mix-blend-mode:screen">
<path d="M23.2729 23.1051H25.8871L25.7825 27.0438H15.7616C15.7616 26.7823 15.7441 26.6603 15.7441 26.6603C15.7441 25.4927 16.0056 24.4296 16.511 23.5059C16.7724 23.0354 17.1384 22.5474 17.5915 22.0769C18.0446 21.6063 18.6023 21.1358 19.2645 20.6478C20.3799 19.8287 21.0944 19.2362 21.4081 18.8702C21.7218 18.5042 21.8961 18.1208 21.8961 17.7374C21.8961 17.354 21.7915 17.0751 21.565 16.8311C21.3559 16.5871 21.0247 16.4826 20.589 16.4826C19.6654 16.4826 19.1948 17.0751 19.1948 18.2428L15.9533 18.1382C16.023 16.6917 16.4935 15.6635 17.3998 15.0709C18.306 14.4784 19.4388 14.1821 20.7982 14.1821C22.2969 14.1821 23.5169 14.5307 24.4406 15.2104C25.3642 15.9075 25.8348 16.8137 25.8348 17.9291C25.8348 18.6436 25.6082 19.3059 25.1202 19.9158C24.6323 20.5258 23.7086 21.1706 22.3492 21.8677C21.2513 22.4254 20.5193 22.8437 20.1359 23.1225C19.7525 23.4188 19.4737 23.7499 19.2645 24.1333H23.238L23.2903 23.0877L23.2729 23.1051Z" fill="#7C7C7C"/>
</g>
<path d="M24.4916 23.7145H27.1058L27.0012 27.6531H16.9803C16.9803 27.3917 16.9629 27.2697 16.9629 27.2697C16.9629 26.1021 17.2243 25.039 17.7297 24.1153C17.9911 23.6448 18.3571 23.1568 18.8102 22.6862C19.2633 22.2157 19.821 21.7451 20.4833 21.2572C21.5986 20.4381 22.3132 19.8455 22.6269 19.4796C22.9406 19.1136 23.1149 18.7302 23.1149 18.3468C23.1149 17.9633 23.0103 17.6845 22.7837 17.4405C22.5746 17.1965 22.2435 17.092 21.8078 17.092C20.8841 17.092 20.4136 17.6845 20.4136 18.8522L17.172 18.7476C17.2417 17.3011 17.7123 16.2729 18.6185 15.6803C19.5248 15.0878 20.6576 14.7915 22.0169 14.7915C23.5157 14.7915 24.7356 15.1401 25.6593 15.8197C26.583 16.5168 27.0535 17.4231 27.0535 18.5385C27.0535 19.253 26.827 19.9152 26.339 20.5252C25.851 21.1352 24.9273 21.78 23.568 22.4771C22.47 23.0348 21.7381 23.4531 21.3547 23.7319C20.9713 24.0282 20.6924 24.3593 20.4833 24.7427H24.4568L24.5091 23.697L24.4916 23.7145Z" fill="#8C8C8C"/>
<g style="mix-blend-mode:screen">
<path d="M13.7546 13.0837C13.8069 10.5741 15.8634 8.53503 18.3904 8.53503C15.8285 8.53503 13.7372 6.46113 13.7372 3.88184C13.7372 6.44371 11.6633 8.53503 9.08398 8.53503C11.611 8.53503 13.6675 10.5566 13.7197 13.0837H13.7546Z" fill="white"/>
</g>
<defs>
<radialGradient id="paint0_radial_1086_20831" cx="0" cy="0" r="1" gradientUnits="userSpaceOnUse" gradientTransform="translate(16.7889 15.0009) scale(26.6295)">
<stop stop-color="#FFFF2A"/>
<stop offset="0.15" stop-color="#FBFB29"/>
<stop offset="0.28" stop-color="#F1F127"/>
<stop offset="0.4" stop-color="#DFDF24"/>
<stop offset="0.52" stop-color="#C6C620"/>
<stop offset="0.63" stop-color="#A6A61B"/>
<stop offset="0.74" stop-color="#7E7E14"/>
<stop offset="0.85" stop-color="#50500D"/>
<stop offset="0.95" stop-color="#1B1B04"/>
<stop offset="1"/>
</radialGradient>
</defs>
</svg>
