<svg width="15" height="15" viewBox="0 0 15 15" fill="none" xmlns="http://www.w3.org/2000/svg">
<path d="M1.80172 3.35586H1.78056C1.55012 3.36976 1.31929 3.336 1.10248 3.25669C0.885669 3.17737 0.687541 3.05421 0.520464 2.8949C0.353387 2.73558 0.220951 2.54353 0.131425 2.33074C0.0418984 2.11794 -0.00279509 1.88898 0.000135317 1.65814C0.00306572 1.42729 0.0535569 1.19954 0.148456 0.989083C0.243355 0.77863 0.380624 0.590003 0.551691 0.434979C0.722758 0.279956 0.923949 0.161865 1.1427 0.0880828C1.36145 0.0143002 1.59307 -0.0135903 1.82308 0.00615302C2.05423 -0.0105879 2.28635 0.0206767 2.50484 0.0979807C2.72333 0.175285 2.92345 0.296956 3.09264 0.455345C3.26183 0.613734 3.39643 0.805414 3.48795 1.01833C3.57948 1.23125 3.62597 1.46081 3.62449 1.69256C3.62301 1.92432 3.5736 2.15326 3.47937 2.36499C3.38513 2.57673 3.24811 2.76668 3.07691 2.92289C2.90571 3.07911 2.70405 3.19822 2.4846 3.27273C2.26514 3.34725 2.03264 3.37555 1.80172 3.35586Z" fill="white"/>
<path d="M3.31577 5.61035H0.30957V14.629H3.31577V5.61035Z" fill="white"/>
<path d="M11.2065 5.61035C10.6999 5.61173 10.2002 5.7276 9.74466 5.94929C9.28917 6.17098 8.88967 6.49275 8.57603 6.89057V5.61035H5.56982V14.629H8.57603V10.4954C8.57603 10.0968 8.73439 9.71447 9.01628 9.43258C9.29816 9.15069 9.68048 8.99233 10.0791 8.99233C10.4778 8.99233 10.8601 9.15069 11.142 9.43258C11.4239 9.71447 11.5822 10.0968 11.5822 10.4954V14.629H14.5884V8.99233C14.5884 8.5482 14.501 8.10842 14.331 7.6981C14.161 7.28778 13.9119 6.91496 13.5979 6.60091C13.2838 6.28686 12.911 6.03775 12.5007 5.86779C12.0904 5.69783 11.6506 5.61035 11.2065 5.61035Z" fill="white"/>
</svg>
