<svg width="40" height="40" viewBox="0 0 40 40" fill="none" xmlns="http://www.w3.org/2000/svg">
<path d="M33.5432 32.7907C33.4391 31.7378 32.8749 30.7971 31.9949 30.2101L26.0291 26.2333C24.6364 25.3052 22.7744 25.4928 21.5922 26.6727L19.6857 28.5953C19.2519 28.7464 17.2458 27.8961 14.6628 25.312C12.0788 22.7268 11.24 20.7378 11.3498 20.3419L13.3056 18.3861C14.4866 17.2051 14.672 15.3385 13.745 13.9492L9.76823 7.98345C9.18112 7.10337 8.24042 6.53923 7.18761 6.43509C6.13245 6.32978 5.10479 6.70056 4.35745 7.4479L1.40714 10.3982C-2.63607 14.4414 2.6294 23.3266 9.64003 30.3384C14.4061 35.1045 24.836 43.3211 29.5802 38.5713L32.5305 35.621C33.2778 34.8747 33.6474 33.8424 33.5432 32.7907Z" fill="url(#paint0_linear_243_736)"/>
<path d="M22.4219 0C21.7741 0 21.25 0.524141 21.25 1.17188C21.25 1.81961 21.7741 2.34375 22.4219 2.34375C30.8219 2.34375 37.6562 9.17813 37.6562 17.5781C37.6562 18.2259 38.1804 18.75 38.8281 18.75C39.4759 18.75 40 18.2259 40 17.5781C40 7.885 32.115 0 22.4219 0ZM22.4219 4.6875C21.7741 4.6875 21.25 5.21164 21.25 5.85938C21.25 6.50711 21.7741 7.03125 22.4219 7.03125C28.2377 7.03125 32.9688 11.7623 32.9688 17.5781C32.9688 18.2259 33.4929 18.75 34.1406 18.75C34.7884 18.75 35.3125 18.2259 35.3125 17.5781C35.3125 10.4702 29.5298 4.6875 22.4219 4.6875ZM22.4219 9.375C21.7741 9.375 21.25 9.89914 21.25 10.5469C21.25 11.1946 21.7741 11.7188 22.4219 11.7188C25.6526 11.7188 28.2812 14.3474 28.2812 17.5781C28.2812 18.2259 28.8054 18.75 29.4531 18.75C30.1009 18.75 30.625 18.2259 30.625 17.5781C30.625 13.0554 26.9446 9.375 22.4219 9.375ZM22.4219 14.0625C21.7741 14.0625 21.25 14.5866 21.25 15.2344C21.25 15.8821 21.7741 16.4062 22.4219 16.4062C23.0684 16.4062 23.5938 16.9316 23.5938 17.5781C23.5938 18.2259 24.1179 18.75 24.7656 18.75C25.4134 18.75 25.9375 18.2259 25.9375 17.5781C25.9375 15.6395 24.3605 14.0625 22.4219 14.0625Z" fill="url(#paint1_linear_243_736)"/>
<defs>
<linearGradient id="paint0_linear_243_736" x1="16.7803" y1="40.0002" x2="16.7803" y2="6.41735" gradientUnits="userSpaceOnUse">
<stop stop-color="#5558FF"/>
<stop offset="1" stop-color="#00C0FF"/>
</linearGradient>
<linearGradient id="paint1_linear_243_736" x1="30.625" y1="18.75" x2="30.625" y2="0" gradientUnits="userSpaceOnUse">
<stop stop-color="#ADDCFF"/>
<stop offset="0.5028" stop-color="#EAF6FF"/>
<stop offset="1" stop-color="#EAF6FF"/>
</linearGradient>
</defs>
</svg>
