<svg width="45" height="45" viewBox="0 0 45 45" fill="none" xmlns="http://www.w3.org/2000/svg">
<path d="M0.772461 43.5741L3.78655 32.583C1.9244 29.3697 0.945685 25.7147 0.945685 21.9817C0.954346 10.2805 10.473 0.770508 22.1656 0.770508C27.8386 0.770508 33.1739 2.97911 37.1754 6.98923C41.1855 10.9994 43.3941 16.326 43.3855 21.9991C43.3768 33.6917 33.8582 43.2103 22.1656 43.2103H22.1569C18.6058 43.2103 15.1154 42.3182 12.0147 40.6293L0.772461 43.5741Z" fill="url(#paint0_linear_243_745)"/>
<path d="M0 44.3452L3.11802 32.9558C1.19524 29.6299 0.190546 25.845 0.190546 21.9734C0.190546 9.85642 10.0556 0 22.1726 0C28.0536 0 33.5707 2.29521 37.7194 6.44392C41.8681 10.6013 44.1547 16.1185 44.1547 21.9907C44.146 34.1077 34.2896 43.9641 22.1726 43.9641H22.164C18.483 43.9641 14.8712 43.0374 11.6579 41.2878L0 44.3452ZM12.1949 37.3124L12.8619 37.7108C15.6681 39.3737 18.8814 40.2572 22.164 40.2572H22.1726C32.2456 40.2572 40.439 32.0637 40.439 21.9907C40.439 17.1145 38.5422 12.5241 35.0951 9.06825C31.6479 5.61244 27.0575 3.71565 22.1813 3.71565C12.0997 3.71565 3.90619 11.9091 3.90619 21.9821C3.90619 25.4292 4.86758 28.7898 6.69509 31.6999L7.12815 32.3928L5.28332 39.1312L12.1949 37.3124Z" fill="url(#paint1_linear_243_745)"/>
<path fill-rule="evenodd" clip-rule="evenodd" d="M16.6734 12.7829C16.2577 11.8648 15.8246 11.8475 15.4349 11.8302C15.1144 11.8128 14.7507 11.8215 14.3782 11.8215C14.0145 11.8215 13.4168 11.9601 12.9145 12.5057C12.4121 13.0514 10.9917 14.3852 10.9917 17.0875C10.9917 19.7898 12.9578 22.4055 13.2349 22.7692C13.5121 23.133 17.0372 28.858 22.615 31.058C27.2574 32.8855 28.2015 32.5217 29.2062 32.4351C30.2109 32.3485 32.4541 31.1099 32.9131 29.8281C33.3722 28.5462 33.3722 27.4463 33.2336 27.2211C33.095 26.9959 32.7313 26.8573 32.1769 26.5801C31.6313 26.303 28.929 24.9778 28.4267 24.7959C27.9243 24.6141 27.5605 24.5188 27.1881 25.0731C26.8243 25.6188 25.7677 26.8573 25.4472 27.2211C25.1267 27.5848 24.8063 27.6368 24.2606 27.3597C23.715 27.0825 21.9394 26.5022 19.8434 24.6314C18.2065 23.1763 17.1065 21.3748 16.786 20.8291C16.4656 20.2835 16.7514 19.9803 17.0285 19.7118C17.2711 19.4693 17.5742 19.0709 17.8514 18.7504C18.1285 18.43 18.2151 18.2048 18.397 17.8324C18.5789 17.4686 18.4923 17.1481 18.3537 16.871C18.2324 16.5851 17.1671 13.8742 16.6734 12.7829Z" fill="white"/>
<defs>
<linearGradient id="paint0_linear_243_745" x1="22.0788" y1="43.5776" x2="22.0788" y2="0.767563" gradientUnits="userSpaceOnUse">
<stop stop-color="#20B038"/>
<stop offset="1" stop-color="#60D66A"/>
</linearGradient>
<linearGradient id="paint1_linear_243_745" x1="22.0773" y1="44.3452" x2="22.0773" y2="0" gradientUnits="userSpaceOnUse">
<stop stop-color="#F5F5F5"/>
<stop offset="1" stop-color="#F9F9F9"/>
</linearGradient>
</defs>
</svg>
