<svg width="32" height="23" viewBox="0 0 32 23" fill="none" xmlns="http://www.w3.org/2000/svg">
<path d="M31.3407 3.94244C30.9718 2.59639 29.891 1.53537 28.5204 1.17291C26.0162 0.5 15.9997 0.5 15.9997 0.5C15.9997 0.5 5.98337 0.5 3.47923 1.14726C2.135 1.50948 1.02783 2.59663 0.658933 3.94244C0 6.40106 0 11.5 0 11.5C0 11.5 0 16.6246 0.658933 19.0576C1.02807 20.4034 2.10863 21.4646 3.47948 21.8271C6.00974 22.5 15.9999 22.5 15.9999 22.5C15.9999 22.5 26.0162 22.5 28.5204 21.8527C29.8912 21.4905 30.9718 20.4293 31.3409 19.0834C31.9999 16.6246 31.9999 11.5259 31.9999 11.5259C31.9999 11.5259 32.0262 6.40106 31.3407 3.94244Z" fill="#FF390D"/>
<path d="M12.8105 16.2102L21.1399 11.4996L12.8105 6.78906V16.2102Z" fill="white"/>
</svg>
