<svg width="18" height="13" viewBox="0 0 18 13" fill="none" xmlns="http://www.w3.org/2000/svg">
<path d="M17.9959 4.58161C18.0363 3.3787 17.7803 2.18479 17.2518 1.11075C16.8932 0.670038 16.3955 0.372629 15.8454 0.270343C13.5703 0.058163 11.2857 -0.0288028 9.00153 0.00981866C6.72568 -0.0305557 4.44935 0.0536038 2.1822 0.26194C1.73397 0.345742 1.31917 0.56183 0.988407 0.883837C0.252508 1.58137 0.170742 2.77474 0.088975 3.78323C-0.0296584 5.59645 -0.0296584 7.41581 0.088975 9.22903C0.11263 9.79665 0.194858 10.3601 0.334275 10.9098C0.432865 11.3343 0.632333 11.727 0.914817 12.0528C1.24783 12.3919 1.67229 12.6202 2.13314 12.7083C3.89596 12.9319 5.67217 13.0246 7.44797 12.9856C10.3098 13.0277 12.82 12.9856 15.7882 12.7503C16.2603 12.6677 16.6967 12.439 17.0392 12.0948C17.2681 11.8594 17.4391 11.5713 17.538 11.2544C17.8304 10.3322 17.974 9.36695 17.9631 8.39704C17.9959 7.92641 17.9959 5.08585 17.9959 4.58161ZM7.15361 8.90128V3.69919L11.9942 6.31284C10.6369 7.08601 8.84618 7.96003 7.15361 8.90128Z" fill="#0A1123"/>
</svg>
