<svg width="50" height="50" viewBox="0 0 50 50" fill="none" xmlns="http://www.w3.org/2000/svg">
<path d="M24.8747 4.60829L19.8538 16.2958H14.833C13.9997 16.2958 13.1872 16.3583 12.3955 16.525L14.4788 11.525L14.5622 11.3375L14.6872 11.0041C14.7497 10.8583 14.7913 10.7333 14.8538 10.6291C17.2705 5.02496 19.9788 3.27496 24.8747 4.60829ZM39.0226 16.8541L38.9809 16.8333C37.7309 16.4791 36.4601 16.2916 35.1684 16.2916H22.1268L26.8143 5.39579L26.8768 5.24996C27.1684 5.35412 27.4809 5.49996 27.7934 5.60412L32.3976 7.54162C34.9601 8.60412 36.7518 9.70829 37.8559 11.0416C38.0434 11.2916 38.2101 11.5208 38.3768 11.7916C38.5643 12.0833 38.7101 12.375 38.7934 12.6875C38.8768 12.875 38.9393 13.0416 38.9809 13.2291C39.2934 14.2916 39.3143 15.5 39.0226 16.8541ZM26.083 36.7875H26.6038C27.2288 36.7875 27.7497 36.225 27.7497 35.5375C27.7497 34.6625 27.4997 34.5375 26.958 34.3291L26.083 34.0166V36.7875Z" fill="#FFBA00"/>
<path d="M38.0996 19.8334C37.1621 19.5626 36.1829 19.4167 35.1621 19.4167H14.8288C13.4121 19.4167 12.0788 19.6876 10.8288 20.2292C8.99984 21.016 7.44128 22.3211 6.34544 23.9834C5.24959 25.6457 4.66441 27.5924 4.66211 29.5834V33.6459C4.66211 34.1459 4.70378 34.6251 4.76628 35.1251C5.22461 41.7501 8.76627 45.2917 15.3913 45.7292C15.8704 45.7917 16.3496 45.8334 16.8704 45.8334H33.1204C40.8288 45.8334 44.8913 42.1667 45.2871 34.8751C45.3079 34.4792 45.3288 34.0626 45.3288 33.6459V29.5834C45.3258 27.3986 44.6219 25.2724 43.3206 23.5173C42.0194 21.7623 40.1893 20.471 38.0996 19.8334Z" fill="#FFBA00"/>
<path d="M22.25 29.4583C22.25 30.3333 22.5 30.4583 23.0417 30.6666L23.9167 30.9791V28.2083H23.3958C22.75 28.2083 22.25 28.7708 22.25 29.4583Z" fill="#FFBA00"/>
<path d="M29.1667 27.9999V26.3333H20V27.9999H22.9167C24.0017 27.9999 24.9175 28.6983 25.2625 29.6666H20V31.3333H25.2625C25.0914 31.8193 24.7741 32.2404 24.3541 32.5388C23.934 32.8373 23.4319 32.9983 22.9167 32.9999H20V35.0116L24.655 39.6666H27.0117L22.0117 34.6666H22.9167C23.8767 34.6653 24.8068 34.3331 25.5503 33.7258C26.2938 33.1186 26.8053 32.2736 26.9983 31.3333H29.1667V29.6666H26.9983C26.8706 29.0601 26.6073 28.4903 26.2283 27.9999H29.1667Z" fill="white"/>
</svg>
