<svg width="44" height="44" viewBox="0 0 44 44" fill="none" xmlns="http://www.w3.org/2000/svg">
<path d="M30.9062 16.4341C25.3812 16.4341 20.8867 20.9285 20.8867 26.4535C20.8867 31.9785 25.3811 36.4728 30.9061 36.4728C36.4311 36.4728 40.9997 31.9785 40.9997 26.4535C40.9997 20.9285 36.4312 16.4341 30.9062 16.4341Z" fill="#6A70CB"/>
<path d="M34.3043 23.3043V22H27V23.3043H29.3241C30.1887 23.3043 30.9185 23.8509 31.1934 24.6087H27V25.913H31.1934C31.057 26.2934 30.8042 26.623 30.4695 26.8565C30.1348 27.0901 29.7347 27.2162 29.3241 27.2174H27V28.7917L30.7093 32.4348H32.5872L28.603 28.5217H29.3241C30.0891 28.5208 30.8303 28.2607 31.4227 27.7855C32.0152 27.3103 32.4227 26.649 32.5765 25.913H34.3043V24.6087H32.5765C32.4747 24.134 32.265 23.6881 31.963 23.3043H34.3043Z" fill="white"/>
<path d="M4.11328 27.5667C3.49793 27.5667 3 28.0646 3 28.6799V39.8868C3 40.5022 3.49793 41.0001 4.11328 41.0001H7.45305V27.5667H4.11328Z" fill="#6A70CB"/>
<path d="M29.4035 9.94869L21.6106 3.26908C21.1952 2.91031 20.5777 2.91031 20.1624 3.26908L12.3696 9.94869C12.0152 10.2509 11.888 10.7423 12.0499 11.1794C12.2108 11.6165 12.6272 11.9067 13.0937 11.9067H16.4334C16.4334 21.5313 16.4334 31.3749 16.4334 41.0001C19.3014 41.0001 21.2841 41.0001 24.2263 41.0001C24.8417 41.0001 25.3396 40.5022 25.3396 39.8868V37.3475C21.3806 35.3162 18.66 31.2008 18.66 26.4535C18.66 21.7062 21.3807 17.5907 25.3396 15.5594V11.9068H28.6794C29.1458 11.9068 29.5622 11.6165 29.7231 11.1795C29.8851 10.7423 29.7579 10.2509 29.4035 9.94869Z" fill="#6A70CB"/>
<path d="M10.8672 18.6606C10.2518 18.6606 9.75391 19.1586 9.75391 19.7739V27.5668V41.0001C11.38 41.0001 12.6281 41.0001 14.207 41.0001V18.6606H10.8672Z" fill="#6A70CB"/>
</svg>
