<svg width="44" height="44" viewBox="0 0 44 44" fill="none" xmlns="http://www.w3.org/2000/svg">
<path d="M17.6 29.3333V33.7333C17.5994 33.9277 17.522 34.1139 17.3846 34.2513C17.2472 34.3887 17.061 34.4661 16.8667 34.4667H12.4667C12.2723 34.4661 12.0861 34.3887 11.9487 34.2513C11.8113 34.1139 11.7339 33.9277 11.7333 33.7333V29.3333C11.7339 29.139 11.8113 28.9528 11.9487 28.8154C12.0861 28.678 12.2723 28.6006 12.4667 28.6H16.8667C17.061 28.6006 17.2472 28.678 17.3846 28.8154C17.522 28.9528 17.5994 29.139 17.6 29.3333ZM44 32.2667C44.0009 34.7751 43.1975 37.2178 41.7079 39.2361C40.2183 41.2544 38.1208 42.7419 35.7235 43.4803C33.3261 44.2187 30.7552 44.1691 28.3882 43.3387C26.0211 42.5083 23.9826 40.9409 22.572 38.8667H3.66667C2.69431 38.8663 1.76189 38.4799 1.07433 37.7923C0.386771 37.1048 0.000349858 36.1724 0 35.2V7.33333C0.000349858 6.36098 0.386771 5.42855 1.07433 4.74099C1.76189 4.05344 2.69431 3.66702 3.66667 3.66667H5.86667V2.2C5.86667 1.61652 6.09845 1.05695 6.51103 0.644365C6.92361 0.231785 7.48319 0 8.06667 0C8.65014 0 9.20972 0.231785 9.6223 0.644365C10.0349 1.05695 10.2667 1.61652 10.2667 2.2V3.66667H16.1333V2.2C16.1333 1.61652 16.3651 1.05695 16.7777 0.644365C17.1903 0.231785 17.7499 0 18.3333 0C18.9168 0 19.4764 0.231785 19.889 0.644365C20.3015 1.05695 20.5333 1.61652 20.5333 2.2V3.66667H26.4V2.2C26.4 1.61652 26.6318 1.05695 27.0444 0.644365C27.4569 0.231785 28.0165 0 28.6 0C29.1835 0 29.7431 0.231785 30.1556 0.644365C30.5682 1.05695 30.8 1.61652 30.8 2.2V3.66667H33C33.9724 3.66702 34.9048 4.05344 35.5923 4.74099C36.2799 5.42855 36.6663 6.36098 36.6667 7.33333V21.3987C38.8314 22.2753 40.6854 23.7777 41.9917 25.7136C43.2981 27.6496 43.9973 29.9312 44 32.2667ZM27.8667 5.86667C27.8667 6.06116 27.9439 6.24769 28.0815 6.38521C28.219 6.52274 28.4055 6.6 28.6 6.6C28.7945 6.6 28.981 6.52274 29.1185 6.38521C29.2561 6.24769 29.3333 6.06116 29.3333 5.86667V2.2C29.3333 2.00551 29.2561 1.81898 29.1185 1.68146C28.981 1.54393 28.7945 1.46667 28.6 1.46667C28.4055 1.46667 28.219 1.54393 28.0815 1.68146C27.9439 1.81898 27.8667 2.00551 27.8667 2.2V5.86667ZM17.6 5.86667C17.6 6.06116 17.6773 6.24769 17.8148 6.38521C17.9523 6.52274 18.1388 6.6 18.3333 6.6C18.5278 6.6 18.7144 6.52274 18.8519 6.38521C18.9894 6.24769 19.0667 6.06116 19.0667 5.86667V2.2C19.0667 2.00551 18.9894 1.81898 18.8519 1.68146C18.7144 1.54393 18.5278 1.46667 18.3333 1.46667C18.1388 1.46667 17.9523 1.54393 17.8148 1.68146C17.6773 1.81898 17.6 2.00551 17.6 2.2V5.86667ZM7.33333 5.86667C7.33333 6.06116 7.4106 6.24769 7.54812 6.38521C7.68565 6.52274 7.87217 6.6 8.06667 6.6C8.26116 6.6 8.44769 6.52274 8.58521 6.38521C8.72274 6.24769 8.8 6.06116 8.8 5.86667V2.2C8.8 2.00551 8.72274 1.81898 8.58521 1.68146C8.44769 1.54393 8.26116 1.46667 8.06667 1.46667C7.87217 1.46667 7.68565 1.54393 7.54812 1.68146C7.4106 1.81898 7.33333 2.00551 7.33333 2.2V5.86667ZM20.5333 32.2667C20.5367 30.487 20.9455 28.7314 21.7287 27.1333H19.8C19.6057 27.1328 19.4195 27.0553 19.2821 26.9179C19.1447 26.7805 19.0672 26.5943 19.0667 26.4V22C19.0672 21.8057 19.1447 21.6195 19.2821 21.4821C19.4195 21.3447 19.6057 21.2672 19.8 21.2667H24.2C24.3943 21.2672 24.5805 21.3447 24.7179 21.4821C24.8553 21.6195 24.9328 21.8057 24.9333 22V23.122C27.0105 21.4472 29.5984 20.5337 32.2667 20.5333C33.2572 20.535 34.2432 20.6657 35.2 20.922V11H1.46667V35.2C1.46837 35.783 1.7007 36.3415 2.11291 36.7538C2.52512 37.166 3.08371 37.3983 3.66667 37.4H21.7287C20.9455 35.8019 20.5367 34.0464 20.5333 32.2667ZM42.5333 32.2667C42.5333 30.2361 41.9312 28.2512 40.8031 26.5628C39.675 24.8745 38.0715 23.5586 36.1955 22.7815C34.3196 22.0044 32.2553 21.8011 30.2637 22.1973C28.2722 22.5934 26.4429 23.5712 25.007 25.007C23.5712 26.4429 22.5934 28.2722 22.1973 30.2637C21.8011 32.2553 22.0044 34.3196 22.7815 36.1956C23.5586 38.0715 24.8745 39.675 26.5628 40.8031C28.2512 41.9312 30.2361 42.5333 32.2667 42.5333C34.9886 42.5303 37.5983 41.4477 39.523 39.523C41.4477 37.5983 42.5303 34.9886 42.5333 32.2667ZM27.1333 19.8H31.5333C31.7277 19.7994 31.9139 19.722 32.0513 19.5846C32.1887 19.4472 32.2661 19.261 32.2667 19.0667V14.6667C32.2661 14.4723 32.1887 14.2861 32.0513 14.1487C31.9139 14.0113 31.7277 13.9339 31.5333 13.9333H27.1333C26.939 13.9339 26.7528 14.0113 26.6154 14.1487C26.478 14.2861 26.4006 14.4723 26.4 14.6667V19.0667C26.4006 19.261 26.478 19.4472 26.6154 19.5846C26.7528 19.722 26.939 19.7994 27.1333 19.8ZM19.8 19.8H24.2C24.3943 19.7994 24.5805 19.722 24.7179 19.5846C24.8553 19.4472 24.9328 19.261 24.9333 19.0667V14.6667C24.9328 14.4723 24.8553 14.2861 24.7179 14.1487C24.5805 14.0113 24.3943 13.9339 24.2 13.9333H19.8C19.6057 13.9339 19.4195 14.0113 19.2821 14.1487C19.1447 14.2861 19.0672 14.4723 19.0667 14.6667V19.0667C19.0672 19.261 19.1447 19.4472 19.2821 19.5846C19.4195 19.722 19.6057 19.7994 19.8 19.8ZM16.8667 21.2667H12.4667C12.2723 21.2672 12.0861 21.3447 11.9487 21.4821C11.8113 21.6195 11.7339 21.8057 11.7333 22V26.4C11.7339 26.5943 11.8113 26.7805 11.9487 26.9179C12.0861 27.0553 12.2723 27.1328 12.4667 27.1333H16.8667C17.061 27.1328 17.2472 27.0553 17.3846 26.9179C17.522 26.7805 17.5994 26.5943 17.6 26.4V22C17.5994 21.8057 17.522 21.6195 17.3846 21.4821C17.2472 21.3447 17.061 21.2672 16.8667 21.2667ZM16.8667 13.9333H12.4667C12.2723 13.9339 12.0861 14.0113 11.9487 14.1487C11.8113 14.2861 11.7339 14.4723 11.7333 14.6667V19.0667C11.7339 19.261 11.8113 19.4472 11.9487 19.5846C12.0861 19.722 12.2723 19.7994 12.4667 19.8H16.8667C17.061 19.7994 17.2472 19.722 17.3846 19.5846C17.522 19.4472 17.5994 19.261 17.6 19.0667V14.6667C17.5994 14.4723 17.522 14.2861 17.3846 14.1487C17.2472 14.0113 17.061 13.9339 16.8667 13.9333ZM9.53333 28.6H5.13333C4.93901 28.6006 4.75281 28.678 4.61541 28.8154C4.478 28.9528 4.40056 29.139 4.4 29.3333V33.7333C4.40056 33.9277 4.478 34.1139 4.61541 34.2513C4.75281 34.3887 4.93901 34.4661 5.13333 34.4667H9.53333C9.72765 34.4661 9.91385 34.3887 10.0513 34.2513C10.1887 34.1139 10.2661 33.9277 10.2667 33.7333V29.3333C10.2661 29.139 10.1887 28.9528 10.0513 28.8154C9.91385 28.678 9.72765 28.6006 9.53333 28.6ZM9.53333 21.2667H5.13333C4.93901 21.2672 4.75281 21.3447 4.61541 21.4821C4.478 21.6195 4.40056 21.8057 4.4 22V26.4C4.40056 26.5943 4.478 26.7805 4.61541 26.9179C4.75281 27.0553 4.93901 27.1328 5.13333 27.1333H9.53333C9.72765 27.1328 9.91385 27.0553 10.0513 26.9179C10.1887 26.7805 10.2661 26.5943 10.2667 26.4V22C10.2661 21.8057 10.1887 21.6195 10.0513 21.4821C9.91385 21.3447 9.72765 21.2672 9.53333 21.2667ZM41.0667 32.2667C41.0667 34.0071 40.5506 35.7085 39.5836 37.1557C38.6166 38.6028 37.2423 39.7308 35.6343 40.3968C34.0263 41.0629 32.2569 41.2371 30.5499 40.8976C28.8428 40.558 27.2748 39.7199 26.0441 38.4892C24.8134 37.2585 23.9753 35.6905 23.6358 33.9835C23.2962 32.2764 23.4705 30.507 24.1365 28.8991C24.8026 27.2911 25.9305 25.9167 27.3776 24.9497C28.8248 23.9828 30.5262 23.4667 32.2667 23.4667C34.6 23.4686 36.8372 24.3964 38.4871 26.0463C40.137 27.6962 41.0647 29.9334 41.0667 32.2667Z" fill="#ED7477"/>
<path d="M36.3043 29.3043V28H29V29.3043H31.3241C32.1887 29.3043 32.9185 29.8509 33.1934 30.6087H29V31.913H33.1934C33.057 32.2934 32.8042 32.623 32.4695 32.8565C32.1348 33.0901 31.7347 33.2162 31.3241 33.2174H29V34.7917L32.7093 38.4348H34.5872L30.603 34.5217H31.3241C32.0891 34.5208 32.8303 34.2607 33.4227 33.7855C34.0152 33.3103 34.4227 32.649 34.5765 31.913H36.3043V30.6087H34.5765C34.4747 30.134 34.265 29.6881 33.963 29.3043H36.3043Z" fill="white"/>
</svg>
