<svg width="52" height="52" viewBox="0 0 52 52" fill="none" xmlns="http://www.w3.org/2000/svg">
<path d="M15.167 23.337C15.167 29.4864 20.1521 34.4715 26.3016 34.4715C32.451 34.4715 37.4361 29.4864 37.4361 23.337C37.4361 17.1875 32.451 12.2024 26.3016 12.2024C20.1551 12.2093 15.1739 17.1905 15.167 23.337Z" fill="#5AC1DE"/>
<path d="M30.663 19.5505V18.1375H22.75V19.5505H25.2678C26.2044 19.5505 26.995 20.1426 27.2928 20.9635H22.75V22.3766H27.2928C27.1451 22.7886 26.8712 23.1457 26.5086 23.3987C26.146 23.6517 25.7126 23.7883 25.2678 23.7896H22.75V25.4952L26.7684 29.4418H28.8028L24.4866 25.2027H25.2678C26.0965 25.2016 26.8995 24.9199 27.5413 24.4051C28.1831 23.8902 28.6246 23.1738 28.7912 22.3766H30.663V20.9635H28.7912C28.681 20.4493 28.4537 19.9663 28.1266 19.5505H30.663Z" fill="white"/>
<path d="M44.5881 37.7004C44.5825 37.7034 44.5764 37.7065 44.57 37.7095L37.4069 41.0936C37.484 41.4902 37.5175 41.8937 37.5068 42.2976C37.4956 42.7153 37.1537 43.0481 36.736 43.0481C36.7287 43.0481 36.7214 43.0481 36.714 43.0481L26.2305 42.7596C25.8043 42.748 25.4684 42.3932 25.48 41.9669C25.4916 41.5406 25.8469 41.2047 26.2727 41.2163L35.9092 41.4816C35.5897 39.614 33.9974 38.2309 32.1036 38.1758L25.7263 38.0006C24.4668 37.9644 23.2318 37.6453 22.1127 37.067L21.4638 36.7311C18.2769 35.0707 14.4367 35.2869 11.4565 37.2948L11.2012 46.5722L12.2971 45.9853C13.3861 45.3996 14.6602 45.2601 15.8504 45.5964L26.6732 48.6343C28.7591 49.0615 30.9267 48.8195 32.867 47.9419L47.8611 38.243C47.0055 37.3671 45.6805 37.1471 44.5881 37.7004Z" fill="#5AC1DE"/>
<path d="M4.1582 48.1836L4.53843 34.3806L9.98902 34.5309L9.60879 48.3339L4.1582 48.1836Z" fill="#5AC1DE"/>
<path d="M27.0072 9.10952V2.81168C27.0072 2.38538 26.6618 2.04004 26.2355 2.04004C25.8092 2.04004 25.4639 2.38538 25.4639 2.81168V9.10952C25.4639 9.53581 25.8092 9.88116 26.2355 9.88116C26.6618 9.88116 27.0072 9.53581 27.0072 9.10952Z" fill="#5AC1DE"/>
<path d="M32.7113 10.1493V7.22086C32.7113 6.79456 32.3659 6.44922 31.9396 6.44922C31.5133 6.44922 31.168 6.79456 31.168 7.22086V10.1493C31.168 10.5756 31.5133 10.921 31.9396 10.921C32.3659 10.921 32.7113 10.5756 32.7113 10.1493Z" fill="#5AC1DE"/>
<path d="M21.3031 10.1493V7.22086C21.3031 6.79456 20.9577 6.44922 20.5314 6.44922C20.1051 6.44922 19.7598 6.79456 19.7598 7.22086V10.1493C19.7598 10.5756 20.1051 10.921 20.5314 10.921C20.9577 10.921 21.3031 10.5756 21.3031 10.1493Z" fill="#5AC1DE"/>
</svg>
