<svg width="54" height="54" viewBox="0 0 54 54" fill="none" xmlns="http://www.w3.org/2000/svg">
<path fill-rule="evenodd" clip-rule="evenodd" d="M13.3009 20.2382C12.4622 20.1386 11.8125 19.4265 11.8125 18.5625C11.8125 17.631 12.5685 16.875 13.5 16.875H40.5C41.4315 16.875 42.1875 17.631 42.1875 18.5625C42.1875 19.4265 41.5378 20.1386 40.6991 20.2382C40.8611 20.4323 41.0197 20.6348 41.1767 20.8507C42.6245 22.842 43.875 25.8474 43.875 30.375C43.875 34.5431 44.2665 38.7703 43.5999 42.1116C43.07 44.7626 41.9107 46.9074 39.7069 48.2844C37.2836 49.7981 32.1502 50.6503 27 50.6503C21.8497 50.6503 16.7164 49.7981 14.2931 48.2844C12.0892 46.9074 10.9299 44.7626 10.4 42.1116C9.73347 38.7703 10.125 34.5431 10.125 30.375C10.125 25.8474 11.3754 22.842 12.8233 20.8507C12.9802 20.6348 13.1389 20.4323 13.3009 20.2382ZM14.2054 13.5C13.0984 11.2371 11.9829 8.95556 11.5087 7.98019C11.0177 6.9795 11.313 5.77125 12.209 5.10806C12.263 5.06756 12.3204 5.03044 12.3778 4.99837C13.3262 4.45837 15.7207 3.375 20.25 3.375C22.2227 3.375 23.8714 4.04831 25.4947 4.9005C27.3476 5.8725 29.1516 7.15838 31.7841 7.15838C34.452 7.15838 37.5131 6.25725 39.2259 5.67675C40.1102 5.37469 41.0906 5.63456 41.7099 6.33487C42.3292 7.03687 42.4676 8.04094 42.0575 8.88131L39.7963 13.5H14.2054Z" fill="#40C175"/>
<path d="M31 29.75V28H22V29.75H24.8636C25.9289 29.75 26.8281 30.4833 27.1668 31.5H22V33.25H27.1668C26.9988 33.7603 26.6873 34.2025 26.2749 34.5159C25.8625 34.8292 25.3695 34.9983 24.8636 35H22V37.1122L26.5704 42H28.8842L23.9751 36.75H24.8636C25.8062 36.7487 26.7194 36.3998 27.4494 35.7622C28.1794 35.1246 28.6815 34.2373 28.8711 33.25H31V31.5H28.8711C28.7457 30.8632 28.4872 30.2649 28.1151 29.75H31Z" fill="white"/>
</svg>
