<svg width="52" height="52" viewBox="0 0 52 52" fill="none" xmlns="http://www.w3.org/2000/svg">
<path d="M12.9997 6.5H38.9997C43.7663 6.5 47.6663 10.4 47.6663 15.1667C47.6663 18.85 45.4997 21.8833 42.2497 23.1833V15.1667C42.2497 14.3 41.8163 13.4333 41.383 12.7833C40.9497 12.1333 39.8663 11.9167 38.9997 11.9167H12.9997C12.133 11.9167 11.2663 12.35 10.6163 12.7833C9.96634 13.2167 9.74967 14.3 9.74967 15.1667V23.1833C6.49967 21.8833 4.33301 18.85 4.33301 15.1667C4.33301 10.4 8.23301 6.5 12.9997 6.5Z" fill="#67CEEE"/>
<path fill-rule="evenodd" clip-rule="evenodd" d="M39 15V41C39 43.3833 37.05 45.3333 34.6667 45.3333H17.3333C14.95 45.3333 13 43.3833 13 41V28V15H39Z" fill="#67CEEE"/>
<path d="M31 24.75V23H22V24.75H24.8636C25.9289 24.75 26.8281 25.4833 27.1668 26.5H22V28.25H27.1668C26.9988 28.7603 26.6873 29.2025 26.2749 29.5159C25.8625 29.8292 25.3695 29.9983 24.8636 30H22V32.1122L26.5704 37H28.8842L23.9751 31.75H24.8636C25.8062 31.7487 26.7194 31.3998 27.4494 30.7622C28.1794 30.1246 28.6815 29.2373 28.8711 28.25H31V26.5H28.8711C28.7457 25.8632 28.4872 25.2649 28.1151 24.75H31Z" fill="white"/>
</svg>
