<svg width="39" height="40" viewBox="0 0 39 40" fill="none" xmlns="http://www.w3.org/2000/svg">
<g clip-path="url(#clip0_651_11632)">
<path d="M9.11382 8.1104L24.6613 3.75779L23.8379 2.05089C23.2992 0.941397 21.9854 0.483227 20.9036 1.03573L6.98535 8.1104H9.11382Z" fill="#FFBA00"/>
<path d="M29.4879 3.88354C29.2953 3.88354 29.1025 3.9105 28.9098 3.9644L25.2573 4.98854L14.1025 8.11038H26.7639H32.2821L31.5989 5.54104C31.3361 4.53936 30.4514 3.88354 29.4879 3.88354Z" fill="#FFBA00"/>
<path d="M34.5635 9.68262H34.0642H33.3854H32.7066H27.5255H8.48759H5.99124H3.88905H3.49927H2.19416C1.50219 9.68262 0.884672 10.0105 0.481752 10.5271C0.29781 10.7652 0.157664 11.0392 0.0788321 11.3401C0.0306569 11.5288 0 11.7264 0 11.9285V12.1981V14.7584V36.9527C0 38.1925 0.981022 39.1986 2.18978 39.1986H34.5591C35.7679 39.1986 36.7489 38.1925 36.7489 36.9527V30.6865H23.7547C21.7007 30.6865 20.0321 28.9751 20.0321 26.8685V24.8112V24.115V23.4187V21.8735C20.0321 20.8404 20.435 19.9016 21.0876 19.2144C21.6657 18.6034 22.4409 18.1902 23.308 18.0869C23.4526 18.069 23.6015 18.0599 23.7504 18.0599H34.927H35.6058H36.2847H36.7489V11.9285C36.7533 10.6888 35.7723 9.68262 34.5635 9.68262Z" fill="#FFBA00"/>
<path d="M38.2866 20.207C38.0676 20.0004 37.8092 19.8432 37.5202 19.7399C37.2968 19.6636 37.0603 19.6187 36.8107 19.6187H36.7538H36.71H36.0311H33.5829H23.7552C22.5464 19.6187 21.5654 20.6248 21.5654 21.8646V22.983V23.6792V24.3755V26.864C21.5654 28.1037 22.5464 29.1099 23.7552 29.1099H36.7538H36.8107C37.0603 29.1099 37.2968 29.065 37.5202 28.9886C37.8092 28.8898 38.0676 28.7281 38.2866 28.5215C38.7246 28.1127 39.0005 27.5198 39.0005 26.864V21.8646C39.0005 21.2087 38.7246 20.6158 38.2866 20.207ZM28.3275 24.8112C28.3275 25.4311 27.837 25.9342 27.2326 25.9342H26.5056C25.9012 25.9342 25.4107 25.4311 25.4107 24.8112V24.0655C25.4107 23.7062 25.5727 23.3872 25.8311 23.1851C26.0194 23.0369 26.2516 22.9426 26.5056 22.9426H26.6895H27.2326C27.837 22.9426 28.3275 23.4456 28.3275 24.0655V24.8112Z" fill="#FFBA00"/>
</g>
<defs>
<clipPath id="clip0_651_11632">
<rect width="39" height="40" fill="white"/>
</clipPath>
</defs>
</svg>
