<svg width="52" height="52" viewBox="0 0 52 52" fill="none" xmlns="http://www.w3.org/2000/svg">
<path d="M18.4922 13.0001H33.5072L37.196 5.60636C37.3664 5.26449 37.411 4.87349 37.3218 4.50202C37.2327 4.13056 37.0155 3.80238 36.7085 3.57511C36.4002 3.34523 36.0204 3.23214 35.6365 3.25594C35.2527 3.27975 34.8897 3.4389 34.6122 3.70511C33.5489 4.53437 32.2211 4.95005 30.8747 4.87511C29.5361 4.94922 28.2154 4.53975 27.1535 3.72136C26.849 3.4187 26.4371 3.24882 26.0078 3.24882C25.5785 3.24882 25.1667 3.4187 24.8622 3.72136C23.7967 4.54482 22.469 4.95466 21.1247 4.87511C19.7861 4.94922 18.4654 4.53975 17.4035 3.72136C17.1304 3.44615 16.7679 3.27765 16.3814 3.24629C15.995 3.21493 15.6101 3.32278 15.2962 3.55035C14.9823 3.77793 14.7601 4.11023 14.6697 4.48727C14.5794 4.86431 14.6268 5.26123 14.8035 5.60636L18.4922 13.0001Z" fill="#F24F00"/>
<path d="M34.39 16H17.36C13.8825 20.2087 8 28.5612 8 37.125C8 44.5513 13.655 48.5 17.75 48.5H34C38.095 48.5 43.75 44.5513 43.75 37.125C43.75 28.5612 37.8675 20.2087 34.39 16Z" fill="#F24F00"/>
<path d="M31 26.75V25H22V26.75H24.8636C25.9289 26.75 26.8281 27.4833 27.1668 28.5H22V30.25H27.1668C26.9988 30.7603 26.6873 31.2025 26.2749 31.5159C25.8625 31.8292 25.3695 31.9983 24.8636 32H22V34.1122L26.5704 39H28.8842L23.9751 33.75H24.8636C25.8062 33.7487 26.7194 33.3998 27.4494 32.7622C28.1794 32.1246 28.6815 31.2373 28.8711 30.25H31V28.5H28.8711C28.7457 27.8632 28.4872 27.2649 28.1151 26.75H31Z" fill="white"/>
</svg>
