<svg width="71" height="71" viewBox="0 0 71 71" fill="none" xmlns="http://www.w3.org/2000/svg">
<path d="M35.25 70.5C54.718 70.5 70.5 54.718 70.5 35.25C70.5 15.782 54.718 0 35.25 0C15.782 0 0 15.782 0 35.25C0 54.718 15.782 70.5 35.25 70.5Z" fill="url(#paint0_linear_303_198)"/>
<path d="M57.2284 36.7188C57.432 36.7202 57.6331 36.7635 57.8192 36.846C58.0054 36.9285 58.1725 37.0484 58.3103 37.1983C58.4481 37.3482 58.5535 37.5249 58.6201 37.7173C58.6866 37.9097 58.7129 38.1138 58.6971 38.3168C58.2976 44.2632 55.6535 49.8357 51.3003 53.9062C46.9471 57.9767 41.2099 60.2412 35.25 60.2412C29.2901 60.2412 23.5529 57.9767 19.1997 53.9062C14.8465 49.8357 12.2024 44.2632 11.8029 38.3168C11.7871 38.1138 11.8134 37.9097 11.8799 37.7173C11.9465 37.5249 12.0519 37.3482 12.1897 37.1983C12.3275 37.0484 12.4946 36.9285 12.6808 36.846C12.8669 36.7635 13.068 36.7202 13.2716 36.7188H57.2284Z" fill="url(#paint1_linear_303_198)"/>
<path d="M49.9375 36.7188C49.9375 40.774 43.3619 44.0625 35.25 44.0625C27.1381 44.0625 20.5625 40.774 20.5625 36.7188H49.9375Z" fill="#F8FAFB"/>
<path d="M14.6273 1.645L19.6298 7.81375C19.7646 7.97997 19.9341 8.11472 20.1264 8.20859C20.3187 8.30246 20.5292 8.35318 20.7432 8.35719L28.6744 8.50406C28.9364 8.50877 29.1924 8.58349 29.4157 8.72046C29.6391 8.85742 29.8218 9.05166 29.9448 9.28301C30.0678 9.51437 30.1267 9.77442 30.1154 10.0362C30.104 10.298 30.0228 10.552 29.8802 10.7718L25.5621 17.4355C25.4457 17.615 25.3698 17.8177 25.3399 18.0296C25.3099 18.2414 25.3266 18.4572 25.3888 18.6619L27.7036 26.2568C27.78 26.5074 27.788 26.7738 27.7268 27.0284C27.6656 27.2831 27.5375 27.5168 27.3556 27.7052C27.1737 27.8937 26.9447 28.0301 26.6924 28.1003C26.4401 28.1705 26.1736 28.172 25.9205 28.1045L18.2566 26.0527C18.0498 25.9973 17.8334 25.9878 17.6226 26.0249C17.4117 26.0619 17.2116 26.1446 17.036 26.2671L10.528 30.8202C10.3132 30.9706 10.0621 31.0606 9.80081 31.0812C9.53947 31.1017 9.27741 31.0519 9.04181 30.9369C8.80622 30.822 8.60568 30.6461 8.46102 30.4275C8.31635 30.2088 8.23283 29.9555 8.21912 29.6937L7.79612 21.7625C7.78407 21.5482 7.72522 21.3393 7.62372 21.1502C7.52222 20.9612 7.38053 20.7967 7.20862 20.6683L0.88125 15.8831C0.671938 15.7253 0.50865 15.5144 0.408327 15.2723C0.308005 15.0302 0.274302 14.7656 0.310717 14.506C0.347133 14.2465 0.452339 14.0014 0.615421 13.7962C0.778502 13.591 0.993517 13.4332 1.23816 13.3392L8.648 10.4883C8.84776 10.4114 9.0283 10.2918 9.17697 10.1378C9.32564 9.98379 9.43886 9.79916 9.50869 9.59681L12.101 2.0915C12.1867 1.84443 12.3368 1.62473 12.5358 1.45508C12.7348 1.28543 12.9755 1.17198 13.2331 1.12647C13.4906 1.08096 13.7556 1.10502 14.0007 1.19618C14.2458 1.28733 14.4621 1.44228 14.6273 1.645Z" fill="#FA9200"/>
<path d="M55.6098 1.645L50.6073 7.81375C50.4725 7.97997 50.303 8.11472 50.1107 8.20859C49.9184 8.30246 49.7079 8.35318 49.4939 8.35719L41.5539 8.50406C41.292 8.50903 41.0362 8.58393 40.8131 8.721C40.5899 8.85807 40.4074 9.05233 40.2846 9.28364C40.1617 9.51495 40.103 9.77491 40.1144 10.0366C40.1258 10.2982 40.207 10.5521 40.3495 10.7718L44.6676 17.4355C44.7838 17.6151 44.8594 17.8179 44.8891 18.0297C44.9188 18.2416 44.9019 18.4573 44.8395 18.6619L42.5247 26.2568C42.4482 26.5075 42.4401 26.7741 42.5014 27.0289C42.5626 27.2838 42.6909 27.5176 42.873 27.7061C43.0551 27.8946 43.2843 28.031 43.5368 28.101C43.7894 28.1711 44.0561 28.1723 44.3092 28.1045L51.9805 26.0571C52.1873 26.0017 52.4037 25.9922 52.6145 26.0293C52.8254 26.0663 53.0255 26.149 53.2011 26.2715L59.7091 30.8247C59.9239 30.9746 60.1748 31.0643 60.4359 31.0847C60.697 31.105 60.9588 31.0551 61.1942 30.9402C61.4296 30.8253 61.6299 30.6495 61.7745 30.4311C61.9191 30.2127 62.0026 29.9597 62.0165 29.6981L62.4395 21.7669C62.4516 21.5526 62.5104 21.3437 62.6119 21.1546C62.7134 20.9656 62.8551 20.8011 63.027 20.6727L69.3647 15.8889C69.5739 15.7311 69.7371 15.5201 69.8374 15.2779C69.9376 15.0357 69.9711 14.771 69.9346 14.5115C69.898 14.2519 69.7926 14.0068 69.6294 13.8017C69.4662 13.5966 69.251 13.439 69.0063 13.3451L61.5964 10.4942C61.3967 10.4173 61.2161 10.2977 61.0675 10.1437C60.9188 9.98967 60.8056 9.80503 60.7358 9.60269L58.1449 2.09738C58.0607 1.84798 57.9111 1.62578 57.7117 1.45401C57.5123 1.28225 57.2703 1.16723 57.0112 1.12099C56.7521 1.07475 56.4853 1.09899 56.2388 1.19118C55.9923 1.28336 55.775 1.4401 55.6098 1.645Z" fill="#FA9200"/>
<defs>
<linearGradient id="paint0_linear_303_198" x1="-0.797532" y1="7.76528" x2="62.5335" y2="56.0534" gradientUnits="userSpaceOnUse">
<stop stop-color="#FFD764"/>
<stop offset="0.336" stop-color="#FFD261"/>
<stop offset="0.717" stop-color="#FFC559"/>
<stop offset="0.976" stop-color="#FFB751"/>
</linearGradient>
<linearGradient id="paint1_linear_303_198" x1="35.25" y1="0" x2="35.25" y2="70.4327" gradientUnits="userSpaceOnUse">
<stop stop-color="#891B3B"/>
<stop offset="1" stop-color="#BC355B"/>
</linearGradient>
</defs>
</svg>
