<svg width="21" height="19" viewBox="0 0 21 19" fill="none" xmlns="http://www.w3.org/2000/svg">
<path d="M20.0608 2.39656V14.2866C20.0608 15.2566 19.2708 16.1466 18.3008 16.2666L17.9908 16.3066C16.3508 16.5266 14.0408 17.2066 12.1808 17.9866C11.5308 18.2566 10.8108 17.7666 10.8108 17.0566V3.14656C10.8108 2.77656 11.0208 2.43656 11.3508 2.25656C13.1808 1.26656 15.9508 0.386562 17.8308 0.226562H17.8908C19.0908 0.226562 20.0608 1.19656 20.0608 2.39656ZM8.76883 2.25656C6.93883 1.26656 4.16883 0.386562 2.28883 0.226562H2.21883C1.01883 0.226562 0.0488281 1.19656 0.0488281 2.39656V14.2866C0.0488281 15.2566 0.838828 16.1466 1.80883 16.2666L2.11883 16.3066C3.75883 16.5266 6.06883 17.2066 7.92883 17.9866C8.57883 18.2566 9.29883 17.7666 9.29883 17.0566V3.14656C9.30016 2.96396 9.25148 2.78448 9.15805 2.62759C9.06462 2.4707 8.93001 2.34238 8.76883 2.25656ZM3.05883 5.28656H5.30883C5.50774 5.28656 5.69851 5.36558 5.83916 5.50623C5.97981 5.64688 6.05883 5.83765 6.05883 6.03656C6.05883 6.23547 5.97981 6.42624 5.83916 6.56689C5.69851 6.70754 5.50774 6.78656 5.30883 6.78656H3.05883C2.85992 6.78656 2.66915 6.70754 2.5285 6.56689C2.38785 6.42624 2.30883 6.23547 2.30883 6.03656C2.30883 5.83765 2.38785 5.64688 2.5285 5.50623C2.66915 5.36558 2.85992 5.28656 3.05883 5.28656ZM6.05883 9.78656H3.05883C2.85992 9.78656 2.66915 9.70755 2.5285 9.56689C2.38785 9.42624 2.30883 9.23547 2.30883 9.03656C2.30883 8.83765 2.38785 8.64688 2.5285 8.50623C2.66915 8.36558 2.85992 8.28656 3.05883 8.28656H6.05883C6.25774 8.28656 6.44851 8.36558 6.58916 8.50623C6.72981 8.64688 6.80883 8.83765 6.80883 9.03656C6.80883 9.23547 6.72981 9.42624 6.58916 9.56689C6.44851 9.70755 6.25774 9.78656 6.05883 9.78656Z" fill="white"/>
</svg>
