<svg width="21" height="22" viewBox="0 0 21 22" fill="none" xmlns="http://www.w3.org/2000/svg">
<path d="M11.791 11.2138C11.3743 11.2138 10.9993 10.9847 10.8223 10.6097L9.31185 7.59924L8.87435 8.41174C8.63477 8.85966 8.1556 9.14091 7.64518 9.14091H6.88477C6.45768 9.14091 6.10352 8.78674 6.10352 8.35966C6.10352 7.93257 6.45768 7.57841 6.88477 7.57841H7.55143L8.37435 6.05757C8.57227 5.70341 8.9681 5.46382 9.3431 5.48466C9.74935 5.48466 10.1139 5.72424 10.3014 6.07841L11.791 9.05757L12.1452 8.33882C12.3848 7.85966 12.8535 7.56799 13.3952 7.56799H14.2389C14.666 7.56799 15.0202 7.92216 15.0202 8.34924C15.0202 8.77632 14.666 9.13049 14.2389 9.13049H13.4993L12.7598 10.5992C12.5723 10.9847 12.2077 11.2138 11.791 11.2138Z" fill="white"/>
<path d="M0.925673 18.2868C0.49859 18.2868 0.144423 17.9326 0.144423 17.5055V11.568C0.09234 8.74512 1.14442 6.07845 3.10276 4.07845C5.06109 2.08887 7.68609 0.995117 10.509 0.995117C16.2798 0.995117 20.9778 5.69303 20.9778 11.4639V17.4014C20.9778 17.8284 20.6236 18.1826 20.1965 18.1826C19.7694 18.1826 19.4153 17.8284 19.4153 17.4014V11.4639C19.4153 6.55762 15.4257 2.55762 10.509 2.55762C8.10276 2.55762 5.87359 3.4847 4.21734 5.1722C2.55067 6.87012 1.66526 9.13053 1.70692 11.5472V17.4951C1.70692 17.9326 1.36317 18.2868 0.925673 18.2868Z" fill="white"/>
<path d="M4.2487 11.8284H4.11328C1.92578 11.8284 0.144531 13.6096 0.144531 15.7971V17.7555C0.144531 19.943 1.92578 21.7242 4.11328 21.7242H4.2487C6.4362 21.7242 8.21745 19.943 8.21745 17.7555V15.7971C8.21745 13.6096 6.4362 11.8284 4.2487 11.8284ZM17.0091 11.8284H16.8737C14.6862 11.8284 12.9049 13.6096 12.9049 15.7971V17.7555C12.9049 19.943 14.6862 21.7242 16.8737 21.7242H17.0091C19.1966 21.7242 20.9779 19.943 20.9779 17.7555V15.7971C20.9779 13.6096 19.1966 11.8284 17.0091 11.8284Z" fill="white"/>
</svg>
