<svg width="23" height="22" viewBox="0 0 23 22" fill="none" xmlns="http://www.w3.org/2000/svg">
<path d="M19.8967 5.91882L13.567 1.68684C11.8417 0.53171 9.19339 0.594717 7.53405 1.82336L2.02856 5.92932C0.929655 6.74841 0.0615234 8.4286 0.0615234 9.75175V16.9976C0.0615234 19.6754 2.33625 21.8596 5.13845 21.8596H16.9846C19.7868 21.8596 22.0615 19.6859 22.0615 17.0081V9.88827C22.0615 8.47061 21.1055 6.72741 19.8967 5.91882ZM11.8857 17.6591C11.8857 18.0897 11.5121 18.4467 11.0615 18.4467C10.611 18.4467 10.2373 18.0897 10.2373 17.6591V14.5088C10.2373 14.0782 10.611 13.7212 11.0615 13.7212C11.5121 13.7212 11.8857 14.0782 11.8857 14.5088V17.6591Z" fill="#FFFEFE"/>
</svg>
