<svg width="19" height="18" viewBox="0 0 19 18" fill="none" xmlns="http://www.w3.org/2000/svg">
<path d="M8.45214 2.68677H2.65603C2.21682 2.68677 1.79561 2.85432 1.48504 3.15257C1.17447 3.45082 1 3.85533 1 4.27712V15.4095C1 15.8313 1.17447 16.2358 1.48504 16.5341C1.79561 16.8323 2.21682 16.9999 2.65603 16.9999H14.2482C14.6874 16.9999 15.1087 16.8323 15.4192 16.5341C15.7298 16.2358 15.9043 15.8313 15.9043 15.4095V9.84333" stroke="#464B70" stroke-width="1.5" stroke-linecap="round" stroke-linejoin="round"/>
<path d="M14.6629 1.49406C14.9923 1.17772 15.4391 1 15.9049 1C16.3708 1 16.8176 1.17772 17.147 1.49406C17.4764 1.8104 17.6614 2.23945 17.6614 2.68682C17.6614 3.13419 17.4764 3.56324 17.147 3.87958L9.28081 11.4337L5.96875 12.2289L6.79677 9.04821L14.6629 1.49406Z" stroke="#464B70" stroke-width="1.5" stroke-linecap="round" stroke-linejoin="round"/>
</svg>
