<svg width="21" height="22" viewBox="0 0 21 22" fill="none" xmlns="http://www.w3.org/2000/svg">
<path d="M14.9258 0.942871H6.19661C2.40495 0.942871 0.144531 3.20329 0.144531 6.99496V15.7137C0.144531 19.5158 2.40495 21.7762 6.19661 21.7762H14.9154C18.707 21.7762 20.9674 19.5158 20.9674 15.7241V6.99496C20.9779 3.20329 18.7174 0.942871 14.9258 0.942871ZM15.6445 10.87C15.6445 11.2762 15.3216 11.5991 14.9154 11.5991C14.5091 11.5991 14.1862 11.2762 14.1862 10.87V10.6825L11.3529 13.5158C11.1966 13.672 10.9883 13.745 10.7695 13.7241C10.6619 13.7154 10.5579 13.6817 10.4656 13.6256C10.3734 13.5695 10.2956 13.4927 10.2383 13.4012L9.17578 11.8179L6.69661 14.297C6.55078 14.4429 6.3737 14.5054 6.1862 14.5054C5.9987 14.5054 5.8112 14.4325 5.67578 14.297C5.54053 14.1595 5.46474 13.9743 5.46474 13.7814C5.46474 13.5885 5.54053 13.4033 5.67578 13.2658L8.77995 10.1616C8.9362 10.0054 9.14453 9.93246 9.36328 9.95329C9.58203 9.97412 9.77995 10.0887 9.89453 10.2762L10.957 11.8595L13.1549 9.66162H12.9674C12.5612 9.66162 12.2383 9.33871 12.2383 8.93246C12.2383 8.52621 12.5612 8.20329 12.9674 8.20329H14.9049C14.9987 8.20329 15.0924 8.22412 15.1862 8.25537C15.3633 8.32829 15.5091 8.47412 15.582 8.6512C15.6237 8.74495 15.6341 8.83871 15.6341 8.93246V10.87H15.6445Z" fill="white"/>
</svg>
