<svg width="19" height="22" viewBox="0 0 19 22" fill="none" xmlns="http://www.w3.org/2000/svg">
<path d="M13.7282 0.942871H5.39486C1.74902 0.942871 0.186523 3.0262 0.186523 6.15121V16.5679C0.186523 19.6929 1.74902 21.7762 5.39486 21.7762H13.7282C17.374 21.7762 18.9365 19.6929 18.9365 16.5679V6.15121C18.9365 3.0262 17.374 0.942871 13.7282 0.942871ZM5.39486 11.62H9.56152C9.98861 11.62 10.3428 11.9741 10.3428 12.4012C10.3428 12.8283 9.98861 13.1825 9.56152 13.1825H5.39486C4.96777 13.1825 4.61361 12.8283 4.61361 12.4012C4.61361 11.9741 4.96777 11.62 5.39486 11.62ZM13.7282 17.3491H5.39486C4.96777 17.3491 4.61361 16.995 4.61361 16.5679C4.61361 16.1408 4.96777 15.7866 5.39486 15.7866H13.7282C14.1553 15.7866 14.5094 16.1408 14.5094 16.5679C14.5094 16.995 14.1553 17.3491 13.7282 17.3491ZM16.3324 8.49496H14.249C12.6657 8.49496 11.3844 7.21371 11.3844 5.63037V3.54704C11.3844 3.11995 11.7386 2.76579 12.1657 2.76579C12.5928 2.76579 12.9469 3.11995 12.9469 3.54704V5.63037C12.9469 6.34912 13.5303 6.93246 14.249 6.93246H16.3324C16.7594 6.93246 17.1136 7.28662 17.1136 7.71371C17.1136 8.14079 16.7594 8.49496 16.3324 8.49496Z" fill="white"/>
</svg>
