<svg width="21" height="22" viewBox="0 0 21 22" fill="none" xmlns="http://www.w3.org/2000/svg">
<path d="M18.3216 6.08887V8.70345C18.3216 9.44303 17.5716 9.9222 16.8737 9.66178C15.9577 9.32943 14.9777 9.21183 14.0091 9.31803C11.5299 9.58887 8.98828 11.9743 8.57162 14.443C8.22787 16.4951 8.88412 18.4118 10.1445 19.7659C10.7174 20.3909 10.332 21.4014 9.48828 21.4951C8.76953 21.5784 8.0612 21.5576 7.66537 21.266L1.9362 16.9847C1.25911 16.4743 0.707031 15.3701 0.707031 14.5159V6.08887C0.707031 4.91178 1.60286 3.62012 2.69661 3.20345L8.42578 1.05762C9.01953 0.838867 9.9987 0.838867 10.5924 1.05762L16.3216 3.20345C17.4258 3.62012 18.3216 4.91178 18.3216 6.08887Z" fill="white"/>
<path d="M19.5195 21.0802C19.5173 21.0775 19.5156 21.0754 19.5144 21.0737L19.4974 21.0397L19.467 21.0007C19.4614 20.9934 19.457 20.9853 19.4542 20.9765L19.442 20.9387L19.424 20.9034C19.4173 20.8904 19.4125 20.8766 19.4096 20.8623L19.4087 20.8563C19.3981 20.782 19.3952 20.7618 19.3952 20.7347C19.3952 20.6751 19.4093 20.605 19.4401 20.5311L19.4402 20.5312L19.4452 20.5183C19.468 20.459 19.4995 20.4083 19.5593 20.3403C19.6841 20.2215 19.872 20.1682 20.0279 20.2023L20.0459 20.2062L20.0641 20.2088C20.0792 20.211 20.0904 20.2142 20.1091 20.2235L20.1409 20.2394L20.1746 20.2507C20.1824 20.2533 20.1891 20.2562 20.1938 20.2587C20.1963 20.26 20.1978 20.2609 20.1983 20.2612L20.2388 20.2936L20.2759 20.3122C20.2776 20.3134 20.2797 20.3151 20.2824 20.3173C20.2903 20.3237 20.2986 20.3307 20.313 20.343L20.3138 20.3437C20.3177 20.347 20.3221 20.3508 20.327 20.3549C20.3787 20.4157 20.4073 20.4633 20.4285 20.5183L20.4283 20.5184L20.4336 20.5311C20.4644 20.605 20.4785 20.6751 20.4785 20.7347C20.4785 20.8604 20.4264 20.9997 20.3333 21.1084C20.2956 21.1382 20.2658 21.1609 20.2324 21.1832L20.2144 21.1952L20.1983 21.2081C20.1978 21.2084 20.1963 21.2093 20.1938 21.2106C20.1891 21.2131 20.1824 21.216 20.1746 21.2186L20.1409 21.2299L20.1091 21.2458C20.0904 21.2551 20.0792 21.2583 20.0641 21.2605L20.064 21.2604L20.0526 21.2623C19.9918 21.2724 19.9544 21.2763 19.9368 21.2763C19.8026 21.2763 19.6704 21.225 19.5607 21.129C19.5551 21.1225 19.5501 21.1165 19.5458 21.1115L19.5452 21.1108C19.5329 21.0964 19.5259 21.0881 19.5195 21.0802ZM10.541 15.5388C10.541 13.2316 12.4213 11.3513 14.7285 11.3513C15.8391 11.3513 16.9042 11.7925 17.6895 12.5778C18.4748 13.3631 18.916 14.4282 18.916 15.5388C18.916 17.846 17.0357 19.7263 14.7285 19.7263C12.4213 19.7263 10.541 17.846 10.541 15.5388Z" fill="white" stroke="white"/>
</svg>
