<svg width="21" height="23" viewBox="0 0 21 23" fill="none" xmlns="http://www.w3.org/2000/svg">
<path d="M4.92611 13.8114H2.14486C0.999023 13.8114 0.0615234 14.7489 0.0615234 15.8948V21.1031C0.0615234 21.676 0.530273 22.1448 1.10319 22.1448H4.92611C5.49902 22.1448 5.96777 21.676 5.96777 21.1031V14.8531C5.96777 14.2802 5.49902 13.8114 4.92611 13.8114ZM11.8636 9.64478H9.08236C7.93652 9.64478 6.99902 10.5823 6.99902 11.7281V21.1031C6.99902 21.676 7.46777 22.1448 8.04069 22.1448H12.9053C13.4782 22.1448 13.9469 21.676 13.9469 21.1031V11.7281C13.9469 11.1756 13.7274 10.6457 13.3367 10.255C12.946 9.86427 12.4161 9.64478 11.8636 9.64478ZM18.8115 16.9364H16.0303C15.4574 16.9364 14.9886 17.4052 14.9886 17.9781V21.1031C14.9886 21.676 15.4574 22.1448 16.0303 22.1448H19.8532C20.4261 22.1448 20.8949 21.676 20.8949 21.1031V19.0198C20.8949 17.8739 19.9574 16.9364 18.8115 16.9364ZM13.6136 4.28019C13.9365 3.95728 14.0615 3.57186 13.9574 3.23853C13.8532 2.90519 13.5303 2.66561 13.0719 2.59269L12.0719 2.42603C12.0303 2.42603 11.9365 2.35311 11.9157 2.31144L11.3636 1.20728C10.9469 0.363525 9.99902 0.363525 9.58236 1.20728L9.03027 2.31144C9.01986 2.35311 8.92611 2.42603 8.88444 2.42603L7.88444 2.59269C7.42611 2.66561 7.11361 2.90519 6.99902 3.23853C6.89486 3.57186 7.01986 3.95728 7.34277 4.28019L8.11361 5.06144C8.15527 5.09269 8.18652 5.21769 8.17611 5.25936L7.95736 6.21769C7.79069 6.93644 8.06152 7.25936 8.23861 7.38436C8.41569 7.50936 8.80111 7.67603 9.43652 7.30103L10.374 6.74894C10.4157 6.71769 10.5511 6.71769 10.5928 6.74894L11.5199 7.30103C11.8115 7.47811 12.0511 7.53019 12.2386 7.53019C12.4574 7.53019 12.6136 7.44686 12.7074 7.38436C12.8844 7.25936 13.1553 6.93644 12.9886 6.21769L12.7699 5.25936C12.7594 5.20728 12.7907 5.09269 12.8324 5.06144L13.6136 4.28019Z" fill="white"/>
</svg>
