<svg width="26" height="23" viewBox="0 0 26 23" fill="none" xmlns="http://www.w3.org/2000/svg">
<path d="M14.6453 5.63052C14.6453 8.50699 12.3134 10.8387 9.43691 10.8387C6.56044 10.8387 4.22852 8.50699 4.22852 5.63052C4.22852 2.75404 6.56044 0.422119 9.43691 0.422119C12.3134 0.422119 14.6453 2.75404 14.6453 5.63052Z" fill="white"/>
<path d="M13.8637 12.9221H5.00938C2.2813 12.9221 0.0615234 15.1419 0.0615234 17.87V21.5159C0.0615234 21.9471 0.411522 22.2971 0.842773 22.2971H18.0303C18.4615 22.2971 18.8115 21.9471 18.8115 21.5159V17.87C18.8115 15.1419 16.5918 12.9221 13.8637 12.9221Z" fill="white"/>
<path d="M24.8122 9.22403L21.1663 5.83868C21.0195 5.70211 20.8278 5.63135 20.6351 5.63135C20.1184 5.63135 19.8527 6.07099 19.8527 6.41164V8.75539H15.6861C15.1101 8.75539 14.6445 9.22193 14.6445 9.797C14.6445 10.3721 15.1101 10.8386 15.6861 10.8386H19.8527V13.1824C19.8527 13.6157 20.2048 13.9636 20.634 13.9636C20.8278 13.9636 21.0185 13.8919 21.1663 13.7553L24.8122 10.37C24.9705 10.222 25.0611 10.0137 25.0611 9.797C25.0611 9.58032 24.9705 9.37204 24.8122 9.22403Z" fill="white"/>
</svg>
