<svg width="16" height="16" viewBox="0 0 16 16" fill="none" xmlns="http://www.w3.org/2000/svg">
<path d="M10.25 1.94002C9.5975 2.20252 8.9975 2.49502 8.525 2.78752L8.3975 2.87002C8.18 3.00502 7.82 3.00502 7.6025 2.87002L7.415 2.75752C6.08 1.92502 3.695 1.13002 2.12 1.00252C1.2275 0.92752 0.5 1.60252 0.5 2.49502V11.555C0.5 12.275 1.085 12.95 1.805 13.04L2.0225 13.07C3.65 13.2875 6.1625 14.1125 7.6025 14.9L7.6325 14.915C7.835 15.0275 8.1575 15.0275 8.3525 14.915C9.7925 14.12 12.3125 13.2875 13.9475 13.07L14.195 13.04C14.915 12.95 15.5 12.275 15.5 11.555V2.50252C15.5 1.60252 14.765 0.93502 13.8725 1.01002H13.8275C13.6475 1.02502 13.4525 1.04752 13.25 1.08502M10.25 1.94002V5.00002L11.75 4.00252L13.25 5.00002V1.08502M10.25 1.94002C11.2325 1.55002 12.3275 1.23502 13.25 1.08502M8 3.11752V14.3675" stroke="#0A2540" stroke-linecap="round" stroke-linejoin="round"/>
</svg>
