<svg width="21" height="22" viewBox="0 0 21 22" fill="none" xmlns="http://www.w3.org/2000/svg">
<path d="M7.43685 0.942871C4.70768 0.942871 2.48893 3.16162 2.48893 5.89079C2.48893 8.56787 4.58268 10.7345 7.31185 10.8283C7.39518 10.8179 7.47852 10.8179 7.54102 10.8283H7.61393C8.89451 10.7856 10.1083 10.2465 10.9986 9.32507C11.8889 8.40364 12.386 7.17208 12.3848 5.89079C12.3848 3.16162 10.166 0.942871 7.43685 0.942871ZM12.7285 13.5981C9.82227 11.6606 5.08268 11.6606 2.1556 13.5981C0.832682 14.4835 0.103516 15.6814 0.103516 16.9627C0.103516 18.2439 0.832682 19.4314 2.14518 20.3064C3.60352 21.2856 5.52018 21.7752 7.43685 21.7752C9.35352 21.7752 11.2702 21.2856 12.7285 20.3064C14.041 19.421 14.7702 18.2335 14.7702 16.9418C14.7598 15.6606 14.041 14.4731 12.7285 13.5981ZM18.8848 6.50329C19.0514 8.52412 17.6139 10.295 15.6243 10.5345H15.5723C15.5098 10.5345 15.4473 10.5345 15.3952 10.5554C14.3848 10.6075 13.4577 10.2845 12.7598 9.69079C13.8327 8.73245 14.4473 7.29495 14.3223 5.73245C14.2508 4.91996 13.9749 4.13876 13.5202 3.46162C14.066 3.19608 14.6682 3.06732 15.2749 3.08643C15.8816 3.10555 16.4745 3.27198 17.0025 3.57136C17.5306 3.87074 17.9778 4.29409 18.3057 4.80488C18.6337 5.31567 18.8324 5.89857 18.8848 6.50329Z" fill="white"/>
<path d="M20.9661 16.141C20.8828 17.1514 20.237 18.0264 19.1536 18.6201C18.112 19.193 16.7995 19.4639 15.4974 19.4326C16.2474 18.7555 16.6849 17.9118 16.7682 17.016C16.8724 15.7243 16.2578 14.4847 15.0286 13.4951C14.3307 12.943 13.5182 12.5055 12.6328 12.1826C14.9349 11.516 17.8307 11.9639 19.612 13.4014C20.5703 14.1722 21.0599 15.141 20.9661 16.141Z" fill="white"/>
</svg>
