<svg width="21" height="18" viewBox="0 0 21 18" fill="none" xmlns="http://www.w3.org/2000/svg">
<path d="M20.0605 4.69654C20.0605 5.35653 19.5205 5.89654 18.8605 5.89654H1.26055C0.600547 5.89654 0.0605469 5.35653 0.0605469 4.69654V4.68654C0.0605469 2.39654 1.91055 0.546535 4.20055 0.546535H15.9105C18.2005 0.546535 20.0605 2.40654 20.0605 4.69654ZM0.0605469 8.59854V13.6085C0.0605469 15.8985 1.91055 17.7485 4.20055 17.7485H15.9105C18.2005 17.7485 20.0605 15.8885 20.0605 13.5985V8.59854C20.0605 7.93854 19.5205 7.39854 18.8605 7.39854H1.26055C0.600547 7.39854 0.0605469 7.93854 0.0605469 8.59854ZM8.06055 11.3985H6.06055C5.65055 11.3985 5.31055 11.0585 5.31055 10.6485C5.31055 10.2385 5.65055 9.89854 6.06055 9.89854H8.06055C8.47055 9.89854 8.81055 10.2385 8.81055 10.6485C8.81055 11.0585 8.47055 11.3985 8.06055 11.3985ZM14.5605 11.3985H10.5605C10.1505 11.3985 9.81055 11.0585 9.81055 10.6485C9.81055 10.2385 10.1505 9.89854 10.5605 9.89854H14.5605C14.9705 9.89854 15.3105 10.2385 15.3105 10.6485C15.3105 11.0585 14.9705 11.3985 14.5605 11.3985Z" fill="white"/>
</svg>
