<svg width="21" height="22" viewBox="0 0 21 22" fill="none" xmlns="http://www.w3.org/2000/svg">
<path d="M14.9258 0.942871H6.19661C2.40495 0.942871 0.144531 3.20329 0.144531 6.99496V15.7137C0.144531 19.5158 2.40495 21.7762 6.19661 21.7762H14.9154C18.707 21.7762 20.9674 19.5158 20.9674 15.7241V6.99496C20.9779 3.20329 18.7174 0.942871 14.9258 0.942871ZM16.0299 11.7033C16.0299 12.1304 15.6758 12.4845 15.2487 12.4845C14.8216 12.4845 14.4674 12.1304 14.4674 11.7033V8.55746L6.42578 16.5991C6.26953 16.7554 6.07161 16.8283 5.8737 16.8283C5.67578 16.8283 5.47786 16.7554 5.32161 16.5991C5.17632 16.4521 5.09484 16.2537 5.09484 16.047C5.09484 15.8403 5.17632 15.642 5.32161 15.495L13.3633 7.45329H10.2174C9.79036 7.45329 9.4362 7.09912 9.4362 6.67204C9.4362 6.24496 9.79036 5.89079 10.2174 5.89079H15.2487C15.6758 5.89079 16.0299 6.24496 16.0299 6.67204V11.7033Z" fill="white"/>
</svg>
