<svg width="21" height="22" viewBox="0 0 21 22" fill="none" xmlns="http://www.w3.org/2000/svg">
<path d="M9.78027 17.87H7.43652C6.29069 17.87 5.35319 18.8075 5.35319 19.9534V20.2138H4.31152C3.88444 20.2138 3.53027 20.568 3.53027 20.995C3.53027 21.4221 3.88444 21.7763 4.31152 21.7763H16.8115C17.2386 21.7763 17.5928 21.4221 17.5928 20.995C17.5928 20.568 17.2386 20.2138 16.8115 20.2138H15.7699V19.9534C15.7699 18.8075 14.8324 17.87 13.6865 17.87H11.3428V15.4846C11.0824 15.5159 10.8219 15.5263 10.5615 15.5263C10.3011 15.5263 10.0407 15.5159 9.78027 15.4846V17.87Z" fill="white"/>
<path d="M17.3115 10.9845C17.999 10.7241 18.6032 10.297 19.0824 9.81787C20.0511 8.74496 20.6865 7.46371 20.6865 5.96371C20.6865 4.4637 19.5094 3.28662 18.0094 3.28662H17.4261C17.0852 2.58462 16.5539 1.99261 15.8926 1.57818C15.2314 1.16375 14.4669 0.943603 13.6865 0.942871H7.43652C5.79069 0.942871 4.37402 1.9012 3.69694 3.28662H3.11361C1.61361 3.28662 0.436523 4.4637 0.436523 5.96371C0.436523 7.46371 1.07194 8.74496 2.04069 9.81787C2.51986 10.297 3.12402 10.7241 3.81152 10.9845C4.35567 12.3282 5.28907 13.4786 6.49184 14.2878C7.69461 15.0971 9.11184 15.5284 10.5615 15.5262C13.624 15.5262 16.2282 13.6512 17.3115 10.9845ZM13.5199 7.66162L12.874 8.45329C12.7699 8.56787 12.6969 8.79704 12.7074 8.95329L12.7699 9.97412C12.8115 10.5991 12.3636 10.922 11.7803 10.6929L10.8324 10.3179C10.6556 10.2658 10.4675 10.2658 10.2907 10.3179L9.34277 10.6929C8.75944 10.922 8.31152 10.5991 8.35319 9.97412L8.41569 8.95329C8.41964 8.77236 8.36074 8.59566 8.24902 8.45329L7.60319 7.66162C7.19694 7.18245 7.37402 6.6512 7.97819 6.49495L8.96777 6.24496C9.12402 6.20329 9.31152 6.05746 9.39486 5.92204L9.94694 5.06787C10.2907 4.53662 10.8324 4.53662 11.1761 5.06787L11.7282 5.92204C11.8115 6.05746 11.999 6.20329 12.1553 6.24496L13.1449 6.49495C13.749 6.6512 13.9261 7.18245 13.5199 7.66162Z" fill="white"/>
</svg>
