<svg width="53" height="68" viewBox="0 0 53 68" fill="none" xmlns="http://www.w3.org/2000/svg">
<path d="M41.955 1.30126L41.9578 1.3034C42.2244 1.50471 42.4169 1.79861 42.4963 2.13619C42.5758 2.47392 42.5358 2.82905 42.3848 3.13801C42.3848 3.13808 42.3848 3.13815 42.3847 3.13822L37.1904 13.7594H16.1786L10.9842 3.13801L10.9843 3.13799L10.9797 3.12889C10.8232 2.81702 10.7806 2.45645 10.8611 2.11356C10.9416 1.7709 11.1385 1.47339 11.411 1.2719C11.6829 1.07079 12.0132 0.97737 12.3427 1.00465C12.6724 1.03193 12.9852 1.17875 13.2236 1.4238L13.27 1.47152L13.3224 1.51267C15.0712 2.88756 17.2456 3.58356 19.4553 3.47294C21.6752 3.59266 23.8619 2.89573 25.6173 1.51184L25.6663 1.47316L25.7102 1.42868C25.9758 1.15936 26.3308 1.01188 26.6966 1.01188C27.0623 1.01188 27.4174 1.15936 27.6829 1.42868L27.7273 1.47364L27.7769 1.51267C29.5262 2.88793 31.7013 3.58394 33.9116 3.47285C36.1355 3.58526 38.3232 2.87848 40.0753 1.4845L40.1154 1.45257L40.1521 1.4167C40.394 1.17993 40.707 1.04136 41.0344 1.02065C41.3616 0.999951 41.6878 1.09798 41.955 1.30126Z" stroke="#F24F00" stroke-opacity="0.2" stroke-width="2"/>
<path d="M5.89684 32.8048C8.57173 27.5276 11.8395 22.9897 14.355 19.8481H38.645C41.1605 22.9897 44.4283 27.5276 47.1032 32.8048C49.8888 38.3003 52 44.5363 52 50.7969C52 61.4897 44.0503 67.0001 38.5455 67.0001H14.4545C8.94968 67.0001 1 61.4897 1 50.7969C1 44.5363 3.11123 38.3003 5.89684 32.8048Z" stroke="#F24F00" stroke-opacity="0.2" stroke-width="2"/>
<path d="M33.8346 35.4641C33.9451 35.4641 34.0346 35.3746 34.0346 35.2641V32.9361C34.0346 32.8256 33.9451 32.7361 33.8346 32.7361H19.6482C19.5378 32.7361 19.4482 32.8256 19.4482 32.9361V35.2641C19.4482 35.3746 19.5378 35.4641 19.6482 35.4641H24.0894C25.7191 35.4641 27.1089 36.4826 27.7214 37.9299C27.775 38.0565 27.6787 38.1921 27.5412 38.1921H19.6482C19.5378 38.1921 19.4482 38.2817 19.4482 38.3921V40.7201C19.4482 40.8306 19.5378 40.9201 19.6482 40.9201H27.5423C27.6795 40.9201 27.7758 41.0551 27.7227 41.1817C27.4355 41.8666 26.9706 42.4593 26.3766 42.8934C25.7082 43.3819 24.9093 43.6455 24.0894 43.6481H19.6482C19.5378 43.6481 19.4482 43.7377 19.4482 43.8481V46.8597C19.4482 46.9117 19.4685 46.9617 19.5048 46.9991L26.7966 54.4996C26.8342 54.5383 26.886 54.5602 26.94 54.5602H30.1321C30.309 54.5602 30.3988 54.3476 30.2755 54.2208L22.9793 46.7156C22.856 46.5888 22.9458 46.3761 23.1227 46.3761H24.0894C25.617 46.3741 27.0971 45.8303 28.2802 44.8363C29.422 43.877 30.2198 42.5553 30.5503 41.0806C30.5711 40.9875 30.6529 40.9201 30.7483 40.9201H33.8346C33.9451 40.9201 34.0346 40.8306 34.0346 40.7201V38.3921C34.0346 38.2817 33.9451 38.1921 33.8346 38.1921H30.7475C30.6525 38.1921 30.5709 38.1252 30.5497 38.0326C30.3656 37.2307 30.04 36.4711 29.5899 35.7912C29.4989 35.6537 29.5946 35.4641 29.7595 35.4641H33.8346Z" stroke="#F24F00" stroke-opacity="0.2" stroke-width="2"/>
</svg>
