<svg width="67" height="69" viewBox="0 0 67 69" fill="none" xmlns="http://www.w3.org/2000/svg">
<path d="M17.2245 12.2562L17.2365 12.2291L17.2469 12.2014L17.4449 11.6703C17.5038 11.5316 17.5393 11.4415 17.5649 11.3767C17.6003 11.2868 17.6166 11.2455 17.6492 11.1909L17.6833 11.1338L17.7095 11.0726C19.6765 6.48605 21.6847 3.67741 24.0368 2.23356C26.1103 0.960723 28.6039 0.659603 31.9191 1.39141L24.3679 19.0662H16.7561C15.9484 19.0662 15.1441 19.1008 14.3453 19.1846L17.092 12.5562L17.2245 12.2562ZM50.2596 19.0593H30.2884L37.1352 3.05621C37.3305 3.13493 37.5398 3.21633 37.7534 3.28916L45.3048 6.48449L45.3097 6.48652C49.4698 8.22102 52.2358 9.96786 53.9004 11.9794C54.1979 12.3787 54.4464 12.7242 54.6925 13.1264L54.6976 13.1347L54.7029 13.143C54.9767 13.5714 55.1628 13.9583 55.2653 14.3448L55.2855 14.4208L55.3172 14.4927C55.4401 14.7708 55.5154 14.98 55.5644 15.2016L55.5716 15.2344L55.581 15.2665C55.9627 16.5716 56.0578 18.0553 55.8192 19.7328C53.9962 19.2919 52.1424 19.0593 50.2596 19.0593Z" stroke="#FFBA00" stroke-opacity="0.3" stroke-width="2"/>
<path d="M10.5569 27.5002L10.5593 27.4991C12.4878 26.6588 14.548 26.2363 16.75 26.2363H50.25C51.8321 26.2363 53.3491 26.463 54.8035 26.8848C58.0378 27.8788 60.8711 29.8896 62.8867 32.6231C64.9038 35.3587 65.9954 38.6736 66 42.0804V48.8093C66 49.4701 65.9671 50.1361 65.9327 50.7933C65.6156 56.6616 63.8426 60.914 60.7552 63.7116C57.6597 66.5166 53.0884 67.9999 46.8863 67.9999H20.1137C19.3109 67.9999 18.5667 67.9355 17.8068 67.8358L17.775 67.8316L17.743 67.8295C12.4488 67.4779 8.52003 65.89 5.82278 63.1818C3.12459 60.4727 1.53584 56.5191 1.16926 51.1911L1.16737 51.1637L1.16398 51.1364C1.06391 50.3314 1 49.5818 1 48.8093V42.0797C1.00367 38.9755 1.91107 35.9408 3.60964 33.35C5.30827 30.7591 7.72357 28.7258 10.5569 27.5002Z" stroke="#FFBA00" stroke-opacity="0.3" stroke-width="2"/>
<path d="M42.7167 38.4999C42.8271 38.4999 42.9167 38.4104 42.9167 38.2999V35.5333C42.9167 35.4228 42.8271 35.3333 42.7167 35.3333H25.7C25.5895 35.3333 25.5 35.4228 25.5 35.5333V38.2999C25.5 38.4104 25.5895 38.4999 25.7 38.4999H31.0417C33.0031 38.4999 34.6735 39.7011 35.3957 41.4023C35.4497 41.5296 35.3534 41.6666 35.2152 41.6666H25.7C25.5895 41.6666 25.5 41.7561 25.5 41.8666V44.6333C25.5 44.7437 25.5895 44.8333 25.7 44.8333H35.2163C35.3542 44.8333 35.4505 44.9696 35.3971 45.0967C35.0557 45.9087 34.4938 46.6115 33.7728 47.1239C32.9746 47.6909 32.0206 47.9969 31.0417 47.9999H25.7C25.5895 47.9999 25.5 48.0895 25.5 48.1999V51.7392C25.5 51.7923 25.5211 51.8432 25.5586 51.8807L34.2859 60.608C34.3234 60.6455 34.3743 60.6666 34.4273 60.6666H38.3393C38.5175 60.6666 38.6067 60.4512 38.4807 60.3252L29.6636 51.508C29.5376 51.382 29.6268 51.1666 29.805 51.1666H31.0417C32.8657 51.1642 34.633 50.5329 36.0456 49.3792C37.4161 48.2598 38.3716 46.7153 38.7624 44.9927C38.7834 44.9001 38.865 44.8333 38.9599 44.8333H42.7167C42.8271 44.8333 42.9167 44.7437 42.9167 44.6333V41.8666C42.9167 41.7561 42.8271 41.6666 42.7167 41.6666H38.9591C38.8645 41.6666 38.7832 41.6003 38.7617 41.5082C38.5384 40.5473 38.1353 39.6382 37.5744 38.8286C37.4798 38.692 37.575 38.4999 37.7412 38.4999H42.7167Z" stroke="#FDE5A0" stroke-width="1.5"/>
</svg>
