<svg width="51" height="71" viewBox="0 0 51 71" fill="none" xmlns="http://www.w3.org/2000/svg">
<path d="M33.7167 37.4999C33.8271 37.4999 33.9167 37.4104 33.9167 37.2999V34.5333C33.9167 34.4228 33.8271 34.3333 33.7167 34.3333H16.7C16.5895 34.3333 16.5 34.4228 16.5 34.5333V37.2999C16.5 37.4104 16.5895 37.4999 16.7 37.4999H22.0417C24.0031 37.4999 25.6735 38.7011 26.3957 40.4023C26.4497 40.5296 26.3534 40.6666 26.2152 40.6666H16.7C16.5895 40.6666 16.5 40.7561 16.5 40.8666V43.6333C16.5 43.7437 16.5895 43.8333 16.7 43.8333H26.2163C26.3542 43.8333 26.4505 43.9696 26.3971 44.0967C26.0557 44.9087 25.4938 45.6115 24.7728 46.1239C23.9746 46.6909 23.0206 46.9969 22.0417 46.9999H16.7C16.5895 46.9999 16.5 47.0895 16.5 47.1999V50.7392C16.5 50.7923 16.5211 50.8432 16.5586 50.8807L25.2859 59.608C25.3234 59.6455 25.3743 59.6666 25.4273 59.6666H29.3393C29.5175 59.6666 29.6067 59.4512 29.4807 59.3252L20.6636 50.508C20.5376 50.382 20.6268 50.1666 20.805 50.1666H22.0417C23.8657 50.1642 25.633 49.5329 27.0456 48.3792C28.4161 47.2598 29.3716 45.7153 29.7624 43.9927C29.7834 43.9001 29.865 43.8333 29.9599 43.8333H33.7167C33.8271 43.8333 33.9167 43.7437 33.9167 43.6333V40.8666C33.9167 40.7561 33.8271 40.6666 33.7167 40.6666H29.9591C29.8645 40.6666 29.7832 40.6003 29.7617 40.5082C29.5384 39.5473 29.1353 38.6382 28.5744 37.8286C28.4798 37.692 28.575 37.4999 28.7412 37.4999H33.7167Z" stroke="#B1EDC9" stroke-width="1.5"/>
<g opacity="0.3">
<path d="M3.59826 23.1667C3.59826 24.4277 4.53518 25.4671 5.74464 25.6124C5.51103 25.8957 5.28226 26.1912 5.05594 26.5065C2.96798 29.4128 1.16474 33.7993 1.16474 40.4075C1.16474 46.491 0.600146 52.6607 1.56139 57.5374C2.32552 61.4067 3.99737 64.5371 7.17555 66.5469C10.6701 68.7562 18.0729 70 25.5 70C32.9271 70 40.3299 68.7562 43.8245 66.5469C47.0026 64.5371 48.6745 61.4067 49.4386 57.5374C50.3999 52.6607 49.8353 46.491 49.8353 40.4075C49.8353 33.7993 48.032 29.4128 45.9441 26.5065C45.7177 26.1912 45.489 25.8957 45.2554 25.6124C46.4648 25.4671 47.4017 24.4277 47.4017 23.1667C47.4017 21.8071 46.3115 20.7037 44.9682 20.7037H6.03179C4.68848 20.7037 3.59826 21.8071 3.59826 23.1667Z" stroke="#40C175" stroke-width="2"/>
<path d="M3.16025 7.72144C3.84407 9.14503 5.45261 12.475 7.049 15.7778H43.9534L47.2144 9.03666C47.8057 7.8101 47.6061 6.34464 46.713 5.32004C45.8199 4.29791 44.4061 3.91862 43.1309 4.35949C40.6609 5.20675 36.2465 6.52197 32.3991 6.52197C28.6028 6.52197 26.0013 4.64519 23.3293 3.22652C20.9882 1.98272 18.6107 1 15.7659 1C9.23431 1 5.78115 2.58122 4.41351 3.36937C4.33077 3.41617 4.24802 3.47036 4.17014 3.52947C2.87794 4.49741 2.45209 6.2609 3.16025 7.72144Z" stroke="#40C175" stroke-width="2"/>
</g>
</svg>
