<svg width="66" height="68" viewBox="0 0 66 68" fill="none" xmlns="http://www.w3.org/2000/svg">
<path d="M17.6172 31.034C17.6172 39.7063 24.6893 46.7366 33.4133 46.7366C42.1373 46.7366 49.2095 39.7063 49.2095 31.034C49.2095 22.3616 42.1373 15.3313 33.4133 15.3313C24.6936 15.341 17.627 22.3659 17.6172 31.034Z" stroke="#BDEBF9" stroke-width="2"/>
<path d="M59.3311 51.303C59.3403 51.2988 59.3488 51.2945 59.3568 51.2903C60.9066 50.5099 62.7862 50.8202 64.0001 52.0554L42.7286 65.7335C39.976 66.9711 36.9008 67.3124 33.9417 66.7099L18.5879 62.4257C16.8994 61.9514 15.0918 62.1482 13.5469 62.9741L11.9922 63.8018L12.3544 50.7182C16.5823 47.8865 22.0302 47.5817 26.5513 49.9233L27.4719 50.397C29.0596 51.2125 30.8116 51.6625 32.5984 51.7135L41.6455 51.9607C44.3322 52.0384 46.5912 53.989 47.0445 56.6227L33.3736 56.2486C32.7694 56.2322 32.2655 56.7059 32.249 57.3071C32.2325 57.9082 32.709 58.4086 33.3137 58.425C40.461 59.8669 46.862 57.4595 49.1691 56.0755L59.3311 51.303Z" stroke="#BDEBF9" stroke-width="2"/>
<path d="M2 66.0745L2.53941 46.6086L10.2719 46.8206L9.73252 66.2865L2 66.0745Z" stroke="#BDEBF9" stroke-width="2"/>
<path d="M34.416 10.9698V2.08822C34.416 1.48703 33.926 1 33.3213 1C32.7165 1 32.2266 1.48703 32.2266 2.08822V10.9698C32.2266 11.571 32.7165 12.058 33.3213 12.058C33.926 12.058 34.416 11.571 34.416 10.9698Z" stroke="#BDEBF9" stroke-width="2"/>
<path d="M42.5068 12.4361V8.30624C42.5068 7.70504 42.0169 7.21802 41.4121 7.21802C40.8073 7.21802 40.3174 7.70504 40.3174 8.30624V12.4361C40.3174 13.0373 40.8073 13.5243 41.4121 13.5243C42.0169 13.5243 42.5068 13.0373 42.5068 12.4361Z" stroke="#BDEBF9" stroke-width="2"/>
<path d="M26.3232 12.4361V8.30624C26.3232 7.70504 25.8333 7.21802 25.2285 7.21802C24.6237 7.21802 24.1338 7.70504 24.1338 8.30624V12.4361C24.1338 13.0373 24.6237 13.5243 25.2285 13.5243C25.8333 13.5243 26.3232 13.0373 26.3232 12.4361Z" stroke="#BDEBF9" stroke-width="2"/>
<path d="M36 25.125V23H25V25.125H28.5C29.802 25.125 30.901 26.0154 31.315 27.25H25V29.375H31.315C31.1097 29.9947 30.7289 30.5316 30.2249 30.9121C29.7208 31.2926 29.1183 31.498 28.5 31.5H25V34.0649L30.586 40H33.414L27.414 33.625H28.5C29.652 33.6234 30.7682 33.1998 31.6604 32.4255C32.5526 31.6513 33.1663 30.5739 33.398 29.375H36V27.25H33.398C33.2447 26.4767 32.9288 25.7503 32.474 25.125H36Z" stroke="#BDEBF9"/>
</svg>
