<svg width="78" height="70" viewBox="0 0 78 70" fill="none" xmlns="http://www.w3.org/2000/svg">
<path d="M15.6003 1H62.401C70.4356 1 77.0013 7.52938 77.0013 15.4898C77.0013 21.1212 73.9613 25.8346 69.2511 28.2655V15.4898C69.2511 13.6382 68.3345 11.8838 67.5213 10.6727C66.9494 9.82089 66.0164 9.33838 65.1349 9.06488C64.2352 8.78569 63.2531 8.68112 62.401 8.68112H15.6003C13.7417 8.68112 11.9784 9.58855 10.7582 10.3962C9.90135 10.9634 9.41402 11.8908 9.13755 12.7693C8.85567 13.6649 8.75016 14.6421 8.75016 15.4898V28.2655C4.04 25.8346 1 21.1212 1 15.4898C1 7.52938 7.56569 1 15.6003 1Z" stroke="#BDEBF9" stroke-width="2"/>
<path d="M17 16H61.8008V61.4694C61.8008 65.1701 58.7451 68.2143 55.0006 68.2143H23.8001C20.0556 68.2143 17 65.1701 17 61.4694V16Z" stroke="#BDEBF9" stroke-width="2"/>
<path d="M47.2167 33.4999C47.3271 33.4999 47.4167 33.4104 47.4167 33.2999V30.5333C47.4167 30.4228 47.3271 30.3333 47.2167 30.3333H30.2C30.0895 30.3333 30 30.4228 30 30.5333V33.2999C30 33.4104 30.0895 33.4999 30.2 33.4999H35.5417C37.5031 33.4999 39.1735 34.7011 39.8957 36.4023C39.9497 36.5296 39.8534 36.6666 39.7152 36.6666H30.2C30.0895 36.6666 30 36.7561 30 36.8666V39.6333C30 39.7437 30.0895 39.8333 30.2 39.8333H39.7163C39.8542 39.8333 39.9505 39.9696 39.8971 40.0967C39.5557 40.9087 38.9938 41.6115 38.2728 42.1239C37.4746 42.6909 36.5206 42.9969 35.5417 42.9999H30.2C30.0895 42.9999 30 43.0895 30 43.1999V46.7392C30 46.7923 30.0211 46.8432 30.0586 46.8807L38.7859 55.608C38.8234 55.6455 38.8743 55.6666 38.9273 55.6666H42.8393C43.0175 55.6666 43.1067 55.4512 42.9807 55.3252L34.1636 46.508C34.0376 46.382 34.1268 46.1666 34.305 46.1666H35.5417C37.3657 46.1642 39.133 45.5329 40.5456 44.3792C41.9161 43.2598 42.8716 41.7153 43.2624 39.9927C43.2834 39.9001 43.365 39.8333 43.4599 39.8333H47.2167C47.3271 39.8333 47.4167 39.7437 47.4167 39.6333V36.8666C47.4167 36.7561 47.3271 36.6666 47.2167 36.6666H43.4591C43.3645 36.6666 43.2832 36.6003 43.2617 36.5082C43.0384 35.5473 42.6353 34.6382 42.0744 33.8286C41.9798 33.692 42.075 33.4999 42.2412 33.4999H47.2167Z" stroke="#BDEBF9" stroke-width="1.5"/>
</svg>
