<svg width="68" height="68" viewBox="0 0 68 68" fill="none" xmlns="http://www.w3.org/2000/svg">
<path d="M49.4695 24.3333C39.8735 24.3333 32.0674 32.1392 32.0674 41.7352C32.0674 51.3312 39.8734 59.1372 49.4694 59.1372C59.0653 59.1372 67.0002 51.3312 67.0002 41.7352C67.0002 32.1392 59.0655 24.3333 49.4695 24.3333Z" stroke="#CBCDEA" stroke-width="2"/>
<path d="M2.93456 43.6685C1.8658 43.6685 1.00098 44.5333 1.00098 45.602V65.0665C1.00098 66.1353 1.8658 67.0001 2.93456 67.0001H8.73517V43.6685H2.93456Z" stroke="#CBCDEA" stroke-width="2"/>
<path d="M46.8584 13.0689L33.3235 1.46759C32.6021 0.844462 31.5296 0.844462 30.8083 1.46759L17.2735 13.0689C16.658 13.5939 16.437 14.4473 16.7183 15.2065C16.9977 15.9656 17.7209 16.4697 18.5311 16.4697H24.3317C24.3317 33.1861 24.3317 50.2826 24.3317 67C29.3129 67 32.7566 67 37.8666 67C38.9354 67 39.8002 66.1352 39.8002 65.0664V60.656C32.9241 57.128 28.1989 49.9802 28.1989 41.7349C28.1989 33.4898 32.9243 26.3418 39.8002 22.8138V16.4699H45.6008C46.4109 16.4699 47.1342 15.9657 47.4136 15.2066C47.695 14.4473 47.4741 13.5939 46.8584 13.0689Z" stroke="#CBCDEA" stroke-width="2"/>
<path d="M14.665 28.2002C13.5963 28.2002 12.7314 29.065 12.7314 30.1338V43.6687V67.0001C15.5558 67.0001 17.7234 67.0001 20.4656 67.0001V28.2002H14.665Z" stroke="#CBCDEA" stroke-width="2"/>
<path d="M55.6333 36.0001C55.7438 36.0001 55.8333 35.9105 55.8333 35.8001V33.8667C55.8333 33.7563 55.7438 33.6667 55.6333 33.6667H43.2C43.0895 33.6667 43 33.7563 43 33.8667V35.8001C43 35.9105 43.0895 36.0001 43.2 36.0001H47.0833C48.5022 36.0001 49.7144 36.8531 50.2617 38.0704C50.3184 38.1964 50.2222 38.3334 50.0839 38.3334H43.2C43.0895 38.3334 43 38.423 43 38.5334V40.4667C43 40.5772 43.0895 40.6667 43.2 40.6667H50.0851C50.223 40.6667 50.3192 40.8031 50.2631 40.9291C50.0092 41.4986 49.6067 41.9915 49.0957 42.3546C48.5076 42.7723 47.8047 42.9979 47.0833 43.0001H43.2C43.0895 43.0001 43 43.0896 43 43.2001V45.7336C43 45.7866 43.0211 45.8375 43.0586 45.875L49.4584 52.2748C49.4959 52.3123 49.5468 52.3334 49.5998 52.3334H52.3335C52.5117 52.3334 52.6009 52.118 52.4749 51.992L46.1578 45.6748C46.0318 45.5488 46.121 45.3334 46.2992 45.3334H47.0833C48.4273 45.3317 49.7296 44.8665 50.7705 44.0164C51.7692 43.2007 52.4688 42.0785 52.7626 40.8261C52.7843 40.7336 52.8658 40.6667 52.9608 40.6667H55.6333C55.7438 40.6667 55.8333 40.5772 55.8333 40.4667V38.5334C55.8333 38.423 55.7438 38.3334 55.6333 38.3334H52.9599C52.8654 38.3334 52.7841 38.2671 52.762 38.1751C52.6039 37.5173 52.3313 36.8931 51.9571 36.3309C51.8651 36.1926 51.9609 36.0001 52.127 36.0001H55.6333Z" stroke="#CBCDEA" stroke-width="1.5"/>
</svg>
