<svg width="70" height="70" viewBox="0 0 70 70" fill="none" xmlns="http://www.w3.org/2000/svg">
<mask id="path-1-inside-1_590_14562" fill="white">
<path d="M28 46.6667V53.6667C27.9991 53.9759 27.8759 54.2721 27.6573 54.4907C27.4387 54.7093 27.1425 54.8325 26.8333 54.8334H19.8333C19.5242 54.8325 19.228 54.7093 19.0094 54.4907C18.7908 54.2721 18.6676 53.9759 18.6667 53.6667V46.6667C18.6676 46.3576 18.7908 46.0613 19.0094 45.8427C19.228 45.6241 19.5242 45.5009 19.8333 45.5H26.8333C27.1425 45.5009 27.4387 45.6241 27.6573 45.8427C27.8759 46.0613 27.9991 46.3576 28 46.6667ZM70 51.3334C70.0014 55.3241 68.7234 59.2102 66.3535 62.4211C63.9836 65.632 60.6467 67.9985 56.8328 69.1733C53.0188 70.348 48.9287 70.269 45.163 68.948C41.3972 67.6269 38.1542 65.1334 35.91 61.8334H5.83333C4.28641 61.8328 2.803 61.2181 1.70916 60.1242C0.615317 59.0304 0.000556593 57.547 0 56.0001V11.6667C0.000556593 10.1198 0.615317 8.63634 1.70916 7.5425C2.803 6.44866 4.28641 5.8339 5.83333 5.83334H9.33333V3.5C9.33333 2.57174 9.70208 1.68151 10.3585 1.02513C11.0148 0.368749 11.9051 0 12.8333 0C13.7616 0 14.6518 0.368749 15.3082 1.02513C15.9646 1.68151 16.3333 2.57174 16.3333 3.5V5.83334H25.6667V3.5C25.6667 2.57174 26.0354 1.68151 26.6918 1.02513C27.3482 0.368749 28.2384 0 29.1667 0C30.0949 0 30.9852 0.368749 31.6415 1.02513C32.2979 1.68151 32.6667 2.57174 32.6667 3.5V5.83334H42V3.5C42 2.57174 42.3688 1.68151 43.0251 1.02513C43.6815 0.368749 44.5717 0 45.5 0C46.4283 0 47.3185 0.368749 47.9749 1.02513C48.6312 1.68151 49 2.57174 49 3.5V5.83334H52.5C54.0469 5.8339 55.5303 6.44866 56.6242 7.5425C57.718 8.63634 58.3328 10.1198 58.3333 11.6667V34.0434C61.7772 35.438 64.7268 37.8282 66.805 40.9081C68.8833 43.9881 69.9957 47.6179 70 51.3334ZM44.3333 9.33334C44.3333 9.64276 44.4563 9.93951 44.675 10.1583C44.8938 10.3771 45.1906 10.5 45.5 10.5C45.8094 10.5 46.1062 10.3771 46.325 10.1583C46.5438 9.93951 46.6667 9.64276 46.6667 9.33334V3.5C46.6667 3.19058 46.5438 2.89384 46.325 2.67505C46.1062 2.45625 45.8094 2.33334 45.5 2.33334C45.1906 2.33334 44.8938 2.45625 44.675 2.67505C44.4563 2.89384 44.3333 3.19058 44.3333 3.5V9.33334ZM28 9.33334C28 9.64276 28.1229 9.93951 28.3417 10.1583C28.5605 10.3771 28.8572 10.5 29.1667 10.5C29.4761 10.5 29.7728 10.3771 29.9916 10.1583C30.2104 9.93951 30.3333 9.64276 30.3333 9.33334V3.5C30.3333 3.19058 30.2104 2.89384 29.9916 2.67505C29.7728 2.45625 29.4761 2.33334 29.1667 2.33334C28.8572 2.33334 28.5605 2.45625 28.3417 2.67505C28.1229 2.89384 28 3.19058 28 3.5V9.33334ZM11.6667 9.33334C11.6667 9.64276 11.7896 9.93951 12.0084 10.1583C12.2272 10.3771 12.5239 10.5 12.8333 10.5C13.1428 10.5 13.4395 10.3771 13.6583 10.1583C13.8771 9.93951 14 9.64276 14 9.33334V3.5C14 3.19058 13.8771 2.89384 13.6583 2.67505C13.4395 2.45625 13.1428 2.33334 12.8333 2.33334C12.5239 2.33334 12.2272 2.45625 12.0084 2.67505C11.7896 2.89384 11.6667 3.19058 11.6667 3.5V9.33334ZM32.6667 51.3334C32.672 48.502 33.3223 45.7091 34.5683 43.1667H31.5C31.1909 43.1658 30.8946 43.0426 30.676 42.824C30.4574 42.6054 30.3342 42.3092 30.3333 42V35C30.3342 34.6909 30.4574 34.3947 30.676 34.1761C30.8946 33.9575 31.1909 33.8343 31.5 33.8334H38.5C38.8091 33.8343 39.1054 33.9575 39.324 34.1761C39.5426 34.3947 39.6658 34.6909 39.6667 35V36.785C42.9713 34.1206 47.0883 32.6672 51.3333 32.6667C52.9091 32.6694 54.4779 32.8773 56 33.285V17.5H2.33333V56.0001C2.33604 56.9275 2.70566 57.8161 3.36145 58.4719C4.01724 59.1277 4.90591 59.4973 5.83333 59.5001H34.5683C33.3223 56.9576 32.672 54.1647 32.6667 51.3334ZM67.6667 51.3334C67.6667 48.103 66.7087 44.9451 64.914 42.2591C63.1193 39.5731 60.5684 37.4796 57.5838 36.2433C54.5993 35.0071 51.3152 34.6836 48.1469 35.3139C44.9785 35.9441 42.0682 37.4997 39.7839 39.784C37.4997 42.0682 35.9441 44.9785 35.3138 48.1469C34.6836 51.3153 35.0071 54.5994 36.2433 57.5839C37.4795 60.5684 39.573 63.1193 42.259 64.9141C44.945 66.7088 48.1029 67.6667 51.3333 67.6667C55.6637 67.662 59.8154 65.9396 62.8775 62.8776C65.9396 59.8155 67.6619 55.6638 67.6667 51.3334ZM43.1667 31.5H50.1667C50.4758 31.4991 50.772 31.3759 50.9906 31.1573C51.2092 30.9387 51.3324 30.6425 51.3333 30.3334V23.3334C51.3324 23.0242 51.2092 22.728 50.9906 22.5094C50.772 22.2908 50.4758 22.1676 50.1667 22.1667H43.1667C42.8575 22.1676 42.5613 22.2908 42.3427 22.5094C42.1241 22.728 42.0009 23.0242 42 23.3334V30.3334C42.0009 30.6425 42.1241 30.9387 42.3427 31.1573C42.5613 31.3759 42.8575 31.4991 43.1667 31.5ZM31.5 31.5H38.5C38.8091 31.4991 39.1054 31.3759 39.324 31.1573C39.5426 30.9387 39.6658 30.6425 39.6667 30.3334V23.3334C39.6658 23.0242 39.5426 22.728 39.324 22.5094C39.1054 22.2908 38.8091 22.1676 38.5 22.1667H31.5C31.1909 22.1676 30.8946 22.2908 30.676 22.5094C30.4574 22.728 30.3342 23.0242 30.3333 23.3334V30.3334C30.3342 30.6425 30.4574 30.9387 30.676 31.1573C30.8946 31.3759 31.1909 31.4991 31.5 31.5ZM26.8333 33.8334H19.8333C19.5242 33.8343 19.228 33.9575 19.0094 34.1761C18.7908 34.3947 18.6676 34.6909 18.6667 35V42C18.6676 42.3092 18.7908 42.6054 19.0094 42.824C19.228 43.0426 19.5242 43.1658 19.8333 43.1667H26.8333C27.1425 43.1658 27.4387 43.0426 27.6573 42.824C27.8759 42.6054 27.9991 42.3092 28 42V35C27.9991 34.6909 27.8759 34.3947 27.6573 34.1761C27.4387 33.9575 27.1425 33.8343 26.8333 33.8334ZM26.8333 22.1667H19.8333C19.5242 22.1676 19.228 22.2908 19.0094 22.5094C18.7908 22.728 18.6676 23.0242 18.6667 23.3334V30.3334C18.6676 30.6425 18.7908 30.9387 19.0094 31.1573C19.228 31.3759 19.5242 31.4991 19.8333 31.5H26.8333C27.1425 31.4991 27.4387 31.3759 27.6573 31.1573C27.8759 30.9387 27.9991 30.6425 28 30.3334V23.3334C27.9991 23.0242 27.8759 22.728 27.6573 22.5094C27.4387 22.2908 27.1425 22.1676 26.8333 22.1667ZM15.1667 45.5H8.16667C7.85752 45.5009 7.56129 45.6241 7.3427 45.8427C7.1241 46.0613 7.00089 46.3576 7 46.6667V53.6667C7.00089 53.9759 7.1241 54.2721 7.3427 54.4907C7.56129 54.7093 7.85752 54.8325 8.16667 54.8334H15.1667C15.4758 54.8325 15.772 54.7093 15.9906 54.4907C16.2092 54.2721 16.3324 53.9759 16.3333 53.6667V46.6667C16.3324 46.3576 16.2092 46.0613 15.9906 45.8427C15.772 45.6241 15.4758 45.5009 15.1667 45.5ZM15.1667 33.8334H8.16667C7.85752 33.8343 7.56129 33.9575 7.3427 34.1761C7.1241 34.3947 7.00089 34.6909 7 35V42C7.00089 42.3092 7.1241 42.6054 7.3427 42.824C7.56129 43.0426 7.85752 43.1658 8.16667 43.1667H15.1667C15.4758 43.1658 15.772 43.0426 15.9906 42.824C16.2092 42.6054 16.3324 42.3092 16.3333 42V35C16.3324 34.6909 16.2092 34.3947 15.9906 34.1761C15.772 33.9575 15.4758 33.8343 15.1667 33.8334ZM65.3333 51.3334C65.3333 54.1023 64.5122 56.8091 62.9739 59.1114C61.4356 61.4137 59.2491 63.2081 56.6909 64.2677C54.1327 65.3273 51.3178 65.6046 48.6021 65.0644C45.8863 64.5242 43.3918 63.1908 41.4338 61.2329C39.4759 59.275 38.1425 56.7804 37.6023 54.0646C37.0621 51.3489 37.3394 48.534 38.399 45.9758C39.4586 43.4176 41.2531 41.2311 43.5554 39.6928C45.8576 38.1545 48.5644 37.3334 51.3333 37.3334C55.0454 37.3365 58.6046 38.8124 61.2294 41.4373C63.8543 44.0621 65.3302 47.6213 65.3333 51.3334Z"/>
</mask>
<path d="M28 46.6667V53.6667C27.9991 53.9759 27.8759 54.2721 27.6573 54.4907C27.4387 54.7093 27.1425 54.8325 26.8333 54.8334H19.8333C19.5242 54.8325 19.228 54.7093 19.0094 54.4907C18.7908 54.2721 18.6676 53.9759 18.6667 53.6667V46.6667C18.6676 46.3576 18.7908 46.0613 19.0094 45.8427C19.228 45.6241 19.5242 45.5009 19.8333 45.5H26.8333C27.1425 45.5009 27.4387 45.6241 27.6573 45.8427C27.8759 46.0613 27.9991 46.3576 28 46.6667ZM70 51.3334C70.0014 55.3241 68.7234 59.2102 66.3535 62.4211C63.9836 65.632 60.6467 67.9985 56.8328 69.1733C53.0188 70.348 48.9287 70.269 45.163 68.948C41.3972 67.6269 38.1542 65.1334 35.91 61.8334H5.83333C4.28641 61.8328 2.803 61.2181 1.70916 60.1242C0.615317 59.0304 0.000556593 57.547 0 56.0001V11.6667C0.000556593 10.1198 0.615317 8.63634 1.70916 7.5425C2.803 6.44866 4.28641 5.8339 5.83333 5.83334H9.33333V3.5C9.33333 2.57174 9.70208 1.68151 10.3585 1.02513C11.0148 0.368749 11.9051 0 12.8333 0C13.7616 0 14.6518 0.368749 15.3082 1.02513C15.9646 1.68151 16.3333 2.57174 16.3333 3.5V5.83334H25.6667V3.5C25.6667 2.57174 26.0354 1.68151 26.6918 1.02513C27.3482 0.368749 28.2384 0 29.1667 0C30.0949 0 30.9852 0.368749 31.6415 1.02513C32.2979 1.68151 32.6667 2.57174 32.6667 3.5V5.83334H42V3.5C42 2.57174 42.3688 1.68151 43.0251 1.02513C43.6815 0.368749 44.5717 0 45.5 0C46.4283 0 47.3185 0.368749 47.9749 1.02513C48.6312 1.68151 49 2.57174 49 3.5V5.83334H52.5C54.0469 5.8339 55.5303 6.44866 56.6242 7.5425C57.718 8.63634 58.3328 10.1198 58.3333 11.6667V34.0434C61.7772 35.438 64.7268 37.8282 66.805 40.9081C68.8833 43.9881 69.9957 47.6179 70 51.3334ZM44.3333 9.33334C44.3333 9.64276 44.4563 9.93951 44.675 10.1583C44.8938 10.3771 45.1906 10.5 45.5 10.5C45.8094 10.5 46.1062 10.3771 46.325 10.1583C46.5438 9.93951 46.6667 9.64276 46.6667 9.33334V3.5C46.6667 3.19058 46.5438 2.89384 46.325 2.67505C46.1062 2.45625 45.8094 2.33334 45.5 2.33334C45.1906 2.33334 44.8938 2.45625 44.675 2.67505C44.4563 2.89384 44.3333 3.19058 44.3333 3.5V9.33334ZM28 9.33334C28 9.64276 28.1229 9.93951 28.3417 10.1583C28.5605 10.3771 28.8572 10.5 29.1667 10.5C29.4761 10.5 29.7728 10.3771 29.9916 10.1583C30.2104 9.93951 30.3333 9.64276 30.3333 9.33334V3.5C30.3333 3.19058 30.2104 2.89384 29.9916 2.67505C29.7728 2.45625 29.4761 2.33334 29.1667 2.33334C28.8572 2.33334 28.5605 2.45625 28.3417 2.67505C28.1229 2.89384 28 3.19058 28 3.5V9.33334ZM11.6667 9.33334C11.6667 9.64276 11.7896 9.93951 12.0084 10.1583C12.2272 10.3771 12.5239 10.5 12.8333 10.5C13.1428 10.5 13.4395 10.3771 13.6583 10.1583C13.8771 9.93951 14 9.64276 14 9.33334V3.5C14 3.19058 13.8771 2.89384 13.6583 2.67505C13.4395 2.45625 13.1428 2.33334 12.8333 2.33334C12.5239 2.33334 12.2272 2.45625 12.0084 2.67505C11.7896 2.89384 11.6667 3.19058 11.6667 3.5V9.33334ZM32.6667 51.3334C32.672 48.502 33.3223 45.7091 34.5683 43.1667H31.5C31.1909 43.1658 30.8946 43.0426 30.676 42.824C30.4574 42.6054 30.3342 42.3092 30.3333 42V35C30.3342 34.6909 30.4574 34.3947 30.676 34.1761C30.8946 33.9575 31.1909 33.8343 31.5 33.8334H38.5C38.8091 33.8343 39.1054 33.9575 39.324 34.1761C39.5426 34.3947 39.6658 34.6909 39.6667 35V36.785C42.9713 34.1206 47.0883 32.6672 51.3333 32.6667C52.9091 32.6694 54.4779 32.8773 56 33.285V17.5H2.33333V56.0001C2.33604 56.9275 2.70566 57.8161 3.36145 58.4719C4.01724 59.1277 4.90591 59.4973 5.83333 59.5001H34.5683C33.3223 56.9576 32.672 54.1647 32.6667 51.3334ZM67.6667 51.3334C67.6667 48.103 66.7087 44.9451 64.914 42.2591C63.1193 39.5731 60.5684 37.4796 57.5838 36.2433C54.5993 35.0071 51.3152 34.6836 48.1469 35.3139C44.9785 35.9441 42.0682 37.4997 39.7839 39.784C37.4997 42.0682 35.9441 44.9785 35.3138 48.1469C34.6836 51.3153 35.0071 54.5994 36.2433 57.5839C37.4795 60.5684 39.573 63.1193 42.259 64.9141C44.945 66.7088 48.1029 67.6667 51.3333 67.6667C55.6637 67.662 59.8154 65.9396 62.8775 62.8776C65.9396 59.8155 67.6619 55.6638 67.6667 51.3334ZM43.1667 31.5H50.1667C50.4758 31.4991 50.772 31.3759 50.9906 31.1573C51.2092 30.9387 51.3324 30.6425 51.3333 30.3334V23.3334C51.3324 23.0242 51.2092 22.728 50.9906 22.5094C50.772 22.2908 50.4758 22.1676 50.1667 22.1667H43.1667C42.8575 22.1676 42.5613 22.2908 42.3427 22.5094C42.1241 22.728 42.0009 23.0242 42 23.3334V30.3334C42.0009 30.6425 42.1241 30.9387 42.3427 31.1573C42.5613 31.3759 42.8575 31.4991 43.1667 31.5ZM31.5 31.5H38.5C38.8091 31.4991 39.1054 31.3759 39.324 31.1573C39.5426 30.9387 39.6658 30.6425 39.6667 30.3334V23.3334C39.6658 23.0242 39.5426 22.728 39.324 22.5094C39.1054 22.2908 38.8091 22.1676 38.5 22.1667H31.5C31.1909 22.1676 30.8946 22.2908 30.676 22.5094C30.4574 22.728 30.3342 23.0242 30.3333 23.3334V30.3334C30.3342 30.6425 30.4574 30.9387 30.676 31.1573C30.8946 31.3759 31.1909 31.4991 31.5 31.5ZM26.8333 33.8334H19.8333C19.5242 33.8343 19.228 33.9575 19.0094 34.1761C18.7908 34.3947 18.6676 34.6909 18.6667 35V42C18.6676 42.3092 18.7908 42.6054 19.0094 42.824C19.228 43.0426 19.5242 43.1658 19.8333 43.1667H26.8333C27.1425 43.1658 27.4387 43.0426 27.6573 42.824C27.8759 42.6054 27.9991 42.3092 28 42V35C27.9991 34.6909 27.8759 34.3947 27.6573 34.1761C27.4387 33.9575 27.1425 33.8343 26.8333 33.8334ZM26.8333 22.1667H19.8333C19.5242 22.1676 19.228 22.2908 19.0094 22.5094C18.7908 22.728 18.6676 23.0242 18.6667 23.3334V30.3334C18.6676 30.6425 18.7908 30.9387 19.0094 31.1573C19.228 31.3759 19.5242 31.4991 19.8333 31.5H26.8333C27.1425 31.4991 27.4387 31.3759 27.6573 31.1573C27.8759 30.9387 27.9991 30.6425 28 30.3334V23.3334C27.9991 23.0242 27.8759 22.728 27.6573 22.5094C27.4387 22.2908 27.1425 22.1676 26.8333 22.1667ZM15.1667 45.5H8.16667C7.85752 45.5009 7.56129 45.6241 7.3427 45.8427C7.1241 46.0613 7.00089 46.3576 7 46.6667V53.6667C7.00089 53.9759 7.1241 54.2721 7.3427 54.4907C7.56129 54.7093 7.85752 54.8325 8.16667 54.8334H15.1667C15.4758 54.8325 15.772 54.7093 15.9906 54.4907C16.2092 54.2721 16.3324 53.9759 16.3333 53.6667V46.6667C16.3324 46.3576 16.2092 46.0613 15.9906 45.8427C15.772 45.6241 15.4758 45.5009 15.1667 45.5ZM15.1667 33.8334H8.16667C7.85752 33.8343 7.56129 33.9575 7.3427 34.1761C7.1241 34.3947 7.00089 34.6909 7 35V42C7.00089 42.3092 7.1241 42.6054 7.3427 42.824C7.56129 43.0426 7.85752 43.1658 8.16667 43.1667H15.1667C15.4758 43.1658 15.772 43.0426 15.9906 42.824C16.2092 42.6054 16.3324 42.3092 16.3333 42V35C16.3324 34.6909 16.2092 34.3947 15.9906 34.1761C15.772 33.9575 15.4758 33.8343 15.1667 33.8334ZM65.3333 51.3334C65.3333 54.1023 64.5122 56.8091 62.9739 59.1114C61.4356 61.4137 59.2491 63.2081 56.6909 64.2677C54.1327 65.3273 51.3178 65.6046 48.6021 65.0644C45.8863 64.5242 43.3918 63.1908 41.4338 61.2329C39.4759 59.275 38.1425 56.7804 37.6023 54.0646C37.0621 51.3489 37.3394 48.534 38.399 45.9758C39.4586 43.4176 41.2531 41.2311 43.5554 39.6928C45.8576 38.1545 48.5644 37.3334 51.3333 37.3334C55.0454 37.3365 58.6046 38.8124 61.2294 41.4373C63.8543 44.0621 65.3302 47.6213 65.3333 51.3334Z" stroke="#F9D8D9" stroke-width="4" mask="url(#path-1-inside-1_590_14562)"/>
<path d="M57 45.125V43H46V45.125H49.5C50.802 45.125 51.901 46.0154 52.315 47.25H46V49.375H52.315C52.1097 49.9947 51.7289 50.5316 51.2249 50.9121C50.7208 51.2926 50.1183 51.498 49.5 51.5H46V54.0649L51.586 60H54.414L48.414 53.625H49.5C50.652 53.6234 51.7682 53.1998 52.6604 52.4255C53.5526 51.6513 54.1663 50.5739 54.398 49.375H57V47.25H54.398C54.2447 46.4767 53.9288 45.7503 53.474 45.125H57Z" stroke="#F9D8D9"/>
</svg>
