<svg width="41" height="41" viewBox="0 0 41 41" fill="none" xmlns="http://www.w3.org/2000/svg">
<path d="M34.2096 6.7915H32.2513V2.87484C32.2513 2.35546 32.045 1.85735 31.6777 1.49009C31.3105 1.12283 30.8124 0.916504 30.293 0.916504C29.7736 0.916504 29.2755 1.12283 28.9082 1.49009C28.541 1.85735 28.3346 2.35546 28.3346 2.87484V6.7915H12.668V2.87484C12.668 2.35546 12.4616 1.85735 12.0944 1.49009C11.7271 1.12283 11.229 0.916504 10.7096 0.916504C10.1903 0.916504 9.69214 1.12283 9.32489 1.49009C8.95763 1.85735 8.7513 2.35546 8.7513 2.87484V6.7915H6.79297C5.23482 6.7915 3.74049 7.41048 2.63872 8.51225C1.53694 9.61403 0.917969 11.1084 0.917969 12.6665V14.6248H40.0846V12.6665C40.0846 11.1084 39.4657 9.61403 38.3639 8.51225C37.2621 7.41048 35.7678 6.7915 34.2096 6.7915Z" fill="#6A70CB"/>
<path d="M0.917969 34.2082C0.917969 35.7663 1.53694 37.2606 2.63872 38.3624C3.74049 39.4642 5.23482 40.0832 6.79297 40.0832H34.2096C35.7678 40.0832 37.2621 39.4642 38.3639 38.3624C39.4657 37.2606 40.0846 35.7663 40.0846 34.2082V18.5415H0.917969V34.2082Z" fill="#6A70CB"/>
<path d="M16.3636 35.8979L21.9796 25.5119H15.9496V23.2079H25.0756V25.2959L19.4416 35.8979H16.3636Z" fill="white"/>
</svg>
