<svg width="21" height="19" viewBox="0 0 21 19" fill="none" xmlns="http://www.w3.org/2000/svg">
<path d="M18.1605 6.76754C16.3505 6.76754 15.6105 5.48754 16.5105 3.91754C17.0305 3.00754 16.7205 1.84754 15.8105 1.32754L14.0805 0.337544C13.2905 -0.132456 12.2705 0.147544 11.8005 0.937544L11.6905 1.12754C10.7905 2.69754 9.31055 2.69754 8.40055 1.12754L8.29055 0.937544C8.18275 0.748525 8.03843 0.582833 7.866 0.450109C7.69357 0.317385 7.49646 0.22028 7.28615 0.164445C7.07584 0.10861 6.85652 0.0951599 6.64096 0.124877C6.4254 0.154594 6.21791 0.226885 6.03055 0.337544L4.30055 1.32754C3.39055 1.84754 3.08055 3.01754 3.60055 3.92754C4.51055 5.48754 3.77055 6.76754 1.96055 6.76754C0.920547 6.76754 0.0605469 7.61754 0.0605469 8.66754V10.4275C0.0605469 11.4675 0.910547 12.3275 1.96055 12.3275C3.77055 12.3275 4.51055 13.6075 3.60055 15.1775C3.08055 16.0875 3.39055 17.2475 4.30055 17.7675L6.03055 18.7575C6.82055 19.2275 7.84055 18.9475 8.31055 18.1575L8.42055 17.9675C9.32055 16.3975 10.8005 16.3975 11.7105 17.9675L11.8205 18.1575C12.2905 18.9475 13.3105 19.2275 14.1005 18.7575L15.8305 17.7675C16.7405 17.2475 17.0505 16.0775 16.5305 15.1775C15.6205 13.6075 16.3605 12.3275 18.1705 12.3275C19.2105 12.3275 20.0705 11.4775 20.0705 10.4275V8.66754C20.0653 8.16353 19.8621 7.68179 19.5047 7.32631C19.1474 6.97084 18.6646 6.77014 18.1605 6.76754ZM10.0605 12.7975C8.27055 12.7975 6.81055 11.3375 6.81055 9.54754C6.81055 7.75754 8.27055 6.29754 10.0605 6.29754C11.8505 6.29754 13.3105 7.75754 13.3105 9.54754C13.3105 11.3375 11.8505 12.7975 10.0605 12.7975Z" fill="white"/>
</svg>
