<svg width="27" height="22" viewBox="0 0 27 22" fill="none" xmlns="http://www.w3.org/2000/svg">
<path d="M13.3343 0.224365C10.6051 0.224365 8.38636 2.44312 8.38636 5.17228C8.38636 7.84937 10.4801 10.016 13.2093 10.1098C13.2926 10.0994 13.3759 10.0994 13.4384 10.1098H13.5114C14.7919 10.0671 16.0057 9.52799 16.896 8.60656C17.7864 7.68513 18.2834 6.45357 18.2822 5.17228C18.2822 2.44312 16.0634 0.224365 13.3343 0.224365ZM18.6259 12.8796C15.7197 10.9421 10.9801 10.9421 8.05303 12.8796C6.73011 13.765 6.00094 14.9629 6.00094 16.2442C6.00094 17.5254 6.73011 18.7129 8.04261 19.5879C9.50094 20.5671 11.4176 21.0567 13.3343 21.0567C15.2509 21.0567 17.1676 20.5671 18.6259 19.5879C19.9384 18.7025 20.6676 17.515 20.6676 16.2233C20.6572 14.9421 19.9384 13.7546 18.6259 12.8796ZM24.7822 5.78478C24.9489 7.80562 23.5114 9.57645 21.5218 9.81603H21.4697C21.4072 9.81603 21.3447 9.81603 21.2926 9.83687C20.2822 9.88895 19.3551 9.56603 18.6572 8.97228C19.7301 8.01395 20.3447 6.57645 20.2197 5.01395C20.1482 4.20145 19.8723 3.42026 19.4176 2.74312C19.9634 2.47757 20.5657 2.34881 21.1723 2.36793C21.779 2.38705 22.372 2.55348 22.9 2.85286C23.428 3.15224 23.8753 3.57558 24.2032 4.08637C24.5311 4.59716 24.7298 5.18006 24.7822 5.78478Z" fill="#F5F5F5"/>
<path d="M26.8636 15.4225C26.7802 16.4329 26.1344 17.3079 25.0511 17.9016C24.0094 18.4745 22.6969 18.7454 21.3948 18.7141C22.1448 18.037 22.5823 17.1933 22.6657 16.2975C22.7698 15.0058 22.1552 13.7662 20.9261 12.7766C20.2282 12.2245 19.4157 11.787 18.5302 11.4641C20.8323 10.7975 23.7282 11.2454 25.5094 12.6829C26.4677 13.4537 26.9573 14.4225 26.8636 15.4225Z" fill="#F5F5F5"/>
<path d="M13.5407 0.224365C16.2698 0.224365 18.4886 2.44312 18.4886 5.17228C18.4886 7.84937 16.3948 10.016 13.6657 10.1098C13.5823 10.0994 13.499 10.0994 13.4365 10.1098H13.3636C12.083 10.0671 10.8692 9.52799 9.9789 8.60656C9.08857 7.68513 8.59149 6.45357 8.59274 5.17228C8.59274 2.44312 10.8115 0.224365 13.5407 0.224365ZM8.24899 12.8796C11.1552 10.9421 15.8948 10.9421 18.8219 12.8796C20.1448 13.765 20.874 14.9629 20.874 16.2442C20.874 17.5254 20.1448 18.7129 18.8323 19.5879C17.374 20.5671 15.4573 21.0567 13.5407 21.0567C11.624 21.0567 9.70732 20.5671 8.24899 19.5879C6.93649 18.7025 6.20732 17.515 6.20732 16.2233C6.21774 14.9421 6.93649 13.7546 8.24899 12.8796ZM2.09274 5.78478C1.92607 7.80562 3.36357 9.57645 5.35316 9.81603H5.40524C5.46774 9.81603 5.53024 9.81603 5.58233 9.83687C6.59274 9.88895 7.51982 9.56603 8.21774 8.97228C7.14482 8.01395 6.53024 6.57645 6.65524 5.01395C6.72672 4.20145 7.00264 3.42026 7.45732 2.74312C6.9115 2.47757 6.30927 2.34881 5.70259 2.36793C5.0959 2.38705 4.50298 2.55348 3.97496 2.85286C3.44694 3.15224 2.99968 3.57558 2.67177 4.08637C2.34386 4.59716 2.14513 5.18006 2.09274 5.78478Z" fill="#F5F5F5"/>
<path d="M0.0113604 15.4225C0.0946937 16.4329 0.740529 17.3079 1.82386 17.9016C2.86553 18.4745 4.17803 18.7454 5.48011 18.7141C4.73011 18.037 4.29261 17.1933 4.20928 16.2975C4.10511 15.0058 4.71969 13.7662 5.94886 12.7766C6.64678 12.2245 7.45928 11.787 8.34469 11.4641C6.04261 10.7975 3.14678 11.2454 1.36553 12.6829C0.407195 13.4537 -0.0823896 14.4225 0.0113604 15.4225Z" fill="#F5F5F5"/>
</svg>
