<svg width="41" height="45" viewBox="0 0 41 45" fill="none" xmlns="http://www.w3.org/2000/svg">
<path d="M34.7923 6.20825H32.7507V2.12492C32.7507 1.58343 32.5355 1.06413 32.1527 0.681242C31.7698 0.298355 31.2505 0.083252 30.709 0.083252C30.1675 0.083252 29.6482 0.298355 29.2653 0.681242C28.8824 1.06413 28.6673 1.58343 28.6673 2.12492V6.20825H12.334V2.12492C12.334 1.58343 12.1189 1.06413 11.736 0.681242C11.3531 0.298355 10.8338 0.083252 10.2923 0.083252C9.75083 0.083252 9.23153 0.298355 8.84864 0.681242C8.46576 1.06413 8.25065 1.58343 8.25065 2.12492V6.20825H6.20898C4.58453 6.20825 3.02662 6.85356 1.87796 8.00222C0.729295 9.15088 0.0839844 10.7088 0.0839844 12.3333V14.3749H40.9173V12.3333C40.9173 10.7088 40.272 9.15088 39.1233 8.00222C37.9747 6.85356 36.4168 6.20825 34.7923 6.20825Z" fill="#FFBA00"/>
<path d="M0.0839844 34.7916C0.0839844 36.416 0.729295 37.974 1.87796 39.1226C3.02662 40.2713 4.58453 40.9166 6.20898 40.9166H34.7923C36.4168 40.9166 37.9747 40.2713 39.1233 39.1226C40.272 37.974 40.9173 36.416 40.9173 34.7916V18.4583H0.0839844V34.7916Z" fill="#FFBA00"/>
<path d="M16.9035 36V33.714H19.7475V26.424L17.5695 27.702L16.5075 25.668L20.5575 23.31H22.5375V33.714H25.2015V36H16.9035Z" fill="white"/>
</svg>
