<svg width="16" height="16" viewBox="0 0 16 16" fill="none" xmlns="http://www.w3.org/2000/svg">
<path d="M4.11379 11.9999C4.38834 11.2231 5.12917 10.6666 5.99998 10.6666C6.87078 10.6666 7.61165 11.2231 7.88618 11.9999H14.6666V13.3333H7.88618C7.61165 14.1101 6.87078 14.6666 5.99998 14.6666C5.12917 14.6666 4.38834 14.1101 4.11379 13.3333H1.33331V11.9999H4.11379ZM8.11378 7.33325C8.38831 6.55646 9.12918 5.99992 9.99998 5.99992C10.8708 5.99992 11.6116 6.55646 11.8862 7.33325H14.6666V8.66658H11.8862C11.6116 9.44339 10.8708 9.99992 9.99998 9.99992C9.12918 9.99992 8.38831 9.44339 8.11378 8.66658H1.33331V7.33325H8.11378ZM4.11379 2.66659C4.38834 1.88979 5.12917 1.33325 5.99998 1.33325C6.87078 1.33325 7.61165 1.88979 7.88618 2.66659H14.6666V3.99992H7.88618C7.61165 4.77671 6.87078 5.33325 5.99998 5.33325C5.12917 5.33325 4.38834 4.77671 4.11379 3.99992H1.33331V2.66659H4.11379ZM5.99998 3.99992C6.36817 3.99992 6.66665 3.70144 6.66665 3.33325C6.66665 2.96507 6.36817 2.66659 5.99998 2.66659C5.63179 2.66659 5.33331 2.96507 5.33331 3.33325C5.33331 3.70144 5.63179 3.99992 5.99998 3.99992ZM9.99998 8.66658C10.3682 8.66658 10.6666 8.36812 10.6666 7.99992C10.6666 7.63172 10.3682 7.33325 9.99998 7.33325C9.63178 7.33325 9.33331 7.63172 9.33331 7.99992C9.33331 8.36812 9.63178 8.66658 9.99998 8.66658ZM5.99998 13.3333C6.36817 13.3333 6.66665 13.0348 6.66665 12.6666C6.66665 12.2984 6.36817 11.9999 5.99998 11.9999C5.63179 11.9999 5.33331 12.2984 5.33331 12.6666C5.33331 13.0348 5.63179 13.3333 5.99998 13.3333Z" fill="#0A2540"/>
</svg>
