<svg width="53" height="63" viewBox="0 0 53 63" fill="none" xmlns="http://www.w3.org/2000/svg">
<path d="M49.4845 25.1775H3.57544C2.55612 25.1775 1.72974 24.3511 1.72974 23.3318V21.6927C1.72974 20.6734 2.55612 19.847 3.57544 19.847H37.8783H49.4845C50.5039 19.847 51.3302 20.6734 51.3302 21.6927V23.3318C51.3302 24.3511 50.5039 25.1775 49.4845 25.1775Z" stroke="white" stroke-width="2" stroke-miterlimit="10" stroke-linecap="round" stroke-linejoin="round"/>
<path d="M10.5187 32.9918L3.57544 25.1776H49.4845L32.0759 44.6536H27.9462" stroke="white" stroke-width="2" stroke-miterlimit="10" stroke-linecap="round" stroke-linejoin="round"/>
<path d="M23.6397 44.6536H20.8811L13.3796 36.2114" stroke="white" stroke-width="2" stroke-miterlimit="10" stroke-linecap="round" stroke-linejoin="round"/>
<path d="M32.0626 55.2649L32.0572 59.6597C32.0563 60.2392 31.8622 60.7601 31.5429 61.1729C30.7858 62.1517 29.393 62.3582 28.3422 61.7096L22.5698 58.1461C21.5139 57.2764 20.8809 56.8633 20.8809 55.7954V44.6536" stroke="white" stroke-width="2" stroke-miterlimit="10" stroke-linecap="round" stroke-linejoin="round"/>
<path d="M32.076 44.6537L32.0681 50.9585" stroke="white" stroke-width="2" stroke-miterlimit="10" stroke-linecap="round" stroke-linejoin="round"/>
<path d="M15.7941 19.8472C14.6619 17.9679 14.0107 15.7659 14.0107 13.4119C14.0107 6.51442 19.6024 0.922683 26.5 0.922683C30.8042 0.922683 34.5999 3.1 36.8457 6.4134" stroke="white" stroke-width="2" stroke-miterlimit="10" stroke-linecap="round" stroke-linejoin="round"/>
<path d="M38.6105 10.347C38.858 11.3276 38.9894 12.3544 38.9894 13.4119C38.9894 15.7659 38.3382 17.9679 37.2061 19.8472" stroke="white" stroke-width="2" stroke-miterlimit="10" stroke-linecap="round" stroke-linejoin="round"/>
<path d="M22.2493 16.6729C22.2493 18.4738 24.1224 19.9336 26.4329 19.9336C28.7434 19.9336 30.6165 18.4738 30.6165 16.6729C30.6165 14.8719 28.7434 13.4121 26.4329 13.4121C24.1224 13.4121 22.2493 11.9523 22.2493 10.1514C22.2493 8.35045 24.1224 6.89063 26.4329 6.89063C28.7434 6.89063 30.6165 8.35045 30.6165 10.1514" stroke="white" stroke-width="2" stroke-miterlimit="10" stroke-linecap="round" stroke-linejoin="round"/>
<path d="M26.4944 19.9336V4.61426" stroke="white" stroke-width="2" stroke-miterlimit="10" stroke-linecap="round" stroke-linejoin="round"/>
</svg>
