<svg width="55" height="55" viewBox="0 0 55 55" fill="none" xmlns="http://www.w3.org/2000/svg">
<path d="M49.452 36.3998L39.2635 41.4712C39.1938 39.7059 37.746 38.2879 35.964 38.2879C33.147 38.0522 29.9598 39.0888 26.8421 36.4675C25.1394 35.0354 22.9755 34.2467 20.7498 34.2467H13.8911C13.6404 31.7226 11.5058 29.7451 8.91687 29.7451H0.978067C0.505195 29.7451 0.122559 30.1278 0.122559 30.6006V52.177C0.122559 52.6498 0.505195 53.0325 0.978067 53.0325H8.91687C11.5058 53.0325 13.6405 51.0549 13.8911 48.5308H14.015C16.876 48.5308 17.8256 49.3861 30.8809 53.5237C34.1545 54.5992 37.7941 54.0513 40.6159 52.0182L53.3269 42.7961C55.0426 41.5504 55.3905 39.1368 54.0897 37.4607C52.9986 36.0514 51.047 35.6069 49.452 36.3998ZM12.2053 48.033C12.2053 49.846 10.7298 51.3216 8.91676 51.3216H1.83357V31.4562H8.91676C10.7297 31.4562 12.2053 32.9317 12.2053 34.7447V48.033ZM52.3227 41.411L39.6142 50.6314C37.2481 52.3357 34.1836 52.8078 31.4155 51.898C18.4317 47.8046 17.2923 46.8199 14.0149 46.8199H13.9163V35.9579H20.7497C22.5735 35.9579 24.3457 36.6037 25.7409 37.7776C29.464 40.9076 33.2581 39.7487 35.9639 39.9992C36.847 39.9992 37.5655 40.7177 37.5655 41.6008C37.5655 42.484 36.847 43.2025 35.9639 43.2025H25.1996C24.7267 43.2025 24.344 43.5851 24.344 44.058C24.344 44.5309 24.7267 44.9135 25.1996 44.9135H35.9639C36.9419 44.9135 37.8132 44.4791 38.4202 43.8027L50.2138 37.9323C51.081 37.5003 52.1421 37.7418 52.7378 38.5088C53.444 39.4205 53.2563 40.7333 52.3227 41.411Z" fill="white"/>
<path d="M49.9439 12.9335C49.2446 12.2935 48.9296 11.3201 49.1234 10.3819C49.6428 7.86299 47.9042 5.39937 45.276 5.10246C44.3436 4.99804 43.5223 4.40561 43.128 3.55601C43.1238 3.54764 43.1196 3.5385 43.1163 3.52927C42.0442 1.1662 39.1716 0.232166 36.9112 1.51747C36.0866 1.98615 35.0631 1.98701 34.2301 1.51328C32.0089 0.248924 29.12 1.12527 28.0241 3.53603C27.6323 4.39659 26.8068 4.99643 25.8461 5.10429C23.292 5.39443 21.4915 7.8096 22.0221 10.3937C22.2109 11.3203 21.8959 12.2927 21.1841 12.9428C19.2919 14.672 19.2461 17.6873 21.1982 19.4687C21.8958 20.107 22.2108 21.0795 22.0195 22.0178C21.4998 24.5481 23.2613 27.0002 25.8652 27.2913C26.806 27.3957 27.633 27.9964 28.0308 28.8695C29.0966 31.2155 31.9615 32.1673 34.2376 30.8731C35.0622 30.4044 36.0866 30.4035 36.9145 30.8748C39.1668 32.1574 42.0432 31.2265 43.1163 28.8613C43.5073 27.9974 44.3361 27.3958 45.2852 27.2897C47.8681 27.0019 49.6389 24.5525 49.1209 22.0219L49.1185 22.0094C49.1185 22.0085 49.1176 22.0069 49.1176 22.0052C48.9279 21.0794 49.2437 20.1069 49.9556 19.4569C51.846 17.7293 51.8948 14.7133 49.9439 12.9335ZM48.7868 18.2062C47.6471 19.2488 47.1317 20.8363 47.4416 22.3494C47.4588 22.4351 47.4613 22.4475 47.4441 22.3619C47.7618 23.9098 46.691 25.4125 45.088 25.5894C43.5491 25.7615 42.1964 26.7449 41.5573 28.1543C40.9055 29.5953 39.1567 30.1806 37.7567 29.3858C36.4124 28.6197 34.7389 28.6205 33.3829 29.39C32.0166 30.169 30.2566 29.6275 29.5823 28.1501C28.9431 26.7424 27.5913 25.7615 26.0432 25.5886C24.4705 25.4148 23.3731 23.9331 23.6979 22.3486C24.0071 20.8356 23.4916 19.249 22.3386 18.1937C21.1835 17.139 21.141 15.2992 22.3528 14.1935C23.4916 13.1508 24.0071 11.5642 23.6938 10.0328C23.3846 8.5189 24.4068 6.98932 26.059 6.80284C27.5921 6.63075 28.9422 5.64988 29.5881 4.23041C30.2403 2.79772 31.9811 2.20411 33.392 3.00472C34.738 3.77086 36.4106 3.77086 37.7599 3.00301C39.1367 2.21915 40.8818 2.77935 41.5463 4.21279C41.5505 4.22117 41.5538 4.2303 41.558 4.23954C42.1963 5.6473 43.5473 6.62989 45.1038 6.80531C46.6759 6.98223 47.7718 8.46208 47.4457 10.0461C47.1324 11.5609 47.647 13.1508 48.8008 14.206C49.9632 15.2688 49.991 17.106 48.7868 18.2062Z" fill="white"/>
<path d="M41.1597 12.9945L39.1219 12.6962C38.9039 12.6644 38.7159 12.5274 38.619 12.3311L37.7033 10.4772C36.8329 8.71288 34.3106 8.70729 33.4365 10.4772L32.5209 12.3311C32.424 12.5274 32.236 12.6644 32.0188 12.6962L29.9794 12.9945C28.0326 13.2811 27.2506 15.6784 28.6652 17.0549L30.1373 18.487C30.2952 18.6407 30.3679 18.8621 30.3303 19.0793L29.9794 21.112C29.644 23.0519 31.6822 24.5403 33.4307 23.6235L35.2587 22.6627C35.4551 22.5607 35.6865 22.5607 35.8811 22.6635L37.7091 23.6227C39.449 24.5382 41.4958 23.0566 41.1596 21.112L40.8095 19.0793C40.7719 18.8621 40.8447 18.6407 41.0026 18.487L42.4738 17.0549C43.8841 15.6843 43.115 13.2819 41.1597 12.9945ZM41.2808 15.8284L39.8095 17.2604C39.2473 17.8076 38.9908 18.5963 39.1237 19.37L39.4737 21.4027C39.5681 21.9511 38.9937 22.366 38.5046 22.1078L36.6766 21.1487C35.9839 20.7853 35.1576 20.7853 34.4634 21.1478L32.6354 22.1077C32.1492 22.3656 31.5707 21.9534 31.6654 21.4026L32.0163 19.3699C32.1492 18.5962 31.8927 17.8075 31.3304 17.2603L29.8583 15.8283C29.4605 15.4404 29.6797 14.7673 30.2276 14.687L32.267 14.3887C33.0407 14.2751 33.7091 13.7889 34.055 13.0887L34.9706 11.2348C35.2172 10.7355 35.9245 10.739 36.1696 11.234L37.0852 13.0878C37.4311 13.7888 38.0995 14.2751 38.874 14.3887L40.9118 14.687C41.4609 14.7674 41.6795 15.4409 41.2808 15.8284Z" fill="white"/>
</svg>
