<svg width="53" height="53" viewBox="0 0 53 53" fill="none" xmlns="http://www.w3.org/2000/svg">
<path d="M51.4219 0.71875H18.7656C18.6528 0.718686 18.541 0.74087 18.4367 0.784035C18.3324 0.8272 18.2376 0.890498 18.1578 0.970312C18.078 1.05012 18.0147 1.14489 17.9715 1.24918C17.9284 1.35347 17.9062 1.46525 17.9062 1.57813V5.01562C17.9062 5.1285 17.9284 5.24028 17.9715 5.34457C18.0147 5.44886 18.078 5.54363 18.1578 5.62344C18.2376 5.70325 18.3324 5.76655 18.4367 5.80972C18.541 5.85288 18.6528 5.87506 18.7656 5.875H20.4844V8.45312C20.4844 8.68105 20.5749 8.89963 20.7361 9.06079C20.8972 9.22196 21.1158 9.3125 21.3438 9.3125C21.5717 9.3125 21.7903 9.22196 21.9514 9.06079C22.1126 8.89963 22.2031 8.68105 22.2031 8.45312V5.875H47.9844V23.9219C47.9842 24.1497 47.8936 24.3682 47.7325 24.5294C47.5714 24.6905 47.3529 24.7811 47.125 24.7812H23.0625C22.8346 24.7811 22.6161 24.6905 22.455 24.5294C22.2939 24.3682 22.2033 24.1497 22.2031 23.9219V18.7656C22.2031 18.5377 22.1126 18.3191 21.9514 18.158C21.7903 17.9968 21.5717 17.9062 21.3438 17.9062C21.1158 17.9062 20.8972 17.9968 20.7361 18.158C20.5749 18.3191 20.4844 18.5377 20.4844 18.7656V23.9219C20.4851 24.6054 20.757 25.2607 21.2403 25.7441C21.7236 26.2274 22.379 26.4993 23.0625 26.5H34.2344V30.0959C33.661 30.2986 33.1777 30.6975 32.87 31.2221C32.5623 31.7466 32.4499 32.3631 32.5528 32.9625C32.6556 33.5619 32.967 34.1057 33.432 34.4977C33.897 34.8897 34.4856 35.1047 35.0938 35.1047C35.7019 35.1047 36.2905 34.8897 36.7555 34.4977C37.2205 34.1057 37.5319 33.5619 37.6347 32.9625C37.7376 32.3631 37.6252 31.7466 37.3175 31.2221C37.0098 30.6975 36.5265 30.2986 35.9531 30.0959V26.5H47.125C47.8085 26.4993 48.4639 26.2274 48.9472 25.7441C49.4305 25.2607 49.7024 24.6054 49.7031 23.9219V5.875H51.4219C51.5347 5.87506 51.6465 5.85288 51.7508 5.80972C51.8551 5.76655 51.9499 5.70325 52.0297 5.62344C52.1095 5.54363 52.1728 5.44886 52.216 5.34457C52.2591 5.24028 52.2813 5.1285 52.2812 5.01562V1.57813C52.2813 1.46525 52.2591 1.35347 52.216 1.24918C52.1728 1.14489 52.1095 1.05012 52.0297 0.970312C51.9499 0.890498 51.8551 0.8272 51.7508 0.784035C51.6465 0.74087 51.5347 0.718686 51.4219 0.71875ZM35.0938 33.375C34.9238 33.375 34.7576 33.3246 34.6163 33.2302C34.475 33.1357 34.3648 33.0015 34.2998 32.8445C34.2347 32.6875 34.2177 32.5147 34.2509 32.348C34.284 32.1813 34.3659 32.0281 34.4861 31.908C34.6063 31.7878 34.7594 31.7059 34.9261 31.6728C35.0928 31.6396 35.2656 31.6566 35.4226 31.7217C35.5796 31.7867 35.7139 31.8969 35.8083 32.0382C35.9027 32.1795 35.9531 32.3457 35.9531 32.5156C35.953 32.7435 35.8624 32.962 35.7012 33.1231C35.5401 33.2843 35.3216 33.3748 35.0938 33.375ZM50.5625 4.15625H19.625V2.4375H50.5625V4.15625ZM30.2141 43.8177C30.9157 43.0891 31.3876 42.1702 31.5709 41.1754C31.7542 40.1806 31.6408 39.1539 31.2449 38.2231C30.8491 37.2922 30.1881 36.4984 29.3444 35.9404C28.5007 35.3824 27.5115 35.0848 26.5 35.0848C25.4885 35.0848 24.4993 35.3824 23.6556 35.9404C22.8119 36.4984 22.1509 37.2922 21.7551 38.2231C21.3592 39.1539 21.2458 40.1806 21.4291 41.1754C21.6124 42.1702 22.0843 43.0891 22.7859 43.8177C21.6456 44.0763 20.6269 44.7144 19.8966 45.6275C19.1662 46.5405 18.7675 47.6745 18.7656 48.8438V51.4219C18.7656 51.6498 18.8562 51.8684 19.0173 52.0295C19.1785 52.1907 19.3971 52.2812 19.625 52.2812C19.8529 52.2812 20.0715 52.1907 20.2327 52.0295C20.3938 51.8684 20.4844 51.6498 20.4844 51.4219V48.8438C20.4853 47.9323 20.8477 47.0585 21.4922 46.4141C22.1367 45.7696 23.0105 45.4072 23.9219 45.4062H29.0781C29.9895 45.4072 30.8633 45.7696 31.5078 46.4141C32.1523 47.0585 32.5147 47.9323 32.5156 48.8438V51.4219C32.5156 51.6498 32.6062 51.8684 32.7673 52.0295C32.9285 52.1907 33.1471 52.2812 33.375 52.2812C33.6029 52.2812 33.8215 52.1907 33.9827 52.0295C34.1438 51.8684 34.2344 51.6498 34.2344 51.4219V48.8438C34.2325 47.6745 33.8338 46.5405 33.1034 45.6275C32.3731 44.7144 31.3544 44.0763 30.2141 43.8177ZM26.5 36.8125C27.1799 36.8125 27.8445 37.0141 28.4098 37.3918C28.9751 37.7695 29.4157 38.3064 29.6758 38.9345C29.936 39.5626 30.0041 40.2538 29.8715 40.9206C29.7388 41.5874 29.4114 42.1999 28.9307 42.6807C28.4499 43.1614 27.8374 43.4888 27.1706 43.6214C26.5038 43.7541 25.8126 43.686 25.1845 43.4258C24.5564 43.1657 24.0195 42.7251 23.6418 42.1598C23.2641 41.5945 23.0625 40.9299 23.0625 40.25C23.0634 39.3386 23.4259 38.4648 24.0703 37.8203C24.7148 37.1759 25.5886 36.8134 26.5 36.8125ZM13.0266 43.8177C13.7282 43.0891 14.2001 42.1702 14.3834 41.1754C14.5667 40.1806 14.4533 39.1539 14.0574 38.2231C13.6616 37.2922 13.0006 36.4984 12.1569 35.9404C11.3132 35.3824 10.324 35.0848 9.3125 35.0848C8.30096 35.0848 7.31177 35.3824 6.46807 35.9404C5.62437 36.4984 4.96344 37.2922 4.56755 38.2231C4.17166 39.1539 4.05831 40.1806 4.24161 41.1754C4.42491 42.1702 4.89676 43.0891 5.59842 43.8177C4.45814 44.0763 3.43944 44.7144 2.70908 45.6275C1.97872 46.5405 1.57997 47.6745 1.57812 48.8438V51.4219C1.57812 51.6498 1.66867 51.8684 1.82983 52.0295C1.99099 52.1907 2.20958 52.2812 2.4375 52.2812C2.66542 52.2812 2.88401 52.1907 3.04517 52.0295C3.20633 51.8684 3.29688 51.6498 3.29688 51.4219V48.8438C3.29779 47.9323 3.66024 47.0585 4.3047 46.4141C4.94916 45.7696 5.82297 45.4072 6.73438 45.4062H11.8906C12.802 45.4072 13.6758 45.7696 14.3203 46.4141C14.9648 47.0585 15.3272 47.9323 15.3281 48.8438V51.4219C15.3281 51.6498 15.4187 51.8684 15.5798 52.0295C15.741 52.1907 15.9596 52.2812 16.1875 52.2812C16.4154 52.2812 16.634 52.1907 16.7952 52.0295C16.9563 51.8684 17.0469 51.6498 17.0469 51.4219V48.8438C17.045 47.6745 16.6463 46.5405 15.9159 45.6275C15.1856 44.7144 14.1669 44.0763 13.0266 43.8177ZM9.3125 36.8125C9.99237 36.8125 10.657 37.0141 11.2223 37.3918C11.7876 37.7695 12.2282 38.3064 12.4883 38.9345C12.7485 39.5626 12.8166 40.2538 12.6839 40.9206C12.5513 41.5874 12.2239 42.1999 11.7432 42.6807C11.2624 43.1614 10.6499 43.4888 9.98312 43.6214C9.31631 43.7541 8.62515 43.686 7.99703 43.4258C7.3689 43.1657 6.83204 42.7251 6.45432 42.1598C6.07661 41.5945 5.875 40.9299 5.875 40.25C5.87591 39.3386 6.23837 38.4648 6.88283 37.8203C7.52729 37.1759 8.4011 36.8134 9.3125 36.8125ZM47.4016 43.8177C48.1032 43.0891 48.5751 42.1702 48.7584 41.1754C48.9417 40.1806 48.8283 39.1539 48.4324 38.2231C48.0366 37.2922 47.3756 36.4984 46.5319 35.9404C45.6882 35.3824 44.699 35.0848 43.6875 35.0848C42.676 35.0848 41.6868 35.3824 40.8431 35.9404C39.9994 36.4984 39.3384 37.2922 38.9426 38.2231C38.5467 39.1539 38.4333 40.1806 38.6166 41.1754C38.7999 42.1702 39.2718 43.0891 39.9734 43.8177C38.8331 44.0763 37.8144 44.7144 37.0841 45.6275C36.3537 46.5405 35.955 47.6745 35.9531 48.8438V51.4219C35.9531 51.6498 36.0437 51.8684 36.2048 52.0295C36.366 52.1907 36.5846 52.2812 36.8125 52.2812C37.0404 52.2812 37.259 52.1907 37.4202 52.0295C37.5813 51.8684 37.6719 51.6498 37.6719 51.4219V48.8438C37.6728 47.9323 38.0352 47.0585 38.6797 46.4141C39.3242 45.7696 40.198 45.4072 41.1094 45.4062H46.2656C47.177 45.4072 48.0508 45.7696 48.6953 46.4141C49.3398 47.0585 49.7022 47.9323 49.7031 48.8438V51.4219C49.7031 51.6498 49.7937 51.8684 49.9548 52.0295C50.116 52.1907 50.3346 52.2812 50.5625 52.2812C50.7904 52.2812 51.009 52.1907 51.1702 52.0295C51.3313 51.8684 51.4219 51.6498 51.4219 51.4219V48.8438C51.42 47.6745 51.0213 46.5405 50.2909 45.6275C49.5606 44.7144 48.5419 44.0763 47.4016 43.8177ZM43.6875 36.8125C44.3674 36.8125 45.032 37.0141 45.5973 37.3918C46.1626 37.7695 46.6032 38.3064 46.8633 38.9345C47.1235 39.5626 47.1916 40.2538 47.0589 40.9206C46.9263 41.5874 46.5989 42.1999 46.1182 42.6807C45.6374 43.1614 45.0249 43.4888 44.3581 43.6214C43.6913 43.7541 43.0001 43.686 42.372 43.4258C41.7439 43.1657 41.207 42.7251 40.8293 42.1598C40.4516 41.5945 40.25 40.9299 40.25 40.25C40.2509 39.3386 40.6134 38.4648 41.2578 37.8203C41.9023 37.1759 42.7761 36.8134 43.6875 36.8125ZM4.15625 26.5V30.7969C4.15625 31.0248 4.24679 31.2434 4.40796 31.4045C4.56912 31.5657 4.7877 31.6562 5.01562 31.6562C5.24355 31.6562 5.46213 31.5657 5.62329 31.4045C5.78446 31.2434 5.875 31.0248 5.875 30.7969V18.7656C5.875 18.5377 5.78446 18.3191 5.62329 18.158C5.46213 17.9968 5.24355 17.9062 5.01562 17.9062C4.7877 17.9062 4.56912 17.9968 4.40796 18.158C4.24679 18.3191 4.15625 18.5377 4.15625 18.7656V24.7812H3.29688C3.069 24.7811 2.8505 24.6905 2.68937 24.5294C2.52824 24.3682 2.43765 24.1497 2.4375 23.9219V16.1875C2.43841 15.2761 2.80087 14.4023 3.44533 13.7578C4.08978 13.1134 4.9636 12.7509 5.875 12.75H22.2031C22.431 12.75 22.6496 12.8405 22.8108 13.0017C22.972 13.1629 23.0625 13.3815 23.0625 13.6094C23.0625 13.8373 22.972 14.0559 22.8108 14.217C22.6496 14.3782 22.431 14.4688 22.2031 14.4688H15.3281C15.2153 14.4687 15.1035 14.4909 14.9992 14.534C14.8949 14.5772 14.8001 14.6405 14.7203 14.7203C14.6405 14.8001 14.5772 14.8949 14.534 14.9992C14.4909 15.1035 14.4687 15.2153 14.4688 15.3281V30.7969C14.4688 31.0248 14.5593 31.2434 14.7205 31.4045C14.8816 31.5657 15.1002 31.6562 15.3281 31.6562C15.556 31.6562 15.7746 31.5657 15.9358 31.4045C16.097 31.2434 16.1875 31.0248 16.1875 30.7969V16.1875H22.2031C22.8869 16.1875 23.5426 15.9159 24.0261 15.4324C24.5096 14.9489 24.7812 14.2931 24.7812 13.6094C24.7812 12.9256 24.5096 12.2699 24.0261 11.7864C23.5426 11.3029 22.8869 11.0312 22.2031 11.0312H14.0043C14.6711 10.2904 15.1089 9.37216 15.2647 8.38766C15.4205 7.40316 15.2877 6.3946 14.8822 5.48405C14.4767 4.5735 13.816 3.8 12.98 3.25717C12.144 2.71433 11.1686 2.42543 10.1719 2.42543C9.17512 2.42543 8.19973 2.71433 7.36376 3.25717C6.52779 3.8 5.86707 4.5735 5.46158 5.48405C5.05609 6.3946 4.9232 7.40316 5.07901 8.38766C5.23481 9.37216 5.67263 10.2904 6.33947 11.0312H5.875C4.50794 11.0327 3.19729 11.5765 2.23063 12.5431C1.26397 13.5098 0.720244 14.8204 0.71875 16.1875V23.9219C0.719496 24.6054 0.991359 25.2607 1.47469 25.7441C1.95802 26.2274 2.61334 26.4993 3.29688 26.5H4.15625ZM6.73438 7.59375C6.73438 6.91388 6.93598 6.24927 7.3137 5.68398C7.69142 5.11868 8.22828 4.67809 8.8564 4.41791C9.48452 4.15774 10.1757 4.08966 10.8425 4.2223C11.5093 4.35494 12.1218 4.68233 12.6026 5.16307C13.0833 5.64381 13.4107 6.25632 13.5433 6.92313C13.676 7.58994 13.6079 8.2811 13.3477 8.90922C13.0875 9.53735 12.6469 10.0742 12.0816 10.4519C11.5164 10.8296 10.8517 11.0312 10.1719 11.0312C9.26047 11.0303 8.38666 10.6679 7.7422 10.0234C7.09774 9.37897 6.73528 8.50515 6.73438 7.59375ZM10.1719 24.7812C10.2847 24.7812 10.3965 24.8034 10.5008 24.8465C10.6051 24.8897 10.6999 24.953 10.7797 25.0328C10.8595 25.1126 10.9228 25.2074 10.966 25.3117C11.0091 25.416 11.0313 25.5278 11.0312 25.6406V30.7969C11.0312 31.0248 10.9407 31.2434 10.7795 31.4045C10.6184 31.5657 10.3998 31.6562 10.1719 31.6562C9.94395 31.6562 9.72537 31.5657 9.56421 31.4045C9.40304 31.2434 9.3125 31.0248 9.3125 30.7969V25.6406C9.31244 25.5278 9.33462 25.416 9.37778 25.3117C9.42095 25.2074 9.48425 25.1126 9.56406 25.0328C9.64388 24.953 9.73864 24.8897 9.84293 24.8465C9.94722 24.8034 10.059 24.7812 10.1719 24.7812ZM44.5469 10.1719C44.5469 10.2847 44.5248 10.3965 44.4816 10.5008C44.4384 10.6051 44.3751 10.6999 44.2953 10.7797C44.2155 10.8595 44.1207 10.9228 44.0164 10.966C43.9122 11.0091 43.8004 11.0313 43.6875 11.0312H26.5C26.2721 11.0312 26.0535 10.9407 25.8923 10.7795C25.7312 10.6184 25.6406 10.3998 25.6406 10.1719C25.6406 9.94395 25.7312 9.72537 25.8923 9.56421C26.0535 9.40304 26.2721 9.3125 26.5 9.3125H43.6875C43.8004 9.31244 43.9122 9.33462 44.0164 9.37778C44.1207 9.42095 44.2155 9.48425 44.2953 9.56406C44.3751 9.64388 44.4384 9.73864 44.4816 9.84293C44.5248 9.94722 44.5469 10.059 44.5469 10.1719ZM44.5469 15.3281C44.5469 15.441 44.5248 15.5528 44.4816 15.6571C44.4384 15.7614 44.3751 15.8561 44.2953 15.9359C44.2155 16.0158 44.1207 16.0791 44.0164 16.1222C43.9122 16.1654 43.8004 16.1876 43.6875 16.1875H35.0938C34.8658 16.1875 34.6472 16.097 34.4861 15.9358C34.3249 15.7746 34.2344 15.556 34.2344 15.3281C34.2344 15.1002 34.3249 14.8816 34.4861 14.7205C34.6472 14.5593 34.8658 14.4688 35.0938 14.4688H43.6875C43.8004 14.4687 43.9122 14.4909 44.0164 14.534C44.1207 14.5772 44.2155 14.6405 44.2953 14.7203C44.3751 14.8001 44.4384 14.8949 44.4816 14.9992C44.5248 15.1035 44.5469 15.2153 44.5469 15.3281ZM25.6406 15.3281C25.6406 15.2153 25.6627 15.1035 25.7059 14.9992C25.7491 14.8949 25.8124 14.8001 25.8922 14.7203C25.972 14.6405 26.0668 14.5772 26.1711 14.534C26.2753 14.4909 26.3871 14.4687 26.5 14.4688H31.6562C31.8842 14.4688 32.1028 14.5593 32.2639 14.7205C32.4251 14.8816 32.5156 15.1002 32.5156 15.3281C32.5156 15.556 32.4251 15.7746 32.2639 15.9358C32.1028 16.097 31.8842 16.1875 31.6562 16.1875H26.5C26.3871 16.1876 26.2753 16.1654 26.1711 16.1222C26.0668 16.0791 25.972 16.0158 25.8922 15.9359C25.8124 15.8561 25.7491 15.7614 25.7059 15.6571C25.6627 15.5528 25.6406 15.441 25.6406 15.3281ZM25.6406 20.4844C25.6406 20.3715 25.6627 20.2597 25.7059 20.1554C25.7491 20.0511 25.8124 19.9564 25.8922 19.8766C25.972 19.7967 26.0668 19.7334 26.1711 19.6903C26.2753 19.6471 26.3871 19.6249 26.5 19.625H43.6875C43.9154 19.625 44.134 19.7155 44.2952 19.8767C44.4563 20.0379 44.5469 20.2565 44.5469 20.4844C44.5469 20.7123 44.4563 20.9309 44.2952 21.092C44.134 21.2532 43.9154 21.3438 43.6875 21.3438H26.5C26.3871 21.3438 26.2753 21.3216 26.1711 21.2785C26.0668 21.2353 25.972 21.172 25.8922 21.0922C25.8124 21.0124 25.7491 20.9176 25.7059 20.8133C25.6627 20.709 25.6406 20.5972 25.6406 20.4844Z" fill="white"/>
</svg>
