<svg width="55" height="55" viewBox="0 0 55 55" fill="none" xmlns="http://www.w3.org/2000/svg">
<path d="M55 23.0645H53.0066L50.0356 24.6278C49.7012 24.4432 49.3534 24.2869 48.9783 24.1929L45.2411 23.2577V22.8328C46.8944 21.6789 47.9032 19.7726 47.9032 17.7419V16.1912C47.9032 12.7451 45.203 9.86116 41.8841 9.76066C41.7156 9.75633 41.5497 9.7624 41.383 9.77063L42.3519 7.50221L37.6544 2.80596L34.8853 4.60831C33.8331 4.01576 32.7204 3.55445 31.5647 3.23089L30.8808 0H24.1201L23.4362 3.23175C22.2805 3.55532 21.1669 4.01663 20.1156 4.60918L17.3465 2.80683L12.6528 7.50047L13.6053 9.77063C13.5689 9.76889 13.5343 9.7624 13.4979 9.76153C11.7991 9.71215 10.199 10.332 8.98359 11.5119C7.76643 12.6909 7.09678 14.2733 7.09678 15.9677V17.7419C7.09678 19.7726 8.10472 21.678 9.75807 22.8319V23.2577L7.32028 23.8672L2.90169 21.2903H0V39.672L8.72716 42.5807H10.4269L10.6391 41.8374L13.3142 43.4431C13.358 44.8976 14.5245 46.068 15.9777 46.1191C16.0288 47.5662 17.1918 48.7293 18.639 48.7804C18.6901 50.2275 19.8531 51.3905 21.3003 51.4417C21.3531 52.9226 22.566 54.1129 24.059 54.1129C24.6135 54.1129 25.1571 53.9401 25.6141 53.6321L26.3998 54.326C26.8923 54.7596 27.5264 55 28.1848 55H28.349C29.8252 55 31.0263 53.8067 31.0449 52.3353C32.5051 52.3166 33.6876 51.1341 33.7062 49.674C35.1672 49.6553 36.3506 48.4711 36.3675 47.0101C37.842 46.9754 39.0323 45.7708 39.0323 44.2881C39.0323 44.1989 39.0279 44.111 39.0188 44.0222L55 36.0322V23.0645ZM46.129 16.1912V17.7419C46.129 19.3164 45.2783 20.7874 43.9087 21.5805L43.4651 21.837L43.4686 24.6442L47.9006 25.7514L38.1452 30.886V28.4963C38.1452 27.3038 37.6635 26.2118 36.8747 25.4048L39.9194 24.6442V21.8348L39.4767 21.5788C38.1079 20.7874 37.2581 19.3164 37.2581 17.7419V15.9677C37.2581 14.7579 37.7363 13.6266 38.6056 12.7841C39.4741 11.942 40.6263 11.4881 41.8309 11.5349C44.2006 11.6059 46.129 13.695 46.129 16.1912ZM28.8376 30.1886L24.8218 28.9052C22.9917 28.3187 21.0109 28.2312 19.1376 28.6461L18.629 28.7587V28.4963C18.629 27.273 19.4585 26.2109 20.6445 25.9138L25.7258 24.6442V21.8348L25.2831 21.5788C23.9144 20.7874 23.0645 19.3164 23.0645 17.7419V15.9677C23.0645 14.7579 23.5427 13.6266 24.4121 12.7841C25.2805 11.942 26.4401 11.4881 27.6373 11.5349C30.0071 11.6059 31.9355 13.695 31.9355 16.1912V17.7419C31.9355 19.3164 31.0848 20.7874 29.7151 21.5805L29.2716 21.837L29.2751 24.6442L34.3555 25.9138C35.5415 26.2109 36.371 27.273 36.371 28.4963V31.8203L36.1518 31.9355H35.6082L30.1544 30.377C29.7247 30.2553 29.282 30.2055 28.8376 30.1886ZM18.8279 13.277C20.4938 10.0491 23.8468 7.98387 27.5 7.98387C31.1186 7.98387 34.4573 10.0214 36.1358 13.2055C35.7134 14.0523 35.4839 14.9901 35.4839 15.9677V17.7419C35.4839 19.7726 36.4918 21.678 38.1452 22.8319V23.2577L34.5968 24.1461L31.0475 23.2577V22.8328C32.7009 21.6789 33.7097 19.7726 33.7097 17.7419V16.1912C33.7097 12.7451 31.0094 9.86116 27.6906 9.76066C25.9926 9.71085 24.3917 10.3311 23.1763 11.511C21.96 12.6909 21.2903 14.2733 21.2903 15.9677V17.7419C21.2903 19.7726 22.2983 21.678 23.9516 22.8319V23.2577L20.4032 24.1461L16.854 23.2577V22.8328C18.5073 21.6789 19.5161 19.7726 19.5161 17.7419V16.1912C19.5161 15.1474 19.2649 14.1563 18.8279 13.277ZM14.748 7.91197L17.5821 5.07785L20.0766 6.70131L20.554 6.4085C21.7499 5.6756 23.0424 5.13892 24.3952 4.81536L24.9409 4.68455L25.5582 1.77419H29.4427L30.0582 4.68368L30.604 4.81406C31.9567 5.13806 33.2492 5.67473 34.4452 6.40763L34.9225 6.70044L37.417 5.07698L40.2477 7.9085L39.2415 10.2644C38.5567 10.559 37.9217 10.9735 37.369 11.5093C37.3326 11.5448 37.3014 11.5829 37.2659 11.6193C35.1759 8.29704 31.4811 6.20968 27.5 6.20968C23.4903 6.20968 19.7851 8.31653 17.7004 11.6726C17.1425 11.0887 16.4789 10.6157 15.7434 10.2852L14.748 7.91197ZM11.5323 24.6442V21.8348L11.0896 21.5788C9.72081 20.7874 8.87097 19.3164 8.87097 17.7419V15.9677C8.87097 14.7579 9.34917 13.6266 10.2185 12.7841C11.087 11.942 12.2418 11.4881 13.4438 11.5349C15.8135 11.6059 17.7419 13.695 17.7419 16.1912V17.7419C17.7419 19.3164 16.8912 20.7874 15.5216 21.5805L15.078 21.837L15.0815 24.6442L18.1253 25.4048C17.3365 26.2118 16.8548 27.3038 16.8548 28.4963V29.1533L14.0879 29.7684L14.1598 29.5172L14.1936 27.8777L9.51507 25.1484L11.5323 24.6442ZM1.77419 23.0645H2.42089L8.8008 26.7857L5.58161 39.6621L1.77419 38.3925V23.0645ZM9.01478 40.8065L7.26874 40.2247L10.3961 27.7166L12.4194 28.8965V29.1499L9.08928 40.8065H9.01478ZM15.0806 43.3603C15.0806 43.0987 15.1863 42.8423 15.3717 42.6569L16.9311 41.0975C17.1165 40.9121 17.3729 40.8065 17.6345 40.8065C18.1829 40.8065 18.629 41.2526 18.629 41.801C18.629 42.0626 18.5233 42.319 18.338 42.5044L16.7786 44.0638C16.5932 44.2492 16.3368 44.3548 16.0752 44.3548C15.5268 44.3548 15.0806 43.9087 15.0806 43.3603ZM17.7419 46.0216C17.7419 45.76 17.8476 45.5036 18.033 45.3182L19.5924 43.7588C19.7778 43.5734 20.0342 43.4677 20.2958 43.4677C20.8442 43.4677 21.2903 43.9139 21.2903 44.4623C21.2903 44.7239 21.1846 44.9803 20.9992 45.1657L19.4399 46.7251C19.2545 46.9104 18.9981 47.0161 18.7365 47.0161C18.1881 47.0161 17.7419 46.57 17.7419 46.0216ZM20.4032 48.6829C20.4032 48.4213 20.5089 48.1649 20.6943 47.9795L22.2537 46.4201C22.439 46.2347 22.6955 46.129 22.9571 46.129C23.5055 46.129 23.9516 46.5752 23.9516 47.1236C23.9516 47.3852 23.8459 47.6416 23.6605 47.827L22.1012 49.3863C21.9158 49.5717 21.6594 49.6774 21.3977 49.6774C20.8494 49.6774 20.4032 49.2313 20.4032 48.6829ZM24.059 52.3387C23.5107 52.3387 23.0645 51.8926 23.0645 51.3442C23.0645 51.0826 23.1702 50.8261 23.3556 50.6408L24.9149 49.0814C25.1003 48.896 25.3568 48.7903 25.6184 48.7903C26.1668 48.7903 26.6129 49.2365 26.6129 49.7848C26.6129 50.0465 26.5072 50.3029 26.3218 50.4883L24.7625 52.0476C24.5771 52.233 24.3207 52.3387 24.059 52.3387ZM28.349 53.2258H28.1848C27.9587 53.2258 27.7421 53.1435 27.5736 52.9941L26.91 52.4089L27.5762 51.7427C27.814 51.5049 27.9986 51.222 28.135 50.9184L28.9415 51.5898C29.1525 51.7657 29.2742 52.0247 29.2742 52.3006C29.2742 52.8109 28.8592 53.2258 28.349 53.2258ZM36.3043 45.2419H36.1509C35.9283 45.2419 35.7108 45.1631 35.5406 45.0202L30.73 41.0113L29.5934 42.3749L34.265 46.2672C34.4751 46.4431 34.5968 46.7021 34.5968 46.978C34.5968 47.4883 34.1818 47.9032 33.6716 47.9032H33.4779C33.2627 47.9032 33.0522 47.827 32.8863 47.6884L28.0679 43.6735L26.9313 45.0371L31.6028 48.9298C31.8138 49.1044 31.9355 49.3634 31.9355 49.6393C31.9355 50.1496 31.5205 50.5645 31.0103 50.5645C30.6698 50.5645 30.338 50.4437 30.0768 50.2267L28.0969 48.5764C27.6607 47.6849 26.7645 47.0633 25.715 47.0261C25.6639 45.5789 24.5009 44.4159 23.0537 44.3648C23.0026 42.9176 21.8396 41.7546 20.3924 41.7035C20.3404 40.2226 19.1276 39.0323 17.6345 39.0323C16.9055 39.0323 16.1921 39.3277 15.6767 39.8431L14.1173 41.4025C14.0242 41.4956 13.9471 41.6013 13.8687 41.7061L11.1437 40.071L13.5326 31.7102L19.5213 30.3787C21.0924 30.0275 22.7488 30.1037 24.2808 30.594L25.5876 31.012L21.1573 33.2271C20.1451 33.7344 19.5161 34.7527 19.5161 35.885V36.0604C19.5161 37.699 20.8494 39.0323 22.488 39.0323C23.0264 39.0323 23.5561 38.8859 24.0166 38.6082L27.3198 36.6274C27.9834 36.2298 28.874 36.3168 29.447 36.8323L36.9423 43.5778C37.1428 43.7597 37.2581 44.0179 37.2581 44.2881C37.2581 44.8144 36.8305 45.2419 36.3043 45.2419ZM53.2258 34.9355L38.2807 42.4087C38.2322 42.3571 38.1815 42.3082 38.1283 42.2606L30.6343 35.5151C29.9776 34.9225 29.1287 34.5968 28.2442 34.5968C27.5975 34.5968 26.9625 34.7726 26.4063 35.1062L23.1018 37.0878C22.9164 37.1996 22.7046 37.2581 22.488 37.2581C21.827 37.2581 21.2903 36.7214 21.2903 36.0604V35.885C21.2903 35.428 21.5442 35.0182 21.9522 34.8142L26.9005 32.3401C27.7473 31.916 28.7527 31.8211 29.6653 32.0836L35.24 33.6759L36.5901 33.7097L53.2258 24.9539V34.9355Z" fill="white"/>
</svg>
