<svg width="55" height="55" viewBox="0 0 55 55" fill="none" xmlns="http://www.w3.org/2000/svg">
<path d="M24.3492 9.82324C23.6505 8.82723 22.1708 7.3114 19.7528 7.58146C17.7049 7.81016 16.1772 7.15295 15.207 6.5024" stroke="white" stroke-width="2" stroke-miterlimit="10" stroke-linecap="round" stroke-linejoin="round"/>
<path d="M24.1389 10.8774C24.1389 10.8774 18.437 10.4675 16.3108 14.1014" stroke="white" stroke-width="2" stroke-miterlimit="10" stroke-linecap="round" stroke-linejoin="round"/>
<path d="M34.6886 12.6237C31.6259 13.3972 28.6003 13.3973 25.537 12.6237C24.4709 12.3544 23.8665 11.1556 24.2502 10.0658C24.2545 10.0537 24.2588 10.0415 24.263 10.0294C24.5847 9.11566 25.4971 8.60294 26.3912 8.82745C28.899 9.45705 31.3259 9.45726 33.8344 8.82745C34.7286 8.60294 35.6409 9.11577 35.9625 10.0294C35.9668 10.0415 35.9711 10.0537 35.9754 10.0659C36.3591 11.1557 35.7548 12.3544 34.6886 12.6237Z" stroke="white" stroke-width="2" stroke-miterlimit="10" stroke-linecap="round" stroke-linejoin="round"/>
<path d="M34.6886 8.8313C36.1338 6.73271 38.5534 2.7987 37.4635 1.38739C36.9469 0.718692 36.5065 1.62694 35.4382 1.62694C34.1829 1.62694 34.1829 0.805704 32.9278 0.805704C31.6728 0.805704 31.6728 1.62694 30.4177 1.62694C29.1628 1.62694 29.1628 0.805704 27.9078 0.805704C26.6528 0.805704 26.6528 1.62694 25.3979 1.62694C24.3284 1.62694 23.8897 0.706876 23.3697 1.37601C22.2878 2.76862 24.6217 6.66105 26.048 8.77716" stroke="white" stroke-width="2" stroke-miterlimit="10" stroke-linecap="round" stroke-linejoin="round"/>
<path d="M39.1332 14.3256C38.1321 13.4336 37.0418 12.5514 35.8582 11.6833" stroke="white" stroke-width="2" stroke-miterlimit="10" stroke-linecap="round" stroke-linejoin="round"/>
<path d="M24.5372 11.9511C14.5753 19.4108 11.4617 27.9023 12.4772 34.5115" stroke="white" stroke-width="2" stroke-miterlimit="10" stroke-linecap="round" stroke-linejoin="round"/>
<path d="M45.9734 40.552C49.9466 34.9667 49.8514 25.7276 41.8198 16.9668" stroke="white" stroke-width="2" stroke-miterlimit="10" stroke-linecap="round" stroke-linejoin="round"/>
<path d="M33.5158 40.7366L33.5154 40.7938L33.5533 40.7772C33.5409 40.7634 33.5283 40.7501 33.5158 40.7366Z" fill="#FFDDCE"/>
<path d="M25.4812 45.5631H34.5926" stroke="white" stroke-width="2" stroke-miterlimit="10" stroke-linecap="round" stroke-linejoin="round"/>
<path d="M8.40161 50.2296L17.5557 53.6368C18.5462 54.0055 19.5948 54.1943 20.6518 54.1943H32.6722C34.3543 54.1943 36.0018 53.7163 37.4228 52.8159L52.4735 43.279C53.4664 42.3973 53.6505 40.9154 52.9034 39.8175C52.0861 38.6163 50.7339 38.4075 49.2461 39.111L34.5927 45.5631L34.6101 43.1856C34.416 41.2343 32.9136 39.6682 30.9718 39.3934L22.0484 38.3662C19.99 38.0748 18.9613 37.3851 17.1668 36.3352C14.7168 34.902 11.9297 34.1467 9.09126 34.1467H8.40161" stroke="white" stroke-width="2" stroke-miterlimit="10" stroke-linecap="round" stroke-linejoin="round"/>
<path d="M8.40152 40.994V51.6186C8.40152 52.4649 7.71553 53.151 6.86926 53.151H3.17104C2.32478 53.151 1.63867 52.4649 1.63867 51.6186V32.8559C1.63867 32.0096 2.32478 31.3237 3.17104 31.3237H6.86926C7.71553 31.3237 8.40152 32.0096 8.40152 32.8559V37.2277" stroke="white" stroke-width="2" stroke-miterlimit="10" stroke-linecap="round" stroke-linejoin="round"/>
<path d="M33.2394 20.3516C33.2394 20.3516 31.6319 18.8689 29.1541 19.6153C26.879 20.3006 26.314 23.4137 27.86 24.6263C28.7477 25.3225 30.0835 25.8951 31.8838 26.5314C35.913 27.9556 34.4235 33.6379 30.325 33.6652C28.7255 33.6757 27.9778 33.5743 26.5728 32.6551" stroke="white" stroke-width="2" stroke-miterlimit="10" stroke-linecap="round" stroke-linejoin="round"/>
<path d="M30.325 17.4871V35.7391" stroke="white" stroke-width="2" stroke-miterlimit="10" stroke-linecap="round" stroke-linejoin="round"/>
</svg>
