<svg width="16" height="16" viewBox="0 0 16 16" fill="none" xmlns="http://www.w3.org/2000/svg">
<g clip-path="url(#clip0_399_12588)">
<path d="M11.4702 9.91291L9.23938 8.23979V4.8316C9.23938 4.48891 8.96237 4.21191 8.61969 4.21191C8.277 4.21191 8 4.48891 8 4.8316V8.54967C8 8.74485 8.09172 8.92891 8.24787 9.04541L10.7266 10.9044C10.8381 10.9881 10.9682 11.0284 11.0977 11.0284C11.2867 11.0284 11.4727 10.9435 11.5941 10.7799C11.7999 10.5066 11.7441 10.118 11.4702 9.91291Z" fill="black"/>
<path d="M8 0C3.58853 0 0 3.58853 0 8C0 12.4115 3.58853 16 8 16C12.4115 16 16 12.4115 16 8C16 3.58853 12.4115 0 8 0ZM8 14.7607C4.27266 14.7607 1.23934 11.7273 1.23934 8C1.23934 4.27266 4.27266 1.23934 8 1.23934C11.728 1.23934 14.7607 4.27266 14.7607 8C14.7607 11.7273 11.7273 14.7607 8 14.7607Z" fill="black"/>
</g>
<defs>
<clipPath id="clip0_399_12588">
<rect width="16" height="16" fill="white"/>
</clipPath>
</defs>
</svg>
