<svg width="16" height="16" viewBox="0 0 16 16" fill="none" xmlns="http://www.w3.org/2000/svg">
<path d="M9.58317 1H3.51663C3.1144 1 2.72864 1.1475 2.44421 1.41005C2.15979 1.6726 2 2.0287 2 2.4V13.6C2 13.9713 2.15979 14.3274 2.44421 14.5899C2.72864 14.8525 3.1144 15 3.51663 15H12.6164C13.0187 15 13.4044 14.8525 13.6889 14.5899C13.9733 14.3274 14.1331 13.9713 14.1331 13.6V5.2L9.58317 1Z" stroke="#0A2540" stroke-linecap="round" stroke-linejoin="round"/>
<path d="M9.5838 1V5.2H14.1337" stroke="#0A2540" stroke-linecap="round" stroke-linejoin="round"/>
<path d="M11.0999 8.69995H5.03333" stroke="#0A2540" stroke-linecap="round" stroke-linejoin="round"/>
<path d="M11.0999 11.5H5.03333" stroke="#0A2540" stroke-linecap="round" stroke-linejoin="round"/>
<path d="M6.54996 5.8999H5.79164H5.03333" stroke="#0A2540" stroke-linecap="round" stroke-linejoin="round"/>
</svg>
